if (_typeface_js && _typeface_js.loadFace) _typeface_js.loadFace({"glyphs":{"ӱ":{"x_min":24.78125,"x_max":823.609375,"ha":844,"o":"m 570 968 b 480 877 522 968 480 927 b 570 787 480 829 522 787 b 661 877 619 787 661 829 b 570 968 661 927 619 968 m 309 968 b 219 877 260 968 219 927 b 309 787 219 829 260 787 b 399 877 359 787 399 829 b 309 968 399 927 359 968 m 727 533 l 823 563 l 806 648 l 536 648 l 519 563 l 613 533 l 466 111 l 466 226 l 309 533 l 416 563 l 399 648 l 41 648 l 24 563 l 126 533 l 377 0 l 420 -15 l 393 -87 b 156 -248 344 -212 230 -237 l 172 -331 l 359 -347 b 490 -144 411 -311 469 -204 l 727 533 "},"ȋ":{"x_min":22.21875,"x_max":438.890625,"ha":464,"o":"m 277 1020 l 181 1020 l 22 784 l 63 755 l 230 891 l 394 755 l 438 784 l 277 1020 m 408 86 l 391 0 l 72 0 l 55 86 l 144 115 l 144 563 l 80 563 l 65 648 l 234 663 l 319 648 l 319 115 l 408 86 "},"‥":{"x_min":55.5625,"x_max":527.78125,"ha":583,"o":"m 431 166 b 337 72 380 166 337 123 b 431 -23 337 19 380 -23 b 527 72 484 -23 527 19 b 431 166 527 123 484 166 m 150 166 b 55 72 98 166 55 123 b 150 -23 55 19 98 -23 b 245 72 202 -23 245 19 b 150 166 245 123 202 166 "},"Á":{"x_min":20.828125,"x_max":1045.828125,"ha":1057,"o":"m 741 1208 l 629 1307 l 456 1090 l 497 1052 l 741 1208 m 461 972 l 141 143 l 20 98 l 36 0 l 383 0 l 397 100 l 266 143 l 333 309 l 658 309 l 720 143 l 611 98 l 626 0 l 1030 0 l 1045 98 l 923 143 l 612 995 l 461 972 m 618 418 l 375 418 l 530 812 l 530 654 l 618 418 "},"ĥ":{"x_min":-40.28125,"x_max":794.453125,"ha":836,"o":"m 215 1288 l 119 1288 l -40 1052 l 1 1023 l 168 1159 l 331 1023 l 376 1052 l 215 1288 m 288 115 l 288 534 b 436 562 326 550 388 562 b 531 462 487 562 531 534 l 531 115 l 443 84 l 459 0 l 777 0 l 794 84 l 706 115 l 706 443 b 445 663 706 594 602 663 b 288 627 401 663 327 645 l 288 1016 l 206 1037 l 20 1016 l 37 937 l 113 937 l 113 115 l 27 84 l 44 0 l 359 0 l 376 84 l 288 115 "},"»":{"x_min":83.328125,"x_max":676.390625,"ha":760,"o":"m 373 313 l 393 381 l 127 569 l 83 520 l 226 351 l 83 184 l 126 135 l 373 313 m 659 302 l 676 390 l 343 615 l 297 552 l 500 351 l 297 152 l 343 88 l 659 302 "},"♥":{"x_min":76.390625,"x_max":915.28125,"ha":992,"o":"m 495 63 b 915 590 495 63 915 242 b 694 832 915 832 694 832 b 495 736 579 832 495 736 b 297 832 495 736 415 832 b 76 590 297 832 76 832 b 495 63 76 242 495 63 "},"ў":{"x_min":25,"x_max":823.609375,"ha":844,"o":"m 681 994 b 512 920 622 938 577 920 b 375 1008 452 920 402 958 l 304 1008 l 216 916 b 469 793 283 823 369 793 b 733 941 562 793 669 851 l 681 994 m 727 533 l 823 563 l 806 648 l 536 648 l 519 563 l 613 533 l 466 111 l 466 226 l 309 533 l 416 563 l 400 648 l 41 648 l 25 563 l 126 533 l 377 0 l 420 -15 l 393 -87 b 156 -248 344 -212 230 -237 l 172 -331 l 359 -347 b 490 -144 411 -311 469 -204 l 727 533 "},"ţ":{"x_min":13.953125,"x_max":519.5,"ha":519,"o":"m 282 795 l 177 819 l 118 671 l 13 639 l 27 563 l 107 563 l 107 173 b 202 10 107 102 138 42 l 202 -121 l 244 -121 b 284 -164 270 -121 284 -140 b 170 -229 284 -201 243 -229 l 198 -307 b 402 -157 282 -307 402 -269 b 288 -54 402 -83 334 -57 l 288 -12 b 319 -14 298 -12 308 -14 b 519 78 407 -14 465 23 l 459 152 b 341 85 422 112 376 85 b 282 162 316 85 282 114 l 282 563 l 448 563 l 465 648 l 282 648 l 282 795 "},"«":{"x_min":83.328125,"x_max":676.390625,"ha":760,"o":"m 633 136 l 676 184 l 533 351 l 676 520 l 631 569 l 366 381 l 386 313 l 633 136 m 416 89 l 462 152 l 259 351 l 462 552 l 416 615 l 83 390 l 100 302 l 416 89 "},"í":{"x_min":55.5625,"x_max":408.328125,"ha":464,"o":"m 376 998 l 241 1064 l 140 811 l 201 779 l 376 998 m 319 115 l 319 648 l 234 664 l 65 648 l 80 564 l 144 564 l 144 115 l 55 86 l 72 0 l 391 0 l 408 86 l 319 115 "},"ң":{"x_min":48.609375,"x_max":856.953125,"ha":906,"o":"m 708 0 l 762 -181 l 855 -172 l 855 87 l 768 114 l 768 532 l 856 560 l 843 648 l 516 648 l 502 560 l 593 532 l 593 380 l 312 380 l 312 532 l 404 560 l 388 648 l 62 648 l 48 560 l 137 532 l 137 114 l 51 87 l 65 0 l 384 0 l 400 87 l 312 114 l 312 300 l 593 300 l 593 116 l 504 87 l 518 0 l 708 0 "},"ņ":{"x_min":48.609375,"x_max":818.0625,"ha":867,"o":"m 433 -49 b 509 -127 476 -49 509 -83 b 391 -311 509 -220 451 -280 l 352 -272 b 405 -186 384 -247 401 -215 l 381 -186 b 356 -127 366 -167 356 -148 b 433 -49 356 -84 390 -49 m 431 564 b 555 450 493 564 555 522 l 555 115 l 468 84 l 484 0 l 801 0 l 818 84 l 730 115 l 730 429 b 466 663 730 580 627 663 b 293 627 408 663 338 643 l 236 664 l 58 648 l 73 564 l 136 564 l 136 115 l 48 84 l 63 0 l 384 0 l 400 84 l 311 115 l 311 536 b 431 564 347 548 395 564 "},"µ":{"x_min":2.5,"x_max":773.34375,"ha":794,"o":"m 184 664 l 17 645 l 33 564 l 90 564 l 90 -216 l 2 -247 l 17 -331 l 337 -331 l 353 -247 l 265 -216 l 265 -88 l 208 15 b 342 -15 245 -4 290 -15 b 526 32 410 -15 473 -5 l 567 0 l 756 0 l 773 86 l 684 115 l 684 643 l 615 664 l 435 645 l 451 564 l 509 564 l 509 139 b 391 86 481 105 428 86 b 265 226 334 86 265 122 l 265 644 l 184 664 "},"ỳ":{"x_min":25,"x_max":823.609375,"ha":844,"o":"m 440 779 l 501 811 l 400 1064 l 265 998 l 440 779 m 727 533 l 823 564 l 806 648 l 536 648 l 519 564 l 613 533 l 466 111 l 466 226 l 309 533 l 416 564 l 400 648 l 41 648 l 25 564 l 126 533 l 377 0 l 420 -15 l 393 -87 b 156 -248 344 -212 230 -237 l 172 -331 l 359 -347 b 490 -144 411 -311 469 -204 l 727 533 "},"Ҫ":{"x_min":41.84375,"x_max":879.34375,"ha":901,"o":"m 550 93 b 250 493 312 93 250 304 b 550 879 250 755 357 879 b 715 856 596 879 665 870 l 779 675 l 879 690 l 879 906 b 550 995 775 966 673 995 b 41 486 211 995 41 741 b 550 -23 41 230 189 -23 l 555 -23 b 489 -140 519 -50 489 -87 b 630 -273 489 -220 547 -273 b 726 -256 641 -273 683 -272 l 702 -156 b 659 -163 689 -161 676 -163 b 602 -118 626 -163 602 -152 b 725 0 602 -77 650 -36 b 879 66 784 15 839 37 l 879 291 l 780 305 l 709 112 b 550 93 664 100 590 93 "},"қ":{"x_min":13.890625,"x_max":765.28125,"ha":781,"o":"m 445 648 l 429 563 l 498 532 l 320 362 l 320 307 l 493 70 l 479 0 l 619 0 l 673 -181 l 765 -172 l 765 84 l 665 114 l 518 323 l 434 341 l 600 498 b 745 563 627 525 662 550 l 729 648 l 445 648 m 277 114 l 277 648 l 195 669 l 13 648 l 30 563 l 102 563 l 102 114 l 13 84 l 30 0 l 348 0 l 365 84 l 277 114 "},"ѕ":{"x_min":55.5625,"x_max":572.21875,"ha":628,"o":"m 295 -13 b 572 187 463 -13 572 65 b 398 384 572 294 494 338 b 218 504 329 418 218 450 b 319 576 218 545 263 576 b 423 562 352 576 390 570 l 452 455 l 547 472 l 547 605 b 333 663 487 641 409 663 b 58 483 166 663 58 601 b 275 261 58 362 183 304 b 412 148 337 231 412 193 b 284 73 412 97 352 73 b 195 87 266 73 218 79 l 148 225 l 55 206 l 55 43 b 295 -13 134 4 234 -13 "},"Ш":{"x_min":50,"x_max":1433.328125,"ha":1489,"o":"m 1123 98 l 837 98 l 837 827 l 954 873 l 940 973 l 543 973 l 527 873 l 645 827 l 645 98 l 358 98 l 358 827 l 475 873 l 459 973 l 63 973 l 50 873 l 166 827 l 166 141 l 51 98 l 66 0 l 1415 0 l 1430 98 l 1316 141 l 1316 827 l 1433 873 l 1416 973 l 1022 973 l 1006 873 l 1123 827 l 1123 98 "},"M":{"x_min":40.28125,"x_max":1286.109375,"ha":1340,"o":"m 923 676 l 977 141 l 865 98 l 879 0 l 1272 0 l 1286 98 l 1170 141 l 1104 827 l 1220 873 l 1204 972 l 918 972 l 643 226 l 643 365 l 418 972 l 138 972 l 123 873 l 238 827 l 158 142 l 40 98 l 56 0 l 365 0 l 379 98 l 266 142 l 329 641 l 572 -24 l 676 0 l 923 676 "},"ũ":{"x_min":41.78125,"x_max":796.890625,"ha":818,"o":"m 552 782 l 681 941 l 639 971 l 519 912 l 380 968 l 333 968 l 204 808 l 248 779 l 363 851 l 502 782 l 552 782 m 533 139 b 415 86 505 105 452 86 b 288 226 358 86 288 122 l 288 644 l 208 664 l 41 645 l 57 564 l 114 564 l 114 239 b 366 -15 114 87 207 -15 b 549 32 434 -15 497 -5 l 591 0 l 780 0 l 796 84 l 708 115 l 708 643 l 638 664 l 459 645 l 474 564 l 533 564 l 533 139 "},"ŭ":{"x_min":41.765625,"x_max":796.890625,"ha":818,"o":"m 426 913 b 247 993 355 913 290 940 l 197 958 b 426 793 226 877 308 793 b 656 958 545 793 627 877 l 605 993 b 426 913 562 940 498 913 m 533 138 b 415 86 505 105 452 86 b 288 226 358 86 288 122 l 288 644 l 208 663 l 41 645 l 57 563 l 114 563 l 114 238 b 366 -15 114 87 207 -15 b 549 32 434 -15 497 -5 l 591 0 l 780 0 l 796 84 l 708 115 l 708 643 l 638 663 l 459 645 l 474 563 l 533 563 l 533 138 "},"":{"x_min":68.21875,"x_max":625.734375,"ha":694,"o":"m 465 216 b 347 84 465 141 410 84 b 229 218 285 84 229 137 b 315 376 229 276 272 344 b 465 216 371 354 465 280 m 253 637 b 346 738 253 704 289 738 b 439 645 408 738 439 700 b 371 501 439 586 401 523 b 253 637 322 523 253 572 m 600 631 b 346 837 600 750 510 837 b 93 631 183 837 93 752 b 212 423 93 544 140 472 b 68 218 137 386 68 315 b 346 -13 68 56 196 -13 b 625 223 496 -13 625 65 b 477 452 625 344 552 405 b 600 631 527 483 600 550 "},"{":{"x_min":83.53125,"x_max":532.140625,"ha":588,"o":"m 459 962 l 532 962 l 532 1066 l 441 1066 b 209 833 314 1066 209 962 l 209 519 b 129 441 209 476 173 441 l 83 441 l 83 336 l 129 336 b 209 258 173 336 209 300 l 209 -101 b 441 -336 209 -230 314 -336 l 532 -336 l 532 -230 l 459 -230 b 382 -152 416 -230 382 -197 l 382 197 b 272 388 382 297 343 356 b 382 581 343 422 382 480 l 382 884 b 459 962 382 926 416 962 "},"¼":{"x_min":100,"x_max":1000,"ha":1114,"o":"m 901 995 l 158 -23 l 258 -23 l 1000 995 l 901 995 m 113 447 l 383 447 l 394 504 l 305 522 l 305 986 l 248 986 l 100 954 l 111 894 l 195 894 l 195 522 l 104 505 l 113 447 m 801 202 l 683 202 l 838 415 l 801 302 l 801 202 m 801 141 l 801 75 l 712 58 l 720 0 l 987 0 l 998 56 l 911 75 l 911 141 l 972 141 l 987 202 l 911 202 l 911 534 l 856 548 l 588 183 l 619 141 l 801 141 "},"Ê":{"x_min":48.484375,"x_max":802.65625,"ha":851,"o":"m 502 1289 l 406 1289 l 247 1053 l 288 1024 l 455 1160 l 619 1024 l 663 1053 l 502 1289 m 356 873 l 356 555 l 499 555 l 541 668 l 641 654 l 641 347 l 542 333 l 499 446 l 356 446 l 356 99 l 630 99 l 704 307 l 802 293 l 802 0 l 65 0 l 51 99 l 165 142 l 165 827 l 48 873 l 63 972 l 779 972 l 779 725 l 679 710 l 624 873 l 356 873 "},")":{"x_min":27.78125,"x_max":483.328125,"ha":511,"o":"m 27 -337 b 483 380 373 -337 483 95 b 27 1066 483 668 350 1066 l 27 955 b 302 387 219 955 302 661 b 27 -226 302 113 222 -226 l 27 -337 "},"э":{"x_min":41.671875,"x_max":648.609375,"ha":704,"o":"m 220 286 l 456 286 b 265 73 445 169 387 73 b 173 87 240 73 198 77 l 136 225 l 41 206 l 41 41 b 275 -13 119 5 204 -13 b 648 323 526 -13 648 119 b 273 662 648 537 493 662 b 41 606 205 662 122 645 l 41 472 l 136 455 b 165 559 143 484 156 529 b 269 575 195 570 241 575 b 458 376 376 575 452 504 l 220 376 l 220 286 "},"ӫ":{"x_min":55.5625,"x_max":748.609375,"ha":804,"o":"m 402 663 b 55 325 191 663 55 531 b 402 -13 55 118 179 -13 b 748 325 627 -13 748 112 b 402 663 748 537 612 663 m 570 291 b 402 73 561 158 498 73 b 236 291 302 73 244 159 l 570 291 m 236 363 b 402 576 244 495 308 576 b 570 363 497 576 561 498 l 236 363 m 531 968 b 441 877 483 968 441 927 b 531 787 441 829 483 787 b 622 877 580 787 622 829 b 531 968 622 927 580 968 m 270 968 b 180 877 222 968 180 927 b 270 787 180 829 222 787 b 361 877 320 787 361 829 b 270 968 361 927 320 968 "},"ш":{"x_min":48.609375,"x_max":1166.671875,"ha":1215,"o":"m 1150 0 l 1166 84 l 1076 115 l 1076 533 l 1165 563 l 1148 648 l 830 648 l 813 563 l 901 533 l 901 84 l 697 84 l 697 533 l 783 563 l 766 648 l 450 648 l 433 563 l 522 533 l 522 84 l 313 84 l 313 533 l 401 563 l 384 648 l 68 648 l 51 563 l 138 533 l 138 115 l 48 84 l 65 0 l 1150 0 "},"Я":{"x_min":13.890625,"x_max":927.78125,"ha":958,"o":"m 619 143 l 501 98 l 516 0 l 912 0 l 927 98 l 811 143 l 811 827 l 927 873 l 912 972 l 426 972 b 111 687 218 972 111 861 b 384 441 111 548 255 447 l 295 390 l 143 143 l 13 98 l 30 0 l 340 0 l 326 76 l 559 441 l 559 530 l 486 530 b 297 687 377 530 297 605 b 476 873 297 790 351 873 l 619 873 l 619 143 "},"a":{"x_min":43.0625,"x_max":691.671875,"ha":706,"o":"m 94 472 l 187 455 l 218 561 b 320 576 244 568 287 576 b 438 458 381 576 438 537 l 438 409 b 43 177 263 409 43 366 b 277 -15 43 51 152 -15 b 456 32 358 -15 415 2 l 498 0 l 675 0 l 691 84 l 613 115 l 613 402 b 327 663 613 570 506 663 b 94 605 258 663 175 645 l 94 472 m 438 141 b 329 86 415 107 366 86 b 233 190 290 86 233 111 b 438 323 233 269 309 323 l 438 141 "},"Ę":{"x_min":49.046875,"x_max":804.59375,"ha":851,"o":"m 625 873 l 679 709 l 779 725 l 779 972 l 64 972 l 49 873 l 165 827 l 165 141 l 51 98 l 65 0 l 672 0 b 567 -140 621 -27 567 -69 b 708 -273 567 -220 625 -273 b 804 -256 719 -273 761 -272 l 780 -156 b 737 -163 767 -161 754 -163 b 680 -118 704 -163 680 -152 b 803 0 680 -77 728 -36 l 803 293 l 704 306 l 630 98 l 357 98 l 357 445 l 500 445 l 543 333 l 642 347 l 642 654 l 542 668 l 500 555 l 357 555 l 357 873 l 625 873 "},"Ӣ":{"x_min":55.59375,"x_max":1118.09375,"ha":1174,"o":"m 363 143 l 480 98 l 463 0 l 72 0 l 58 98 l 172 141 l 172 830 l 55 873 l 72 972 l 465 972 l 483 873 l 363 829 l 363 476 l 322 323 l 808 784 l 808 830 l 691 873 l 708 972 l 1101 972 l 1118 873 l 1000 830 l 1000 141 l 1116 98 l 1101 0 l 708 0 l 694 98 l 808 141 l 808 504 l 862 650 l 363 179 l 363 143 m 350 1059 l 823 1059 l 823 1151 l 350 1151 l 350 1059 "},"Ȓ":{"x_min":48.328125,"x_max":927.5,"ha":958,"o":"m 358 873 l 494 873 b 678 693 617 873 678 794 b 505 522 678 612 612 522 l 416 522 l 416 434 l 621 76 l 608 0 l 912 0 l 927 98 l 806 141 l 667 387 l 576 434 b 865 693 710 434 865 541 b 544 972 865 865 752 972 l 65 972 l 48 873 l 165 827 l 165 141 l 51 98 l 66 0 l 458 0 l 473 98 l 358 143 l 358 873 m 452 1288 l 356 1288 l 196 1052 l 238 1023 l 405 1159 l 569 1023 l 613 1052 l 452 1288 "},"Z":{"x_min":41.671875,"x_max":863.890625,"ha":892,"o":"m 243 98 l 347 172 l 863 873 l 788 972 l 113 972 l 113 688 l 212 673 l 283 873 l 673 873 l 568 790 l 41 98 l 104 0 l 863 0 l 863 291 l 765 306 l 690 98 l 243 98 "},"k":{"x_min":55.5625,"x_max":808.328125,"ha":822,"o":"m 770 649 l 787 564 b 641 499 715 550 669 526 l 476 342 l 559 324 l 706 115 l 808 85 l 791 0 l 520 0 l 534 71 l 362 308 l 362 363 l 540 533 l 470 564 l 490 649 l 770 649 m 319 115 l 319 1017 l 237 1038 l 66 1017 l 83 938 l 144 938 l 144 115 l 55 85 l 72 0 l 390 0 l 406 85 l 319 115 "},"ȇ":{"x_min":55.78125,"x_max":714,"ha":763,"o":"m 458 1020 l 362 1020 l 203 784 l 244 755 l 411 891 l 575 755 l 619 784 l 458 1020 m 534 408 b 539 448 537 422 539 436 b 411 576 539 530 483 576 b 250 408 321 576 262 508 l 534 408 m 441 86 b 655 150 512 86 584 102 l 702 79 b 434 -15 614 6 526 -15 b 55 325 171 -15 55 119 b 411 663 55 537 212 663 b 714 438 577 663 714 575 b 683 322 714 401 700 351 l 246 322 b 441 86 248 183 322 86 "},"Ù":{"x_min":41.671875,"x_max":1020.828125,"ha":1042,"o":"m 605 1052 l 645 1090 l 473 1307 l 361 1208 l 605 1052 m 543 -23 b 158 415 351 -23 158 52 l 158 827 l 41 873 l 55 972 l 452 972 l 466 873 l 350 827 l 350 406 b 565 93 350 184 419 93 b 798 404 712 93 798 197 l 798 827 l 679 873 l 695 972 l 1006 972 l 1020 873 l 904 827 l 904 415 b 543 -23 904 55 722 -23 "},"Ů":{"x_min":41.671875,"x_max":1020.828125,"ha":1042,"o":"m 565 1291 b 412 1156 480 1291 412 1247 b 565 1025 412 1068 472 1025 b 718 1156 658 1025 718 1066 b 565 1291 718 1247 654 1291 m 565 1234 b 616 1158 595 1234 616 1200 b 565 1081 616 1118 597 1081 b 513 1158 533 1081 513 1118 b 565 1234 513 1198 534 1234 m 543 -23 b 158 415 351 -23 158 52 l 158 827 l 41 873 l 55 972 l 452 972 l 466 873 l 350 827 l 350 406 b 565 93 350 184 419 93 b 798 404 712 93 798 197 l 798 827 l 679 873 l 695 972 l 1006 972 l 1020 873 l 904 827 l 904 415 b 543 -23 904 55 722 -23 "},"¢":{"x_min":139.21875,"x_max":715.609375,"ha":847,"o":"m 618 834 l 544 834 l 510 689 b 489 691 503 691 496 691 b 139 338 269 691 139 552 b 350 8 139 166 221 52 l 312 -152 l 387 -152 l 421 -8 b 489 -14 442 -12 465 -14 b 715 40 554 -14 639 2 l 715 188 l 626 206 l 598 110 b 492 95 568 101 519 95 b 446 99 475 95 460 97 l 558 577 b 598 568 573 575 587 571 l 626 473 l 715 491 l 715 635 b 582 679 685 649 635 668 l 618 834 m 317 341 b 485 582 317 495 376 579 l 380 137 b 317 341 336 178 317 251 "},"В":{"x_min":48.21875,"x_max":907.9375,"ha":971,"o":"m 356 873 l 462 873 b 610 726 570 873 610 802 b 473 588 610 650 549 588 l 414 588 l 414 480 l 517 480 b 701 293 624 480 701 394 b 548 98 701 191 638 98 l 356 98 l 356 873 m 585 0 b 907 279 784 0 907 125 b 712 544 907 402 824 508 b 817 738 774 586 817 656 b 564 972 817 866 707 972 l 63 972 l 48 873 l 164 827 l 164 141 l 49 98 l 64 0 l 585 0 "},"І":{"x_min":83.328125,"x_max":511.109375,"ha":594,"o":"m 393 827 l 511 873 l 494 972 l 100 972 l 83 873 l 201 827 l 201 141 l 83 98 l 100 0 l 494 0 l 511 98 l 393 141 l 393 827 "},"ē":{"x_min":55.671875,"x_max":714,"ha":763,"o":"m 161 805 l 634 805 l 634 897 l 161 897 l 161 805 m 534 408 b 539 448 537 422 539 436 b 411 576 539 530 483 576 b 250 408 320 576 262 508 l 534 408 m 441 86 b 655 150 512 86 584 102 l 702 79 b 434 -15 614 6 526 -15 b 55 325 170 -15 55 119 b 411 663 55 537 212 663 b 714 438 577 663 714 575 b 683 322 714 401 700 351 l 245 322 b 441 86 248 183 322 86 "},"Ғ":{"x_min":48.609375,"x_max":754.171875,"ha":789,"o":"m 345 873 l 580 873 l 655 675 l 754 690 l 754 972 l 65 972 l 48 873 l 165 827 l 165 513 l 48 513 l 48 440 l 165 440 l 165 141 l 51 98 l 65 0 l 487 0 l 501 98 l 345 141 l 345 440 l 544 440 l 544 513 l 345 513 l 345 873 "},"¥":{"x_min":14.484375,"x_max":903.65625,"ha":917,"o":"m 107 565 l 107 493 l 303 493 l 374 384 l 374 372 l 107 372 l 107 300 l 374 300 l 374 123 l 257 94 l 274 0 l 659 0 l 675 94 l 562 122 l 562 300 l 820 300 l 820 372 l 562 372 l 562 433 l 602 493 l 820 493 l 820 565 l 652 565 l 780 748 l 903 801 l 888 890 l 575 890 l 557 801 l 663 756 l 464 475 l 464 559 l 347 756 l 450 801 l 433 890 l 32 890 l 14 801 l 139 747 l 257 565 l 107 565 "},"Ĥ":{"x_min":55.65625,"x_max":1083.4375,"ha":1139,"o":"m 616 1288 l 520 1288 l 361 1052 l 402 1023 l 569 1159 l 733 1023 l 777 1052 l 616 1288 m 966 827 l 966 143 l 1082 98 l 1066 0 l 672 0 l 658 98 l 775 141 l 775 447 l 364 447 l 364 141 l 477 98 l 464 0 l 72 0 l 57 98 l 172 141 l 172 827 l 55 873 l 69 972 l 466 972 l 480 873 l 364 827 l 364 554 l 775 554 l 775 827 l 658 873 l 672 972 l 1069 972 l 1083 873 l 966 827 "},"U":{"x_min":41.671875,"x_max":1020.828125,"ha":1042,"o":"m 543 -23 b 904 415 722 -23 904 55 l 904 827 l 1020 873 l 1006 972 l 695 972 l 679 873 l 798 827 l 798 404 b 565 93 798 197 712 93 b 350 406 419 93 350 184 l 350 827 l 466 873 l 452 972 l 55 972 l 41 873 l 158 827 l 158 415 b 543 -23 158 52 351 -23 "},"Ñ":{"x_min":32.953125,"x_max":998.234375,"ha":1036,"o":"m 664 1050 l 794 1209 l 752 1239 l 631 1180 l 492 1236 l 445 1236 l 316 1076 l 360 1047 l 476 1119 l 614 1050 l 664 1050 m 34 98 l 49 0 l 356 0 l 371 98 l 256 141 l 256 738 l 767 -24 l 882 0 l 882 827 l 998 873 l 984 972 l 674 972 l 660 873 l 776 827 l 776 251 l 726 395 l 335 972 l 46 972 l 32 873 l 149 827 l 149 142 l 34 98 "},"F":{"x_min":48.609375,"x_max":762.5,"ha":797,"o":"m 356 873 l 608 873 l 663 709 l 762 725 l 762 972 l 62 972 l 48 873 l 165 827 l 165 143 l 50 98 l 65 0 l 501 0 l 515 98 l 356 141 l 356 445 l 511 445 l 555 333 l 652 348 l 652 652 l 555 668 l 511 555 l 356 555 l 356 873 "},"Ӹ":{"x_min":48.671875,"x_max":1272.1875,"ha":1319,"o":"m 791 1216 b 700 1126 742 1216 700 1176 b 791 1036 700 1077 742 1036 b 881 1126 840 1036 881 1077 b 791 1216 881 1176 840 1216 m 529 1216 b 438 1126 480 1216 438 1176 b 529 1036 438 1077 480 1036 b 620 1126 579 1036 620 1077 b 529 1216 620 1176 579 1216 m 1154 827 l 1272 875 l 1255 972 l 861 972 l 845 875 l 962 827 l 962 143 l 845 98 l 861 0 l 1256 0 l 1272 98 l 1154 144 l 1154 827 m 166 141 l 51 98 l 66 0 l 490 0 b 837 308 760 0 837 140 b 476 590 837 519 652 590 l 409 590 l 409 480 l 443 480 b 629 308 557 480 629 425 b 436 98 629 191 568 98 l 358 98 l 358 830 l 475 873 l 459 972 l 65 972 l 48 873 l 166 830 l 166 141 "},"Ќ":{"x_min":48.609375,"x_max":988.890625,"ha":1011,"o":"m 747 1208 l 634 1307 l 462 1090 l 502 1052 l 747 1208 m 356 827 l 473 873 l 459 972 l 63 972 l 48 875 l 165 827 l 165 144 l 48 98 l 62 0 l 459 0 l 473 100 l 356 144 l 356 827 m 668 0 l 973 0 l 988 98 l 868 143 l 640 479 l 545 523 l 791 773 b 970 873 823 806 886 850 l 955 972 l 620 972 l 604 873 l 691 827 l 415 545 l 415 472 l 680 75 l 668 0 "},"å":{"x_min":43.0625,"x_max":691.671875,"ha":706,"o":"m 343 1023 b 190 888 258 1023 190 979 b 343 756 190 800 250 756 b 495 888 436 756 495 798 b 343 1023 495 979 431 1023 m 343 966 b 394 890 373 966 394 931 b 343 813 394 850 375 813 b 291 890 311 813 291 850 b 343 966 291 930 312 966 m 94 605 b 327 663 175 645 258 663 b 613 402 506 663 613 570 l 613 115 l 691 84 l 675 0 l 498 0 l 456 32 b 277 -15 415 2 358 -15 b 43 177 152 -15 43 51 b 438 410 43 366 263 410 l 438 458 b 320 576 438 537 381 576 b 218 561 287 576 244 568 l 187 455 l 94 472 l 94 605 m 438 323 b 233 190 309 323 233 269 b 329 86 233 111 290 86 b 438 141 366 86 415 107 l 438 323 "},"0":{"x_min":91.671875,"x_max":779.171875,"ha":872,"o":"m 438 909 b 91 448 187 909 91 673 b 438 -13 91 223 173 -13 b 779 448 706 -13 779 231 b 438 909 779 665 690 909 m 438 806 b 586 454 550 806 586 630 b 438 88 586 277 544 88 b 286 454 333 88 286 279 b 438 806 286 629 329 806 "},"ō":{"x_min":55.5625,"x_max":748.609375,"ha":804,"o":"m 165 805 l 638 805 l 638 897 l 165 897 l 165 805 m 402 663 b 55 325 191 663 55 531 b 402 -13 55 118 179 -13 b 748 325 627 -13 748 112 b 402 663 748 537 612 663 m 402 576 b 572 329 505 576 572 484 b 402 73 572 175 508 73 b 234 329 294 73 234 176 b 402 576 234 481 300 576 "},"”":{"x_min":69.171875,"x_max":553.890625,"ha":651,"o":"m 220 1078 b 126 983 167 1078 126 1035 b 158 911 126 958 137 935 l 178 911 b 69 710 176 843 133 760 l 117 660 b 315 983 195 698 315 846 b 220 1078 315 1035 273 1078 m 459 1078 b 365 983 406 1078 365 1035 b 396 911 365 958 376 935 l 417 911 b 308 710 415 843 371 760 l 356 660 b 553 983 434 698 553 846 b 459 1078 553 1035 512 1078 "},"Ӕ":{"x_min":6.9375,"x_max":1352.78125,"ha":1401,"o":"m 1175 873 l 1229 709 l 1329 725 l 1329 972 l 502 972 l 127 143 l 6 98 l 22 0 l 358 0 l 372 100 l 254 141 l 329 309 l 701 309 l 701 141 l 587 98 l 601 0 l 1352 0 l 1352 293 l 1254 307 l 1180 98 l 893 98 l 893 446 l 1050 446 l 1093 333 l 1191 347 l 1191 654 l 1091 668 l 1050 555 l 893 555 l 893 873 l 1175 873 m 701 827 l 701 418 l 377 418 l 584 873 l 701 827 "},"ö":{"x_min":55.5625,"x_max":748.609375,"ha":804,"o":"m 531 968 b 441 877 483 968 441 927 b 531 787 441 829 483 787 b 622 877 580 787 622 829 b 531 968 622 927 580 968 m 270 968 b 180 877 222 968 180 927 b 270 787 180 829 222 787 b 361 877 320 787 361 829 b 270 968 361 927 320 968 m 402 663 b 55 325 191 663 55 531 b 402 -13 55 118 179 -13 b 748 325 627 -13 748 112 b 402 663 748 537 612 663 m 402 576 b 572 329 505 576 572 484 b 402 73 572 175 508 73 b 234 329 294 73 234 176 b 402 576 234 481 300 576 "},"ć":{"x_min":55.5625,"x_max":683.328125,"ha":714,"o":"m 595 998 l 461 1064 l 359 811 l 420 779 l 595 998 m 434 576 b 540 559 461 576 511 570 l 569 455 l 662 472 l 662 605 b 431 663 581 645 498 663 b 55 323 212 663 55 537 b 429 -15 55 119 179 -15 b 683 79 520 -15 615 16 l 636 150 b 436 86 575 108 497 86 b 245 350 294 86 245 204 b 434 576 245 491 322 576 "},"þ":{"x_min":2.78125,"x_max":747.21875,"ha":803,"o":"m 270 1005 l 188 1024 l 2 1007 l 19 924 l 95 924 l 95 -224 l 8 -252 l 23 -331 l 343 -331 l 358 -252 l 270 -224 l 270 536 b 409 564 318 554 369 564 b 556 353 488 564 556 521 b 361 74 556 186 451 74 l 330 74 l 330 0 l 369 0 b 747 337 568 0 747 132 b 420 662 747 551 630 662 b 270 636 376 662 312 651 l 270 1005 "},"]":{"x_min":55.5625,"x_max":377.78125,"ha":475,"o":"m 211 -230 l 55 -230 l 55 -336 l 377 -336 l 377 1066 l 55 1066 l 55 962 l 211 962 l 211 -230 "},"А":{"x_min":20.828125,"x_max":1045.828125,"ha":1057,"o":"m 461 972 l 141 143 l 20 98 l 36 0 l 383 0 l 397 100 l 266 143 l 333 309 l 658 309 l 720 143 l 611 98 l 626 0 l 1030 0 l 1045 98 l 923 143 l 612 995 l 461 972 m 618 418 l 375 418 l 530 812 l 530 654 l 618 418 "},"Ы":{"x_min":48.609375,"x_max":1270.828125,"ha":1319,"o":"m 1152 827 l 1270 875 l 1254 972 l 859 972 l 844 875 l 961 827 l 961 143 l 844 98 l 859 0 l 1255 0 l 1270 98 l 1152 144 l 1152 827 m 166 141 l 51 98 l 66 0 l 490 0 b 836 308 759 0 836 140 b 476 590 836 519 651 590 l 409 590 l 409 480 l 443 480 b 629 308 556 480 629 425 b 436 98 629 191 568 98 l 358 98 l 358 830 l 475 873 l 459 972 l 65 972 l 48 873 l 166 830 l 166 141 "},"ẁ":{"x_min":16.671875,"x_max":1131.953125,"ha":1154,"o":"m 581 779 l 643 811 l 541 1064 l 406 998 l 581 779 m 713 -14 l 863 0 l 1036 533 l 1131 563 l 1115 648 l 868 648 l 851 563 l 934 533 l 811 174 l 811 266 l 684 665 l 543 647 l 380 147 l 380 266 l 291 533 l 373 563 l 356 648 l 33 648 l 16 563 l 112 533 l 283 -14 l 440 0 l 594 468 l 594 356 l 713 -14 "},"ĭ":{"x_min":4.171875,"x_max":463.890625,"ha":464,"o":"m 319 115 l 319 648 l 234 663 l 65 648 l 80 563 l 144 563 l 144 115 l 55 86 l 72 0 l 391 0 l 408 86 l 319 115 m 233 913 b 54 993 162 913 97 940 l 4 958 b 233 793 33 877 115 793 b 463 958 352 793 434 877 l 412 993 b 233 913 369 940 305 913 "},"8":{"x_min":88.8125,"x_max":692.890625,"ha":781,"o":"m 520 223 b 390 88 520 137 459 88 b 262 223 321 88 262 140 b 359 400 262 308 307 362 b 520 223 423 362 520 306 m 415 558 b 285 694 356 590 285 637 b 390 806 285 780 342 806 b 497 698 443 806 497 777 b 415 558 497 638 457 587 m 659 708 b 390 909 659 812 563 909 b 113 690 221 909 113 808 b 261 461 113 600 179 518 b 88 223 184 412 88 340 b 390 -13 88 69 243 -13 b 692 230 539 -13 692 75 b 513 500 692 366 595 445 b 659 708 581 544 659 615 "},"Ӝ":{"x_min":21.375,"x_max":1396.625,"ha":1417,"o":"m 839 1216 b 749 1126 791 1216 749 1176 b 839 1036 749 1077 791 1036 b 929 1126 888 1036 929 1077 b 839 1216 929 1176 888 1216 m 578 1216 b 488 1126 529 1216 488 1176 b 578 1036 488 1077 529 1036 b 668 1126 628 1036 668 1077 b 578 1216 668 1176 628 1216 m 325 77 l 575 480 l 575 554 l 319 830 l 404 873 l 388 972 l 44 972 l 28 873 b 207 769 115 850 171 808 l 443 516 l 338 456 l 140 141 l 21 98 l 35 0 l 338 0 l 325 77 m 797 829 l 914 873 l 896 972 l 518 972 l 503 873 l 620 829 l 620 143 l 504 98 l 518 0 l 896 0 l 913 98 l 797 141 l 797 829 m 1079 0 l 1382 0 l 1396 98 l 1273 143 l 1079 456 l 974 516 l 1210 769 b 1389 873 1246 808 1295 847 l 1373 972 l 1029 972 l 1013 873 l 1098 830 l 842 554 l 842 480 l 1092 77 l 1079 0 "},"R":{"x_min":48.609375,"x_max":927.78125,"ha":958,"o":"m 358 873 l 494 873 b 679 693 618 873 679 794 b 505 522 679 612 612 522 l 416 522 l 416 434 l 622 76 l 608 0 l 912 0 l 927 98 l 806 141 l 668 387 l 576 434 b 865 693 711 434 865 541 b 544 972 865 865 752 972 l 65 972 l 48 873 l 165 827 l 165 141 l 51 98 l 66 0 l 458 0 l 473 98 l 358 143 l 358 873 "},"Ż":{"x_min":29.171875,"x_max":851.390625,"ha":885,"o":"m 470 1215 b 380 1125 423 1215 380 1175 b 470 1034 380 1076 423 1034 b 561 1125 520 1034 561 1076 b 470 1215 561 1175 520 1215 m 230 98 l 334 172 l 851 873 l 776 972 l 101 972 l 101 688 l 200 673 l 270 873 l 661 873 l 555 790 l 29 98 l 91 0 l 851 0 l 851 291 l 752 306 l 677 98 l 230 98 "},"Ң":{"x_min":55.5625,"x_max":1083.328125,"ha":1139,"o":"m 1083 873 l 1069 972 l 672 972 l 658 873 l 775 827 l 775 554 l 363 554 l 363 827 l 480 873 l 466 972 l 69 972 l 55 873 l 172 827 l 172 141 l 56 98 l 72 0 l 463 0 l 477 98 l 363 141 l 363 447 l 775 447 l 775 141 l 658 98 l 672 0 l 894 0 l 983 -242 l 1080 -228 l 1080 98 l 966 142 l 966 827 l 1083 873 "},"ħ":{"x_min":20.828125,"x_max":794.453125,"ha":836,"o":"m 288 115 l 288 534 b 436 562 326 550 388 562 b 531 462 487 562 531 534 l 531 115 l 443 84 l 459 0 l 777 0 l 794 84 l 706 115 l 706 443 b 445 663 706 594 602 663 b 288 627 401 663 327 645 l 288 776 l 505 776 l 505 848 l 288 848 l 288 1017 l 206 1038 l 20 1017 l 37 937 l 113 937 l 113 848 l 20 848 l 20 776 l 113 776 l 113 115 l 27 84 l 44 0 l 359 0 l 376 84 l 288 115 "},"õ":{"x_min":55.90625,"x_max":748.234375,"ha":804,"o":"m 510 782 l 639 941 l 598 971 l 477 912 l 338 968 l 291 968 l 162 808 l 207 779 l 322 851 l 461 782 l 510 782 m 402 663 b 55 325 191 663 55 531 b 402 -13 55 118 179 -13 b 748 325 627 -13 748 112 b 402 663 748 537 612 663 m 402 576 b 571 329 505 576 571 484 b 402 73 571 175 508 73 b 234 329 294 73 234 176 b 402 576 234 481 300 576 "},"℃":{"x_min":90.28125,"x_max":1345.828125,"ha":1368,"o":"m 275 997 b 90 812 173 997 90 913 b 275 631 90 716 168 631 b 455 812 373 631 455 713 b 275 997 455 919 370 997 m 275 902 b 362 812 322 902 362 863 b 275 725 362 763 322 725 b 184 812 225 725 184 763 b 275 902 184 863 223 902 m 1016 93 b 716 493 779 93 716 304 b 1016 879 716 755 823 879 b 1181 856 1062 879 1131 870 l 1245 675 l 1345 690 l 1345 906 b 1016 995 1241 966 1140 995 b 508 486 677 995 508 741 b 1016 -23 508 230 655 -23 b 1345 66 1130 -23 1268 11 l 1345 291 l 1247 305 l 1176 112 b 1016 93 1130 100 1056 93 "},"ғ":{"x_min":41.671875,"x_max":584.71875,"ha":613,"o":"m 305 563 l 459 563 l 490 455 l 584 472 l 584 648 l 58 648 l 41 563 l 131 533 l 131 380 l 41 380 l 41 309 l 131 309 l 131 115 l 44 84 l 61 0 l 376 0 l 393 84 l 305 115 l 305 309 l 461 309 l 461 380 l 305 380 l 305 563 "},"˙":{"x_min":37.5,"x_max":218.0625,"ha":251,"o":"m 127 968 b 37 877 80 968 37 927 b 127 787 37 829 80 787 b 218 877 177 787 218 829 b 127 968 218 927 177 968 "},"ê":{"x_min":55.78125,"x_max":714,"ha":763,"o":"m 458 1020 l 362 1020 l 203 784 l 244 755 l 411 891 l 575 755 l 619 784 l 458 1020 m 534 408 b 539 448 537 422 539 436 b 411 576 539 530 483 576 b 250 408 321 576 262 508 l 534 408 m 441 86 b 655 150 512 86 584 102 l 702 79 b 434 -15 614 6 526 -15 b 55 325 171 -15 55 119 b 411 663 55 537 212 663 b 714 438 577 663 714 575 b 683 322 714 401 700 351 l 246 322 b 441 86 248 183 322 86 "},"„":{"x_min":32.171875,"x_max":516.890625,"ha":586,"o":"m 183 167 b 89 72 130 167 89 124 b 121 0 89 47 100 24 l 141 0 b 32 -201 139 -67 96 -151 l 80 -251 b 278 72 158 -212 278 -64 b 183 167 278 124 236 167 m 422 167 b 328 72 369 167 328 124 b 359 0 328 47 339 24 l 380 0 b 271 -201 378 -67 334 -151 l 319 -251 b 516 72 397 -212 516 -64 b 422 167 516 124 475 167 "},"ч":{"x_min":6.9375,"x_max":756.953125,"ha":806,"o":"m 493 533 l 493 349 b 361 329 462 334 395 329 b 269 440 309 329 269 367 l 269 533 l 351 563 l 334 648 l 23 648 l 6 563 l 94 534 l 94 465 b 350 235 94 313 193 235 b 493 258 393 235 456 244 l 493 116 l 405 84 l 422 0 l 738 0 l 755 84 l 668 115 l 668 533 l 756 563 l 740 648 l 426 648 l 409 563 l 493 533 "},"․":{"x_min":50,"x_max":240.28125,"ha":292,"o":"m 144 166 b 50 72 93 166 50 123 b 144 -23 50 19 93 -23 b 240 72 197 -23 240 19 b 144 166 240 123 197 166 "},"Â":{"x_min":20.828125,"x_max":1045.828125,"ha":1057,"o":"m 590 1288 l 494 1288 l 334 1052 l 376 1023 l 543 1159 l 706 1023 l 751 1052 l 590 1288 m 612 995 l 923 143 l 1045 98 l 1030 0 l 626 0 l 611 98 l 720 143 l 658 309 l 333 309 l 266 143 l 397 100 l 383 0 l 36 0 l 20 98 l 141 143 l 461 972 l 612 995 m 530 654 l 530 812 l 375 418 l 618 418 l 530 654 "},"Į":{"x_min":84.28125,"x_max":512.046875,"ha":594,"o":"m 302 20 b 153 -140 245 -5 153 -48 b 295 -273 153 -220 212 -273 b 391 -256 306 -273 348 -272 l 367 -156 b 324 -163 353 -161 341 -163 b 267 -118 291 -163 267 -152 b 389 0 267 -77 314 -36 l 302 20 m 394 827 l 512 873 l 495 972 l 100 972 l 84 873 l 202 827 l 202 141 l 84 98 l 100 0 l 495 0 l 512 98 l 394 141 l 394 827 "},"ҫ":{"x_min":55.859375,"x_max":683.640625,"ha":714,"o":"m 435 576 b 540 559 461 576 511 570 l 569 455 l 662 472 l 662 605 b 432 663 582 645 498 663 b 55 323 212 663 55 537 b 385 -13 55 131 164 1 b 303 -140 341 -40 303 -80 b 444 -273 303 -220 361 -273 b 540 -256 455 -273 497 -272 l 516 -156 b 473 -163 503 -161 490 -163 b 416 -118 440 -163 416 -152 b 539 0 416 -77 464 -36 b 683 79 591 15 641 41 l 636 150 b 436 86 575 108 497 86 b 246 350 294 86 246 204 b 435 576 246 491 322 576 "},"Ţ":{"x_min":55.5625,"x_max":887.515625,"ha":943,"o":"m 55 688 l 154 673 l 227 873 l 375 873 l 375 141 l 258 98 l 272 0 l 418 0 l 418 -120 l 459 -120 b 500 -163 486 -120 500 -140 b 386 -229 500 -201 458 -229 l 413 -306 b 618 -156 497 -306 618 -269 b 504 -54 618 -83 550 -56 l 504 0 l 669 0 l 683 98 l 566 141 l 566 873 l 715 873 l 788 673 l 887 688 l 887 972 l 55 972 l 55 688 "},"´":{"x_min":63.890625,"x_max":348.609375,"ha":400,"o":"m 348 1208 l 236 1307 l 63 1090 l 104 1052 l 348 1208 "},"Ĉ":{"x_min":41.671875,"x_max":879.171875,"ha":901,"o":"m 595 1288 l 500 1288 l 340 1051 l 381 1022 l 548 1158 l 712 1022 l 756 1051 l 595 1288 m 550 92 b 709 111 590 92 663 99 l 780 304 l 879 290 l 879 65 b 550 -24 801 10 663 -24 b 41 485 188 -24 41 229 b 550 994 41 740 211 994 b 879 906 673 994 775 965 l 879 689 l 779 674 l 715 856 b 550 878 665 870 595 878 b 250 492 356 878 250 754 b 550 92 250 303 312 92 "},"И":{"x_min":55.59375,"x_max":1117.828125,"ha":1174,"o":"m 363 179 l 862 650 l 808 504 l 808 141 l 694 98 l 708 0 l 1101 0 l 1116 98 l 999 141 l 999 830 l 1117 873 l 1101 972 l 708 972 l 691 873 l 808 829 l 808 784 l 322 323 l 363 476 l 363 826 l 483 873 l 465 972 l 72 972 l 55 873 l 172 827 l 172 141 l 58 98 l 72 0 l 463 0 l 480 98 l 363 143 l 363 179 "},"Љ":{"x_min":13.890625,"x_max":1281.953125,"ha":1338,"o":"m 409 640 l 409 873 l 625 873 l 625 141 l 509 98 l 523 0 l 936 0 b 1281 315 1202 0 1281 147 b 922 602 1281 526 1094 602 l 866 602 l 866 495 l 888 495 b 1073 315 1001 495 1073 433 b 879 98 1073 198 1013 98 l 816 98 l 816 830 l 933 873 l 916 972 l 186 972 l 170 873 l 287 830 l 287 688 b 13 97 287 470 245 201 l 29 0 l 261 0 b 409 640 363 158 409 441 "},"р":{"x_min":2.78125,"x_max":741.671875,"ha":797,"o":"m 327 0 l 356 0 b 741 343 572 0 741 137 b 425 663 741 556 622 663 b 248 620 363 663 291 640 l 188 663 l 2 648 l 19 564 l 95 564 l 95 -216 l 8 -247 l 25 -331 l 341 -331 l 358 -247 l 269 -216 l 269 536 b 413 564 316 554 368 564 b 551 352 491 564 551 514 b 354 84 551 186 444 84 l 327 84 l 327 0 "},"Ȇ":{"x_min":48.484375,"x_max":802.65625,"ha":851,"o":"m 356 873 l 356 555 l 499 555 l 541 668 l 641 654 l 641 347 l 542 333 l 499 446 l 356 446 l 356 99 l 630 99 l 704 307 l 802 293 l 802 0 l 65 0 l 51 99 l 165 142 l 165 827 l 48 873 l 63 972 l 779 972 l 779 725 l 679 710 l 624 873 l 356 873 m 502 1289 l 406 1289 l 247 1053 l 288 1024 l 455 1160 l 619 1024 l 663 1053 l 502 1289 "},"т":{"x_min":13.890625,"x_max":651.390625,"ha":672,"o":"m 526 563 l 556 455 l 651 472 l 651 648 l 13 648 l 13 472 l 108 455 l 140 563 l 244 563 l 244 115 l 156 84 l 173 0 l 490 0 l 506 84 l 420 115 l 420 563 l 526 563 "},"П":{"x_min":55.5625,"x_max":1069.453125,"ha":1125,"o":"m 761 143 l 645 98 l 661 0 l 1052 0 l 1066 98 l 952 143 l 952 827 l 1069 873 l 1052 972 l 70 972 l 55 873 l 172 827 l 172 143 l 56 98 l 72 0 l 463 0 l 477 98 l 363 143 l 363 873 l 761 873 l 761 143 "},"Ö":{"x_min":83.328125,"x_max":1040.28125,"ha":1124,"o":"m 691 1216 b 601 1126 643 1216 601 1176 b 691 1036 601 1077 643 1036 b 781 1126 740 1036 781 1077 b 691 1216 781 1176 740 1216 m 430 1216 b 340 1126 381 1216 340 1176 b 430 1036 340 1077 381 1036 b 520 1126 480 1036 520 1077 b 430 1216 520 1176 480 1216 m 562 995 b 83 486 252 995 83 741 b 562 -23 83 230 230 -23 b 1040 486 894 -23 1040 200 b 562 995 1040 772 872 995 m 562 879 b 834 493 740 879 834 748 b 562 93 834 237 744 93 b 291 493 381 93 291 230 b 562 879 291 755 384 879 "},"z":{"x_min":34.71875,"x_max":637.5,"ha":672,"o":"m 75 648 l 75 472 l 168 455 l 201 563 l 486 563 l 387 512 l 34 84 l 76 0 l 616 0 l 616 206 l 523 225 l 480 84 l 169 84 l 272 131 l 637 563 l 569 648 l 75 648 "},"™":{"x_min":69,"x_max":1111.34375,"ha":1182,"o":"m 69 834 l 117 826 l 153 923 l 225 923 l 225 568 l 169 547 l 175 499 l 368 499 l 375 547 l 318 568 l 318 923 l 390 923 l 426 826 l 473 834 l 473 972 l 69 972 l 69 834 m 934 827 l 961 568 l 907 547 l 912 499 l 1104 499 l 1111 547 l 1055 568 l 1022 901 l 1079 923 l 1071 972 l 932 972 l 798 608 l 798 676 l 689 972 l 553 972 l 544 923 l 601 901 l 562 568 l 504 547 l 512 499 l 662 499 l 669 547 l 615 568 l 644 811 l 764 488 l 814 499 l 934 827 "},"Ř":{"x_min":48.3125,"x_max":927.484375,"ha":958,"o":"m 655 1259 l 610 1289 l 446 1152 l 280 1289 l 238 1259 l 398 1023 l 494 1023 l 655 1259 m 358 873 l 494 873 b 678 693 617 873 678 794 b 505 522 678 612 612 522 l 416 522 l 416 434 l 621 76 l 608 0 l 912 0 l 927 98 l 806 141 l 667 387 l 576 434 b 864 693 710 434 864 541 b 544 972 864 865 752 972 l 64 972 l 48 873 l 164 827 l 164 141 l 51 98 l 66 0 l 458 0 l 473 98 l 358 143 l 358 873 "},"Ň":{"x_min":33.328125,"x_max":998.609375,"ha":1036,"o":"m 733 1259 l 688 1289 l 525 1152 l 358 1289 l 316 1259 l 476 1023 l 572 1023 l 733 1259 m 34 98 l 50 0 l 356 0 l 372 98 l 256 141 l 256 738 l 768 -24 l 883 0 l 883 827 l 998 873 l 984 972 l 675 972 l 661 873 l 776 827 l 776 251 l 726 395 l 336 972 l 47 972 l 33 873 l 150 827 l 150 142 l 34 98 "},"É":{"x_min":48.609375,"x_max":802.78125,"ha":851,"o":"m 662 1208 l 550 1307 l 377 1090 l 418 1052 l 662 1208 m 625 873 l 679 709 l 779 725 l 779 972 l 63 972 l 48 873 l 165 827 l 165 141 l 51 98 l 65 0 l 802 0 l 802 293 l 704 306 l 630 98 l 356 98 l 356 445 l 500 445 l 543 333 l 641 347 l 641 654 l 541 668 l 500 555 l 356 555 l 356 873 l 625 873 "},"ұ":{"x_min":27.84375,"x_max":847.28125,"ha":868,"o":"m 751 530 l 847 563 l 833 648 l 577 648 l 562 563 l 641 533 l 461 106 l 461 236 l 312 533 l 388 563 l 375 648 l 43 648 l 27 563 l 127 533 l 341 72 l 154 72 l 154 0 l 363 0 l 363 -216 l 276 -247 l 291 -331 l 620 -331 l 634 -247 l 547 -216 l 547 0 l 757 0 l 757 72 l 561 72 l 751 530 "},"и":{"x_min":49.03125,"x_max":863.96875,"ha":913,"o":"m 312 134 l 633 413 l 600 312 l 600 115 l 509 84 l 526 0 l 844 0 l 861 84 l 773 115 l 773 533 l 863 563 l 847 648 l 526 648 l 509 563 l 600 533 l 600 509 l 279 230 l 312 331 l 312 533 l 404 563 l 387 648 l 65 648 l 49 563 l 139 533 l 139 115 l 51 84 l 68 0 l 383 0 l 400 84 l 312 115 l 312 134 "},"³":{"x_min":34.375,"x_max":385.984375,"ha":428,"o":"m 369 940 l 348 984 l 51 984 l 51 848 l 105 837 l 124 896 l 199 896 l 269 922 l 102 733 l 131 694 l 170 703 b 278 611 238 703 278 672 b 187 498 278 548 234 498 b 67 550 145 498 102 523 l 34 498 b 191 437 78 458 134 437 b 385 614 302 437 385 507 b 223 775 385 719 298 772 l 369 940 "},"Ӫ":{"x_min":83.328125,"x_max":1040.28125,"ha":1124,"o":"m 562 995 b 83 486 252 995 83 741 b 562 -23 83 230 230 -23 b 1040 486 894 -23 1040 200 b 562 995 1040 772 872 995 m 833 451 b 562 93 823 222 733 93 b 291 451 391 93 301 215 l 833 451 m 291 523 b 562 879 298 765 391 879 b 833 523 733 879 826 758 l 291 523 m 691 1216 b 601 1126 643 1216 601 1176 b 691 1036 601 1077 643 1036 b 781 1126 740 1036 781 1077 b 691 1216 781 1176 740 1216 m 430 1216 b 340 1126 381 1216 340 1176 b 430 1036 340 1077 381 1036 b 520 1126 480 1036 520 1077 b 430 1216 520 1176 480 1216 "},"[":{"x_min":97.21875,"x_max":419.4375,"ha":475,"o":"m 263 962 l 419 962 l 419 1066 l 97 1066 l 97 -336 l 419 -336 l 419 -230 l 263 -230 l 263 962 "},"Ҝ":{"x_min":49.03125,"x_max":1040.703125,"ha":1061,"o":"m 505 413 l 732 75 l 719 0 l 1025 0 l 1040 98 l 919 141 l 692 479 l 597 523 l 843 773 b 1022 873 875 806 944 856 l 1007 972 l 672 972 l 655 873 l 746 830 l 505 584 l 505 779 l 424 779 l 424 236 l 505 236 l 505 413 m 357 830 l 474 873 l 460 972 l 64 972 l 49 873 l 165 829 l 165 143 l 49 98 l 62 0 l 460 0 l 474 100 l 357 143 l 357 830 "},"":{"x_min":91.671875,"x_max":779.171875,"ha":872,"o":"m 438 909 b 91 448 187 909 91 673 b 438 -13 91 223 173 -13 b 779 448 706 -13 779 231 b 438 909 779 665 690 909 m 298 304 b 286 454 290 352 286 402 b 438 806 286 629 329 806 b 544 726 486 806 520 777 l 298 304 m 572 619 b 586 454 581 566 586 512 b 438 88 586 277 544 88 b 326 193 387 88 351 129 l 572 619 "},"Ȑ":{"x_min":48.28125,"x_max":927.453125,"ha":958,"o":"m 309 1052 l 349 1090 l 177 1307 l 64 1208 l 309 1052 m 544 1052 l 584 1090 l 412 1307 l 299 1208 l 544 1052 m 358 873 l 494 873 b 678 693 617 873 678 794 b 505 522 678 612 612 522 l 416 522 l 416 434 l 621 76 l 608 0 l 912 0 l 927 98 l 806 141 l 667 387 l 576 434 b 864 693 710 434 864 541 b 544 972 864 865 752 972 l 64 972 l 48 873 l 164 827 l 164 141 l 51 98 l 66 0 l 458 0 l 473 98 l 358 143 l 358 873 "},"ğ":{"x_min":31.921875,"x_max":656.046875,"ha":669,"o":"m 335 913 b 155 993 264 913 198 940 l 105 958 b 335 793 134 877 217 793 b 567 958 455 793 537 877 l 515 993 b 335 913 472 940 407 913 m 269 149 b 229 183 246 156 230 167 l 233 194 b 331 183 262 185 297 183 b 637 422 506 183 637 262 b 617 525 637 459 631 494 l 554 563 l 635 563 l 656 665 l 463 648 b 341 663 427 658 381 663 b 56 422 172 663 56 551 b 141 240 56 341 83 281 l 74 128 b 185 10 74 58 136 27 l 327 -35 b 449 -147 384 -53 449 -94 b 301 -248 449 -207 380 -248 b 168 -171 221 -248 168 -214 b 229 -80 168 -144 186 -104 l 179 -19 b 31 -178 105 -44 31 -104 b 301 -347 31 -300 165 -347 b 631 -111 472 -347 631 -276 b 392 106 631 5 532 58 l 269 149 m 341 576 b 469 429 402 576 469 545 b 341 270 469 319 412 270 b 222 426 272 270 222 323 b 341 576 222 527 274 576 "},"ª":{"x_min":23.609375,"x_max":418.0625,"ha":424,"o":"m 54 735 l 111 725 l 129 789 b 191 799 145 793 172 799 b 263 727 229 799 263 775 l 263 697 b 23 556 158 697 23 671 b 166 438 23 479 90 438 b 275 467 215 438 250 449 l 300 447 l 408 447 l 418 500 l 370 518 l 370 693 b 197 852 370 795 305 852 b 54 817 154 852 104 841 l 54 735 m 263 534 b 197 500 250 513 220 500 b 138 563 173 500 138 516 b 263 645 138 611 186 645 l 263 534 "},"ї":{"x_min":11.109375,"x_max":452.796875,"ha":464,"o":"m 362 968 b 272 877 313 968 272 927 b 362 787 272 829 313 787 b 452 877 411 787 452 829 b 362 968 452 927 411 968 m 101 968 b 11 877 52 968 11 927 b 101 787 11 829 52 787 b 191 877 151 787 191 829 b 101 968 191 927 151 968 m 319 115 l 319 648 l 234 663 l 65 648 l 80 563 l 144 563 l 144 115 l 55 86 l 72 0 l 391 0 l 408 86 l 319 115 "},"ﬀ":{"x_min":27.78125,"x_max":1187.5,"ha":1139,"o":"m 997 1037 b 706 763 820 1037 706 922 l 706 648 l 316 648 l 316 790 b 437 950 316 916 376 950 b 498 937 455 950 484 944 l 529 822 l 622 840 l 622 970 b 431 1037 559 1018 505 1037 b 141 763 255 1037 141 922 l 141 673 l 27 640 l 41 563 l 141 563 l 141 115 l 52 84 l 69 0 l 430 0 l 447 84 l 316 115 l 316 563 l 706 563 l 706 115 l 618 84 l 634 0 l 995 0 l 1012 84 l 881 115 l 881 563 l 1027 563 l 1043 648 l 881 648 l 881 790 b 1002 950 881 916 941 950 b 1063 937 1020 950 1050 944 l 1094 822 l 1187 840 l 1187 970 b 997 1037 1125 1018 1070 1037 "},"T":{"x_min":55.5625,"x_max":887.5,"ha":943,"o":"m 55 688 l 154 673 l 227 873 l 375 873 l 375 141 l 258 98 l 272 0 l 669 0 l 683 98 l 566 141 l 566 873 l 715 873 l 788 673 l 887 688 l 887 972 l 55 972 l 55 688 "},"š":{"x_min":55.28125,"x_max":572.890625,"ha":628,"o":"m 513 991 l 468 1021 l 304 884 l 137 1021 l 95 991 l 255 755 l 351 755 l 513 991 m 296 -13 b 572 187 464 -13 572 65 b 398 384 572 294 494 338 b 218 504 329 418 218 450 b 319 576 218 545 264 576 b 424 562 353 576 390 570 l 453 455 l 547 472 l 547 605 b 333 663 488 641 410 663 b 58 483 166 663 58 601 b 275 261 58 362 183 304 b 412 148 337 231 412 193 b 284 73 412 97 353 73 b 195 87 266 73 218 79 l 148 225 l 55 206 l 55 43 b 296 -13 134 4 234 -13 "},"є":{"x_min":22.21875,"x_max":650,"ha":688,"o":"m 409 -13 b 650 79 501 -13 581 16 l 598 156 b 418 86 534 116 479 86 b 213 286 294 86 225 170 l 463 286 l 463 376 l 212 376 b 413 575 218 504 308 575 b 505 559 441 575 476 570 l 534 455 l 629 472 l 629 606 b 411 662 548 645 479 662 b 22 323 191 662 22 537 b 409 -13 22 119 158 -13 "},"Þ":{"x_min":47.21875,"x_max":793.0625,"ha":849,"o":"m 350 827 l 468 873 l 451 972 l 62 972 l 47 873 l 165 827 l 165 141 l 47 98 l 62 0 l 451 0 l 468 98 l 350 141 l 350 200 l 430 200 b 793 486 625 200 793 259 b 466 781 793 673 673 781 l 350 781 l 350 827 m 430 673 b 604 490 554 673 604 604 b 429 306 604 394 536 306 l 350 306 l 350 673 l 430 673 "},"j":{"x_min":-62.5,"x_max":315.28125,"ha":418,"o":"m 45 648 l 63 563 l 140 563 l 140 133 b -62 -267 140 -15 123 -145 l -15 -347 b 315 111 262 -255 315 -77 l 315 648 l 233 663 l 45 648 m 216 968 b 126 877 168 968 126 927 b 216 787 126 829 168 787 b 306 877 266 787 306 829 b 216 968 306 927 266 968 "},"1":{"x_min":62.5,"x_max":550,"ha":590,"o":"m 86 0 l 531 0 l 550 95 l 402 123 l 402 894 l 308 894 l 62 838 l 80 741 l 222 741 l 222 123 l 69 97 l 86 0 "},"":{"x_min":76.390625,"x_max":1088.890625,"ha":1165,"o":"m 76 488 b 576 -13 76 211 298 -13 b 1088 488 856 -13 1088 211 b 580 995 1088 769 861 995 b 76 488 302 995 76 769 m 202 488 b 580 881 202 716 358 881 b 962 488 806 881 962 716 b 576 100 962 266 802 100 b 202 488 354 100 202 266 m 704 215 l 693 155 l 466 155 l 454 215 l 518 237 l 518 555 l 472 555 l 461 615 l 581 626 l 641 615 l 641 237 l 704 215 m 572 841 b 636 777 606 841 636 812 b 572 713 636 743 606 713 b 508 777 537 713 508 743 b 572 841 508 812 537 841 "},"Ү":{"x_min":6.875,"x_max":944.609375,"ha":951,"o":"m 404 141 l 287 98 l 302 0 l 694 0 l 711 98 l 596 141 l 596 447 l 819 827 l 944 873 l 929 972 l 608 972 l 594 873 l 696 827 l 495 495 l 495 583 l 348 827 l 452 872 l 437 972 l 22 972 l 6 873 l 129 827 l 404 356 l 404 141 "},"ĉ":{"x_min":55.8125,"x_max":683.59375,"ha":714,"o":"m 440 1020 l 344 1020 l 184 784 l 226 755 l 393 891 l 557 755 l 601 784 l 440 1020 m 434 576 b 246 350 322 576 246 491 b 436 86 246 204 294 86 b 636 150 497 86 575 108 l 683 79 b 429 -15 615 16 521 -15 b 55 323 179 -15 55 119 b 432 663 55 537 212 663 b 662 605 498 663 582 645 l 662 472 l 569 455 l 540 559 b 434 576 511 570 461 576 "},"ī":{"x_min":-4.171875,"x_max":469.4375,"ha":464,"o":"m -4 805 l 469 805 l 469 897 l -4 897 l -4 805 m 408 86 l 391 0 l 72 0 l 55 86 l 144 115 l 144 563 l 80 563 l 65 648 l 234 663 l 319 648 l 319 115 l 408 86 "},"ӹ":{"x_min":48.953125,"x_max":1035.078125,"ha":1083,"o":"m 414 400 l 373 400 l 373 313 l 383 313 b 486 204 446 313 486 269 b 383 84 486 137 446 84 l 314 84 l 314 533 l 404 563 l 387 648 l 65 648 l 48 563 l 139 533 l 139 115 l 51 84 l 68 0 l 473 0 b 675 194 580 0 675 91 b 414 400 675 356 517 400 m 772 115 l 685 84 l 701 0 l 1018 0 l 1035 84 l 947 113 l 947 533 l 1035 563 l 1018 648 l 701 648 l 685 563 l 772 533 l 772 115 m 683 968 b 593 877 635 968 593 927 b 683 787 593 829 635 787 b 773 877 732 787 773 829 b 683 968 773 927 732 968 m 422 968 b 332 877 373 968 332 927 b 422 787 332 829 373 787 b 512 877 472 787 512 829 b 422 968 512 927 472 968 "},"О":{"x_min":83.328125,"x_max":1040.28125,"ha":1124,"o":"m 562 995 b 83 486 252 995 83 741 b 562 -23 83 230 230 -23 b 1040 486 894 -23 1040 200 b 562 995 1040 772 872 995 m 562 879 b 834 493 740 879 834 748 b 562 93 834 237 744 93 b 291 493 381 93 291 230 b 562 879 291 755 384 879 "},"Ď":{"x_min":48.4375,"x_max":979,"ha":1021,"o":"m 473 873 b 772 495 677 873 772 704 b 473 98 772 286 677 98 l 356 98 l 356 873 l 473 873 m 469 0 b 979 493 816 0 979 223 b 473 972 979 762 819 972 l 62 972 l 48 873 l 165 827 l 165 141 l 49 98 l 63 0 l 469 0 m 638 1259 l 594 1289 l 430 1152 l 263 1289 l 222 1259 l 381 1023 l 477 1023 l 638 1259 "},"&":{"x_min":70.046875,"x_max":877,"ha":919,"o":"m 425 111 b 249 275 333 111 249 184 b 413 438 249 365 322 438 l 478 438 l 478 543 l 436 543 b 302 679 375 543 302 618 b 427 795 302 755 365 795 b 536 769 470 795 510 786 l 575 650 l 670 668 l 670 820 b 408 909 585 879 502 909 b 127 684 240 909 127 811 b 233 498 127 606 177 534 b 70 251 138 462 70 359 b 418 -15 70 93 182 -15 b 740 331 676 -15 740 177 b 877 530 804 354 860 401 l 795 552 b 428 236 707 390 454 512 b 501 218 468 225 496 219 b 621 302 521 277 570 293 b 425 111 620 202 550 111 "},"G":{"x_min":48.609375,"x_max":1016.671875,"ha":1051,"o":"m 255 493 b 569 879 255 693 350 879 b 734 855 615 879 684 869 l 800 673 l 898 688 l 898 905 b 569 995 795 965 691 995 b 48 486 259 995 48 769 b 569 -23 48 230 209 -23 b 898 66 683 -23 822 11 l 898 337 l 1016 384 l 1000 483 l 605 483 l 590 384 l 705 338 l 705 109 b 568 93 665 98 605 93 b 255 493 329 93 255 304 "},"`":{"x_min":58.328125,"x_max":343.0625,"ha":400,"o":"m 302 1053 l 343 1090 l 170 1307 l 58 1208 l 302 1053 "},"ŏ":{"x_min":55.890625,"x_max":748.265625,"ha":804,"o":"m 401 913 b 222 993 330 913 265 940 l 172 958 b 401 793 201 877 283 793 b 631 958 520 793 602 877 l 580 993 b 401 913 537 940 473 913 m 402 663 b 55 325 191 663 55 531 b 402 -13 55 118 179 -13 b 748 325 627 -13 748 112 b 402 663 748 537 612 663 m 402 576 b 571 329 505 576 571 484 b 402 73 571 175 508 73 b 234 329 294 73 234 176 b 402 576 234 481 300 576 "},"ý":{"x_min":25,"x_max":823.609375,"ha":844,"o":"m 608 998 l 473 1064 l 372 811 l 433 779 l 608 998 m 727 533 l 823 564 l 806 648 l 536 648 l 519 564 l 613 533 l 466 111 l 466 226 l 309 533 l 416 564 l 400 648 l 41 648 l 25 564 l 126 533 l 377 0 l 420 -15 l 393 -87 b 156 -248 344 -212 230 -237 l 172 -331 l 359 -347 b 490 -144 411 -311 469 -204 l 727 533 "},"º":{"x_min":34.71875,"x_max":456.9375,"ha":492,"o":"m 245 850 b 34 643 118 850 34 769 b 245 437 34 518 109 437 b 456 643 383 437 456 513 b 245 850 456 773 373 850 m 245 797 b 348 645 308 797 348 740 b 245 490 348 552 309 490 b 144 645 180 490 144 552 b 245 797 144 738 183 797 "},"ȑ":{"x_min":48.5,"x_max":616.5625,"ha":631,"o":"m 444 779 l 505 811 l 404 1064 l 269 998 l 444 779 m 240 779 l 301 811 l 199 1064 l 65 998 l 240 779 m 616 472 l 616 633 b 473 663 563 654 516 663 b 294 627 409 663 337 643 l 237 664 l 56 648 l 73 564 l 136 564 l 136 115 l 48 84 l 65 0 l 409 0 l 426 84 l 311 115 l 311 536 b 436 564 351 551 408 564 b 491 558 455 564 481 561 l 523 455 l 616 472 "},"ź":{"x_min":34.71875,"x_max":637.5,"ha":672,"o":"m 519 998 l 384 1064 l 283 811 l 344 779 l 519 998 m 75 648 l 75 472 l 168 455 l 201 564 l 486 564 l 387 512 l 34 84 l 76 0 l 616 0 l 616 207 l 523 225 l 480 84 l 169 84 l 272 132 l 637 564 l 569 648 l 75 648 "},"я":{"x_min":20.671875,"x_max":733.171875,"ha":782,"o":"m 431 334 l 394 334 b 279 447 327 334 279 393 b 387 563 279 512 310 563 l 476 563 l 476 115 l 398 84 l 415 0 l 713 0 l 730 84 l 651 115 l 651 533 l 733 563 l 716 648 l 310 648 b 92 448 167 648 92 565 b 263 270 92 343 176 293 l 199 234 l 120 115 l 20 84 l 38 0 l 302 0 l 290 63 l 431 270 l 431 334 "},"ӛ":{"x_min":55.5625,"x_max":681.953125,"ha":738,"o":"m 488 281 b 348 84 486 179 434 84 b 225 211 276 84 225 131 b 238 281 225 234 231 263 l 488 281 m 97 368 b 55 222 77 333 55 259 b 348 -15 55 63 181 -15 b 681 322 547 -15 681 109 b 326 663 681 536 547 663 b 81 606 259 663 162 647 l 81 472 l 175 455 l 204 560 b 322 575 236 573 293 575 b 491 368 431 575 491 493 l 97 368 m 465 968 b 375 877 416 968 375 927 b 465 787 375 829 416 787 b 555 877 513 787 555 829 b 465 968 555 927 513 968 m 204 968 b 113 877 155 968 113 927 b 204 787 113 829 155 787 b 294 877 254 787 294 829 b 204 968 294 927 254 968 "},"Ё":{"x_min":48.609375,"x_max":802.78125,"ha":851,"o":"m 577 1216 b 487 1126 529 1216 487 1176 b 577 1036 487 1077 529 1036 b 668 1126 626 1036 668 1077 b 577 1216 668 1176 626 1216 m 316 1216 b 226 1126 268 1216 226 1176 b 316 1036 226 1077 268 1036 b 406 1126 366 1036 406 1077 b 316 1216 406 1176 366 1216 m 625 873 l 679 709 l 779 725 l 779 972 l 63 972 l 48 873 l 165 827 l 165 141 l 51 98 l 65 0 l 802 0 l 802 293 l 704 306 l 630 98 l 356 98 l 356 445 l 500 445 l 543 333 l 641 347 l 641 654 l 541 668 l 500 555 l 356 555 l 356 873 l 625 873 "},"ń":{"x_min":49.0625,"x_max":818.5,"ha":867,"o":"m 585 998 l 450 1064 l 349 811 l 410 779 l 585 998 m 432 564 b 556 450 493 564 556 522 l 556 115 l 468 84 l 485 0 l 801 0 l 818 84 l 731 115 l 731 429 b 467 663 731 580 628 663 b 293 627 408 663 339 643 l 236 664 l 58 648 l 74 564 l 136 564 l 136 115 l 49 84 l 64 0 l 385 0 l 400 84 l 311 115 l 311 536 b 432 564 347 548 396 564 "},"Г":{"x_min":48.609375,"x_max":754.171875,"ha":789,"o":"m 345 873 l 580 873 l 655 675 l 754 690 l 754 972 l 65 972 l 48 873 l 165 827 l 165 141 l 51 98 l 65 0 l 487 0 l 501 98 l 345 141 l 345 873 "},"Ь":{"x_min":48.609375,"x_max":823.609375,"ha":879,"o":"m 166 141 l 51 98 l 66 0 l 477 0 b 823 315 744 0 823 147 b 463 602 823 526 636 602 l 409 602 l 409 495 l 430 495 b 615 315 543 495 615 433 b 420 98 615 198 555 98 l 358 98 l 358 830 l 475 873 l 458 972 l 65 972 l 48 873 l 166 830 l 166 141 "},"℉":{"x_min":90.28125,"x_max":1230.5625,"ha":1265,"o":"m 825 873 l 1076 873 l 1131 710 l 1230 725 l 1230 972 l 530 972 l 516 873 l 633 828 l 633 143 l 518 99 l 533 0 l 969 0 l 983 99 l 825 142 l 825 446 l 979 446 l 1023 333 l 1120 349 l 1120 653 l 1023 668 l 979 555 l 825 555 l 825 873 m 275 995 b 90 811 173 995 90 912 b 275 630 90 715 168 630 b 455 811 373 630 455 712 b 275 995 455 918 370 995 m 275 901 b 362 811 322 901 362 862 b 275 724 362 762 322 724 b 184 811 225 724 184 762 b 275 901 184 862 223 901 "},"ѝ":{"x_min":49.03125,"x_max":864.3125,"ha":913,"o":"m 312 115 l 400 86 l 385 0 l 65 0 l 51 86 l 139 115 l 139 533 l 49 564 l 62 648 l 389 648 l 404 564 l 312 533 l 312 332 l 279 230 l 600 509 l 600 533 l 510 564 l 524 648 l 850 648 l 864 564 l 774 533 l 774 115 l 861 86 l 847 0 l 525 0 l 510 86 l 600 115 l 600 312 l 633 414 l 312 134 l 312 115 m 425 779 l 486 811 l 385 1064 l 250 998 l 425 779 "},"¤":{"x_min":110.96875,"x_max":668.640625,"ha":779,"o":"m 585 306 b 615 422 606 340 615 378 b 585 537 615 462 606 503 l 668 621 l 588 699 l 506 618 b 389 648 469 638 432 648 b 273 616 348 648 307 636 l 190 701 l 112 618 b 194 536 133 596 169 561 b 165 422 176 501 165 464 b 192 306 165 379 176 339 l 110 222 l 192 144 l 276 228 b 389 198 312 205 347 198 b 503 226 432 198 469 208 l 588 143 l 667 224 l 585 306 m 277 422 b 389 536 277 485 326 536 b 503 422 453 536 503 485 b 389 311 503 360 453 311 b 277 422 326 311 277 360 "},"Ĝ":{"x_min":48.609375,"x_max":1016.671875,"ha":1051,"o":"m 619 1288 l 523 1288 l 363 1051 l 405 1022 l 572 1158 l 736 1022 l 780 1051 l 619 1288 m 255 492 b 568 92 255 303 329 92 b 705 108 605 92 665 97 l 705 338 l 590 383 l 605 482 l 1000 482 l 1016 383 l 898 336 l 898 65 b 569 -24 822 10 683 -24 b 48 485 209 -24 48 229 b 569 994 48 768 259 994 b 898 904 691 994 795 964 l 898 688 l 800 672 l 734 854 b 569 878 684 868 615 878 b 255 492 350 878 255 692 "},"p":{"x_min":2.78125,"x_max":741.671875,"ha":797,"o":"m 327 0 l 356 0 b 741 343 572 0 741 137 b 425 663 741 556 622 663 b 248 620 363 663 291 640 l 188 663 l 2 648 l 19 564 l 95 564 l 95 -216 l 8 -247 l 25 -331 l 341 -331 l 358 -247 l 269 -216 l 269 536 b 413 564 316 554 368 564 b 551 352 491 564 551 514 b 354 84 551 186 444 84 l 327 84 l 327 0 "},"ӓ":{"x_min":43.0625,"x_max":691.671875,"ha":706,"o":"m 465 968 b 375 877 416 968 375 927 b 465 787 375 829 416 787 b 555 877 513 787 555 829 b 465 968 555 927 513 968 m 204 968 b 113 877 155 968 113 927 b 204 787 113 829 155 787 b 294 877 254 787 294 829 b 204 968 294 927 254 968 m 94 472 l 187 455 l 218 561 b 320 576 244 568 287 576 b 438 458 381 576 438 537 l 438 409 b 43 177 263 409 43 366 b 277 -15 43 51 152 -15 b 456 32 358 -15 415 2 l 498 0 l 675 0 l 691 84 l 613 115 l 613 402 b 327 663 613 570 506 663 b 94 605 258 663 175 645 l 94 472 m 438 141 b 329 86 415 107 366 86 b 233 190 290 86 233 111 b 438 323 233 269 309 323 l 438 141 "},"Ю":{"x_min":55.5625,"x_max":1404.171875,"ha":1460,"o":"m 961 995 b 519 550 676 995 540 783 l 363 550 l 363 830 l 481 873 l 466 972 l 72 972 l 55 873 l 172 830 l 172 141 l 55 98 l 70 0 l 466 0 l 481 98 l 363 141 l 363 444 l 518 444 b 961 -23 529 202 645 -23 b 1404 486 1293 -23 1404 200 b 961 995 1404 773 1272 995 m 961 879 b 1197 494 1138 879 1197 748 b 961 93 1197 237 1141 93 b 725 494 780 93 725 230 b 961 879 725 755 783 879 "},"S":{"x_min":69.4375,"x_max":747.21875,"ha":808,"o":"m 69 731 b 312 422 69 537 205 475 b 573 211 408 375 573 320 b 370 93 573 136 483 93 b 243 123 334 93 275 108 l 172 305 l 73 291 l 73 66 b 380 -23 151 11 266 -23 b 747 254 629 -23 747 93 b 462 573 747 420 608 512 b 244 755 409 600 244 654 b 408 879 244 833 306 879 b 540 861 450 879 502 872 l 605 675 l 705 690 l 705 906 b 408 995 619 958 516 995 b 69 731 230 995 69 908 "},"/":{"x_min":-16.671875,"x_max":734.71875,"ha":722,"o":"m 734 1066 l 708 1079 l 608 1079 l -16 -165 l 13 -180 l 109 -180 l 734 1066 "},"Ӭ":{"x_min":55.3125,"x_max":905.3125,"ha":961,"o":"m 398 93 b 223 113 359 93 269 102 l 153 305 l 55 291 l 55 68 b 398 -23 131 12 284 -23 b 905 486 758 -23 905 230 b 398 995 905 741 735 995 b 55 905 274 995 159 965 l 55 690 l 153 675 l 220 858 b 398 879 267 872 356 879 b 695 555 571 879 676 766 l 516 555 l 470 668 l 373 652 l 373 350 l 470 333 l 516 447 l 696 447 b 398 93 685 272 616 93 m 520 1216 b 430 1126 471 1216 430 1176 b 520 1036 430 1077 471 1036 b 610 1126 569 1036 610 1077 b 520 1216 610 1176 569 1216 m 259 1216 b 169 1126 210 1216 169 1176 b 259 1036 169 1077 210 1036 b 349 1126 309 1036 349 1077 b 259 1216 349 1176 309 1216 "},"Ŧ":{"x_min":55.5625,"x_max":887.5,"ha":943,"o":"m 55 688 l 154 673 l 227 873 l 375 873 l 375 513 l 163 513 l 163 443 l 375 443 l 375 141 l 258 98 l 272 0 l 669 0 l 683 98 l 566 141 l 566 443 l 794 443 l 794 513 l 566 513 l 566 873 l 715 873 l 788 673 l 887 688 l 887 972 l 55 972 l 55 688 "},"":{"x_min":51.3125,"x_max":636.03125,"ha":690,"o":"m 551 751 l 505 838 b 51 296 269 767 51 572 b 344 -13 51 97 163 -13 b 636 268 526 -13 636 114 b 399 522 636 435 530 522 b 259 479 361 522 309 510 b 551 751 316 613 433 696 m 274 402 b 370 424 317 421 347 424 b 467 270 422 424 467 363 b 342 85 467 183 423 85 b 224 297 263 85 224 192 b 249 452 224 356 234 407 l 274 402 "},"ђ":{"x_min":22.21875,"x_max":750,"ha":806,"o":"m 518 797 l 518 856 l 291 856 l 291 1019 l 209 1038 l 22 1021 l 40 937 l 116 937 l 116 856 l 22 856 l 22 797 l 116 797 l 116 115 l 29 85 l 43 0 l 363 0 l 379 85 l 291 115 l 291 536 b 423 562 323 550 369 562 b 565 319 502 562 565 517 b 334 -269 565 65 509 -152 l 380 -347 b 750 305 643 -267 750 79 b 434 662 750 525 644 662 b 291 637 386 662 333 655 l 291 797 l 518 797 "},"y":{"x_min":25,"x_max":823.609375,"ha":844,"o":"m 727 533 l 823 563 l 806 648 l 536 648 l 519 563 l 613 533 l 466 111 l 466 226 l 309 533 l 416 563 l 400 648 l 41 648 l 25 563 l 126 533 l 377 0 l 420 -15 l 393 -87 b 156 -248 344 -212 230 -237 l 172 -331 l 359 -347 b 490 -144 411 -311 469 -204 l 727 533 "},"–":{"x_min":41.671875,"x_max":736.109375,"ha":778,"o":"m 41 305 l 720 305 l 736 427 l 58 427 l 41 305 "},"ë":{"x_min":56.640625,"x_max":714,"ha":763,"o":"m 544 968 b 454 877 496 968 454 927 b 544 787 454 829 496 787 b 634 877 593 787 634 829 b 544 968 634 927 593 968 m 284 968 b 194 877 235 968 194 927 b 284 787 194 829 235 787 b 374 877 334 787 374 829 b 284 968 374 927 334 968 m 251 408 b 411 576 263 508 321 576 b 539 448 483 576 539 530 b 535 408 539 436 537 422 l 251 408 m 442 86 b 246 322 323 86 249 183 l 683 322 b 714 438 700 351 714 401 b 411 663 714 575 578 663 b 56 325 213 663 56 537 b 435 -15 56 119 171 -15 b 702 79 526 -15 614 6 l 655 150 b 442 86 585 102 513 86 "},"б":{"x_min":48.671875,"x_max":712.078125,"ha":761,"o":"m 380 576 b 521 329 471 576 521 486 b 380 72 521 186 478 72 b 225 329 277 72 225 189 b 380 576 225 486 287 576 m 380 663 b 200 605 322 663 247 640 l 207 665 b 380 780 230 719 294 759 b 653 1041 581 827 637 861 l 559 1041 b 442 966 541 987 496 976 b 48 362 118 908 48 694 b 380 -15 48 158 154 -15 b 712 325 589 -15 712 125 b 380 663 712 523 589 663 "},"ƒ":{"x_min":-33.328125,"x_max":619.4375,"ha":647,"o":"m 340 466 l 495 466 l 513 564 l 340 564 l 340 615 b 445 782 340 743 388 782 b 500 771 462 782 486 776 l 530 661 l 619 679 l 619 823 b 440 884 570 864 512 884 b 170 637 266 884 170 766 l 170 564 l 54 564 l 72 466 l 170 466 l 170 155 b -33 -259 170 14 151 -135 l 18 -347 b 340 133 288 -256 340 -55 l 340 466 "},"ȃ":{"x_min":42.875,"x_max":691.484375,"ha":706,"o":"m 383 1020 l 287 1020 l 127 784 l 169 755 l 335 891 l 499 755 l 544 784 l 383 1020 m 94 605 b 327 663 174 645 258 663 b 613 402 506 663 613 570 l 613 115 l 691 84 l 674 0 l 498 0 l 456 32 b 277 -15 415 2 358 -15 b 42 177 152 -15 42 51 b 438 410 42 366 263 410 l 438 458 b 320 576 438 537 381 576 b 217 561 287 576 244 568 l 187 455 l 94 472 l 94 605 m 438 323 b 233 190 309 323 233 269 b 328 86 233 111 290 86 b 438 141 366 86 415 107 l 438 323 "},"у":{"x_min":25,"x_max":823.609375,"ha":844,"o":"m 727 533 l 823 563 l 806 648 l 536 648 l 519 563 l 613 533 l 466 111 l 466 226 l 309 533 l 416 563 l 400 648 l 41 648 l 25 563 l 126 533 l 377 0 l 420 -15 l 393 -87 b 156 -248 344 -212 230 -237 l 172 -331 l 359 -347 b 490 -144 411 -311 469 -204 l 727 533 "},"J":{"x_min":-6.9375,"x_max":508.328125,"ha":550,"o":"m 200 273 b -6 -154 200 127 180 -27 l 45 -243 b 390 240 322 -154 390 47 l 390 827 l 508 873 l 493 972 l 98 972 l 81 873 l 200 827 l 200 273 "},"ŷ":{"x_min":25,"x_max":823.609375,"ha":844,"o":"m 495 1020 l 400 1020 l 240 784 l 281 755 l 448 891 l 612 755 l 656 784 l 495 1020 m 727 533 l 823 563 l 806 648 l 536 648 l 519 563 l 613 533 l 466 111 l 466 226 l 309 533 l 416 563 l 400 648 l 41 648 l 25 563 l 126 533 l 377 0 l 420 -15 l 393 -87 b 156 -248 344 -212 230 -237 l 172 -331 l 359 -347 b 490 -144 411 -311 469 -204 l 727 533 "},"ŕ":{"x_min":48.5,"x_max":616.546875,"ha":631,"o":"m 495 998 l 361 1064 l 259 811 l 320 779 l 495 998 m 616 472 l 616 633 b 473 663 563 654 516 663 b 294 627 409 663 337 643 l 237 664 l 56 648 l 73 564 l 136 564 l 136 115 l 48 84 l 65 0 l 409 0 l 426 84 l 311 115 l 311 536 b 436 564 351 551 408 564 b 491 558 455 564 481 561 l 523 455 l 616 472 "},"˘":{"x_min":29.171875,"x_max":488.890625,"ha":533,"o":"m 258 1169 b 79 1249 187 1169 122 1196 l 29 1214 b 258 1049 58 1133 140 1049 b 488 1214 377 1049 459 1133 l 437 1249 b 258 1169 394 1196 330 1169 "},"↑":{"x_min":36.109375,"x_max":593.0625,"ha":615,"o":"m 36 572 l 101 525 l 312 772 l 527 523 l 593 573 l 338 1000 l 273 986 l 36 572 m 365 619 l 251 619 l 251 0 l 365 0 l 365 619 "},"D":{"x_min":48.609375,"x_max":979.171875,"ha":1021,"o":"m 473 873 b 772 495 677 873 772 704 b 473 98 772 286 677 98 l 356 98 l 356 873 l 473 873 m 469 0 b 979 493 816 0 979 223 b 473 972 979 762 819 972 l 62 972 l 48 873 l 165 827 l 165 141 l 50 98 l 63 0 l 469 0 "},"ĺ":{"x_min":55.5625,"x_max":422.21875,"ha":478,"o":"m 415 1208 l 302 1307 l 130 1090 l 170 1052 l 415 1208 m 326 115 l 326 1016 l 244 1037 l 63 1016 l 79 937 l 151 937 l 151 115 l 55 84 l 72 0 l 405 0 l 422 84 l 326 115 "},"ł":{"x_min":35.03125,"x_max":443.375,"ha":478,"o":"m 326 115 l 326 504 l 443 549 l 443 649 l 326 604 l 326 1017 l 244 1038 l 64 1017 l 79 938 l 151 938 l 151 538 l 35 494 l 35 394 l 151 438 l 151 115 l 55 85 l 72 0 l 405 0 l 422 85 l 326 115 "},"ӳ":{"x_min":25,"x_max":823.609375,"ha":844,"o":"m 509 998 l 375 1064 l 273 811 l 334 779 l 509 998 m 713 998 l 579 1064 l 477 811 l 538 779 l 713 998 m 727 533 l 823 564 l 806 648 l 536 648 l 519 564 l 613 533 l 466 111 l 466 226 l 309 533 l 416 564 l 400 648 l 41 648 l 25 564 l 126 533 l 377 0 l 420 -15 l 393 -87 b 156 -248 344 -212 230 -237 l 172 -331 l 359 -347 b 490 -144 411 -311 469 -204 l 727 533 "},"ц":{"x_min":48.609375,"x_max":820.828125,"ha":872,"o":"m 733 84 l 733 532 l 820 563 l 804 648 l 484 648 l 468 563 l 558 532 l 558 84 l 313 84 l 313 532 l 401 563 l 384 648 l 68 648 l 51 563 l 138 532 l 138 114 l 48 84 l 65 0 l 673 0 l 726 -181 l 820 -164 l 820 84 l 733 84 "},"Л":{"x_min":13.890625,"x_max":919.453125,"ha":975,"o":"m 409 640 l 409 873 l 611 873 l 611 141 l 495 98 l 509 0 l 902 0 l 918 98 l 802 141 l 802 827 l 919 873 l 902 972 l 186 972 l 170 873 l 287 827 l 287 688 b 13 97 287 470 245 201 l 29 0 l 261 0 b 409 640 363 158 409 441 "},"$":{"x_min":120.921875,"x_max":733.359375,"ha":807,"o":"m 361 -12 b 406 -15 376 -13 391 -15 b 733 244 626 -15 733 85 b 461 518 733 382 609 442 l 511 779 b 548 769 525 776 537 772 l 605 618 l 695 633 l 695 826 b 531 893 648 854 591 879 l 551 996 l 477 996 l 459 904 b 431 906 450 906 441 906 b 130 649 273 906 130 819 b 361 383 130 515 245 436 l 309 112 b 272 121 295 115 283 118 l 211 280 l 120 264 l 120 65 b 287 0 147 44 213 16 l 263 -128 l 338 -128 l 361 -12 m 383 104 l 430 353 b 565 203 493 321 565 268 b 400 104 565 132 495 104 l 383 104 m 437 787 l 393 555 b 300 676 337 589 300 629 b 431 787 300 739 345 787 l 437 787 "},"w":{"x_min":16.671875,"x_max":1131.953125,"ha":1154,"o":"m 713 -14 l 863 0 l 1036 533 l 1131 563 l 1115 648 l 868 648 l 851 563 l 934 533 l 811 174 l 811 266 l 684 665 l 543 646 l 380 147 l 380 266 l 291 533 l 373 563 l 356 648 l 33 648 l 16 563 l 112 533 l 283 -14 l 440 0 l 594 467 l 594 356 l 713 -14 "},"о":{"x_min":55.5625,"x_max":748.609375,"ha":804,"o":"m 402 663 b 55 325 191 663 55 531 b 402 -13 55 118 179 -13 b 748 325 627 -13 748 112 b 402 663 748 537 612 663 m 402 576 b 572 329 505 576 572 484 b 402 73 572 175 508 73 b 234 329 294 73 234 176 b 402 576 234 481 300 576 "},"Д":{"x_min":19.4375,"x_max":934.71875,"ha":997,"o":"m 818 98 l 818 827 l 934 874 l 916 972 l 180 972 l 163 873 l 281 827 b 111 98 279 535 230 219 l 19 98 l 19 -228 l 118 -242 l 208 0 l 730 0 l 819 -242 l 918 -228 l 918 98 l 818 98 m 625 98 l 261 98 b 402 873 359 266 401 565 l 625 873 l 625 98 "},"Ç":{"x_min":41.671875,"x_max":879.171875,"ha":901,"o":"m 550 93 b 250 493 312 93 250 304 b 550 879 250 755 356 879 b 715 856 595 879 665 870 l 779 675 l 879 690 l 879 906 b 550 995 775 966 673 995 b 41 486 211 995 41 741 b 497 -20 41 243 173 1 l 497 -120 l 538 -120 b 579 -163 565 -120 579 -140 b 465 -229 579 -201 537 -229 l 493 -306 b 697 -156 576 -306 697 -269 b 583 -54 697 -83 629 -56 l 583 -22 b 879 66 688 -16 808 16 l 879 291 l 780 305 l 709 112 b 550 93 663 100 590 93 "},"Ŝ":{"x_min":69,"x_max":746.78125,"ha":808,"o":"m 450 1288 l 355 1288 l 195 1051 l 237 1022 l 403 1158 l 567 1022 l 612 1051 l 450 1288 m 69 731 b 407 994 69 907 230 994 b 705 906 516 994 619 957 l 705 689 l 605 674 l 539 860 b 407 878 502 871 449 878 b 244 754 306 878 244 832 b 462 572 244 653 409 599 b 746 253 607 511 746 419 b 380 -24 746 92 628 -24 b 73 65 266 -24 150 10 l 73 290 l 171 304 l 242 122 b 370 92 274 107 334 92 b 573 210 482 92 573 135 b 312 421 573 319 407 374 b 69 731 205 474 69 536 "},"Ӛ":{"x_min":83.328125,"x_max":966.671875,"ha":1050,"o":"m 752 426 b 522 93 750 259 680 93 b 286 318 372 93 286 194 b 309 426 286 355 295 394 l 752 426 m 966 486 b 472 995 966 741 811 995 b 130 906 348 995 234 966 l 130 690 l 229 675 l 294 859 b 472 879 345 870 426 879 b 756 551 631 879 748 754 l 147 551 b 83 333 118 498 83 416 b 522 -23 83 98 258 -23 b 966 486 816 -23 966 165 m 600 1216 b 509 1126 551 1216 509 1176 b 600 1036 509 1077 551 1036 b 690 1126 648 1036 690 1077 b 600 1216 690 1176 648 1216 m 338 1216 b 248 1126 290 1216 248 1176 b 338 1036 248 1077 290 1036 b 429 1126 388 1036 429 1077 b 338 1216 429 1176 388 1216 "},"ӣ":{"x_min":49.03125,"x_max":864.3125,"ha":913,"o":"m 219 805 l 693 805 l 693 897 l 219 897 l 219 805 m 312 115 l 400 84 l 383 0 l 68 0 l 51 84 l 139 115 l 139 533 l 49 563 l 65 648 l 387 648 l 404 563 l 312 533 l 312 331 l 279 230 l 600 509 l 600 533 l 510 563 l 526 648 l 847 648 l 864 563 l 774 533 l 774 115 l 861 84 l 844 0 l 526 0 l 510 84 l 600 115 l 600 312 l 633 413 l 312 134 l 312 115 "},"C":{"x_min":41.671875,"x_max":879.171875,"ha":901,"o":"m 550 93 b 250 493 312 93 250 304 b 550 879 250 755 356 879 b 715 856 595 879 665 870 l 779 675 l 879 690 l 879 906 b 550 995 775 966 673 995 b 41 486 211 995 41 741 b 550 -23 41 230 188 -23 b 879 66 663 -23 801 11 l 879 291 l 780 305 l 709 112 b 550 93 663 100 590 93 "},"Ĵ":{"x_min":-6.9375,"x_max":508.328125,"ha":550,"o":"m 333 1288 l 237 1288 l 77 1052 l 119 1023 l 286 1159 l 450 1023 l 494 1052 l 333 1288 m 200 827 l 81 873 l 98 972 l 493 972 l 508 873 l 390 827 l 390 240 b 45 -243 390 47 322 -154 l -6 -154 b 200 273 180 -27 200 127 l 200 827 "},"":{"x_min":6.9375,"x_max":651.390625,"ha":692,"o":"m 347 73 l 347 -181 l 518 -143 l 518 73 l 623 73 l 651 185 l 518 185 l 518 641 l 437 664 l 6 140 l 54 73 l 347 73 m 347 185 l 168 185 l 386 452 l 347 291 l 347 185 "},"È":{"x_min":48.609375,"x_max":802.78125,"ha":851,"o":"m 497 1052 l 537 1090 l 365 1307 l 252 1208 l 497 1052 m 356 873 l 356 555 l 500 555 l 541 668 l 641 654 l 641 347 l 543 333 l 500 445 l 356 445 l 356 98 l 630 98 l 704 306 l 802 293 l 802 0 l 65 0 l 51 98 l 165 141 l 165 827 l 48 873 l 63 972 l 779 972 l 779 725 l 679 709 l 625 873 l 356 873 "},"ﬁ":{"x_min":27.78125,"x_max":929.171875,"ha":985,"o":"m 656 877 b 747 787 656 829 698 787 b 837 877 797 787 837 829 b 515 1037 837 1000 650 1037 b 141 694 238 1037 141 852 l 141 673 l 27 640 l 41 563 l 141 563 l 141 115 l 52 84 l 69 0 l 416 0 l 433 84 l 316 115 l 316 563 l 665 563 l 665 115 l 576 84 l 593 0 l 912 0 l 929 84 l 840 115 l 840 648 l 316 648 l 316 720 b 508 950 316 847 395 950 b 658 895 569 950 622 937 l 656 877 "},"X":{"x_min":13.890625,"x_max":954.171875,"ha":968,"o":"m 476 386 l 476 316 l 601 141 l 501 98 l 516 0 l 936 0 l 951 98 l 830 141 l 577 516 l 829 827 l 954 873 l 940 972 l 611 972 l 597 873 l 690 827 l 491 587 l 491 650 l 363 827 l 465 873 l 451 972 l 29 972 l 13 873 l 134 827 l 388 451 l 134 141 l 15 98 l 30 0 l 355 0 l 370 98 l 275 141 l 476 386 "},"ô":{"x_min":55.875,"x_max":748.9375,"ha":804,"o":"m 448 1020 l 353 1020 l 193 784 l 235 755 l 401 891 l 565 755 l 610 784 l 448 1020 m 403 663 b 55 325 191 663 55 531 b 403 -13 55 118 179 -13 b 748 325 628 -13 748 112 b 403 663 748 537 612 663 m 403 576 b 572 329 505 576 572 484 b 403 73 572 175 508 73 b 235 329 294 73 235 176 b 403 576 235 481 300 576 "},"ȅ":{"x_min":55.671875,"x_max":714,"ha":763,"o":"m 493 779 l 554 811 l 452 1064 l 318 998 l 493 779 m 289 779 l 350 811 l 248 1064 l 114 998 l 289 779 m 534 408 b 539 448 537 422 539 436 b 411 576 539 530 483 576 b 250 408 320 576 262 508 l 534 408 m 441 86 b 655 150 512 86 584 102 l 702 79 b 434 -15 614 6 526 -15 b 55 325 170 -15 55 119 b 411 663 55 537 212 663 b 714 438 577 663 714 575 b 683 322 714 401 700 351 l 245 322 b 441 86 248 183 322 86 "},"ҝ":{"x_min":6.9375,"x_max":815.28125,"ha":829,"o":"m 313 141 l 386 141 l 386 284 l 541 70 l 527 0 l 798 0 l 815 84 l 713 114 l 566 323 l 483 341 l 648 498 b 794 563 676 525 711 550 l 777 648 l 494 648 l 477 563 l 547 532 l 386 377 l 386 556 l 313 556 l 313 141 m 270 114 l 270 648 l 188 669 l 6 648 l 23 563 l 95 563 l 95 114 l 6 84 l 23 0 l 341 0 l 358 84 l 270 114 "},"Ė":{"x_min":48.609375,"x_max":802.78125,"ha":851,"o":"m 440 1215 b 350 1125 393 1215 350 1175 b 440 1034 350 1076 393 1034 b 530 1125 490 1034 530 1076 b 440 1215 530 1175 490 1215 m 625 873 l 679 709 l 779 725 l 779 972 l 63 972 l 48 873 l 165 827 l 165 141 l 51 98 l 65 0 l 802 0 l 802 293 l 704 306 l 630 98 l 356 98 l 356 445 l 500 445 l 543 333 l 641 347 l 641 654 l 541 668 l 500 555 l 356 555 l 356 873 l 625 873 "},"г":{"x_min":41.671875,"x_max":584.71875,"ha":613,"o":"m 305 563 l 459 563 l 490 455 l 584 472 l 584 648 l 58 648 l 41 563 l 131 533 l 131 115 l 44 84 l 61 0 l 376 0 l 393 84 l 305 115 l 305 563 "},"Ŀ":{"x_min":47.28125,"x_max":798.671875,"ha":814,"o":"m 597 648 b 687 558 647 648 687 608 b 597 468 687 509 647 468 b 507 558 550 468 507 509 b 597 648 507 608 550 648 m 61 972 l 47 873 l 163 827 l 163 143 l 47 98 l 61 0 l 798 0 l 798 293 l 700 306 l 623 98 l 355 98 l 355 827 l 473 873 l 458 972 l 61 972 "},"х":{"x_min":13.890625,"x_max":754.171875,"ha":768,"o":"m 754 563 l 737 648 l 463 648 l 447 563 l 523 533 l 395 375 l 395 434 l 327 533 l 398 563 l 381 648 l 36 648 l 19 563 l 118 533 l 273 305 l 119 115 l 13 84 l 30 0 l 294 0 l 311 84 l 244 115 l 366 262 l 366 211 l 434 115 l 363 84 l 380 0 l 729 0 l 745 84 l 641 115 l 487 331 l 650 533 l 754 563 "},"ŋ":{"x_min":48.609375,"x_max":730.5625,"ha":833,"o":"m 555 450 l 555 115 b 352 -267 555 -24 530 -149 l 400 -347 b 730 111 677 -255 730 -77 l 730 429 b 466 663 730 580 627 663 b 293 627 408 663 338 643 l 236 664 l 58 648 l 73 564 l 136 564 l 136 115 l 48 84 l 63 0 l 384 0 l 400 84 l 311 115 l 311 536 b 431 564 347 548 395 564 b 555 450 493 564 555 522 "},"Ч":{"x_min":27.78125,"x_max":948.609375,"ha":1004,"o":"m 337 830 l 454 873 l 437 972 l 45 972 l 27 873 l 144 830 l 144 608 b 459 368 144 451 304 368 b 640 395 506 368 588 377 l 640 141 l 483 98 l 497 0 l 931 0 l 947 98 l 831 141 l 831 830 l 948 873 l 933 973 l 537 973 l 522 873 l 640 830 l 640 518 b 472 481 602 498 523 481 b 337 595 413 481 337 516 l 337 830 "},"ü":{"x_min":42.03125,"x_max":797.59375,"ha":818,"o":"m 532 968 b 442 877 483 968 442 927 b 532 787 442 829 483 787 b 622 877 580 787 622 829 b 532 968 622 927 580 968 m 271 968 b 180 877 222 968 180 927 b 271 787 180 829 222 787 b 361 877 321 787 361 829 b 271 968 361 927 321 968 m 533 138 b 415 86 505 105 453 86 b 289 226 358 86 289 122 l 289 644 l 208 663 l 42 645 l 57 563 l 114 563 l 114 238 b 367 -15 114 87 207 -15 b 550 32 435 -15 497 -5 l 592 0 l 780 0 l 797 84 l 708 115 l 708 643 l 639 663 l 460 645 l 475 563 l 533 563 l 533 138 "},"":{"x_min":27.78125,"x_max":1405.5625,"ha":1510,"o":"m 706 649 l 316 649 l 316 790 b 437 950 316 917 376 950 b 498 938 455 950 484 944 l 529 822 l 622 840 l 622 971 b 431 1038 559 1018 505 1038 b 141 764 255 1038 141 922 l 141 674 l 27 640 l 41 564 l 141 564 l 141 115 l 52 85 l 69 0 l 430 0 l 447 85 l 316 115 l 316 564 l 706 564 l 706 115 l 618 85 l 634 0 l 981 0 l 998 85 l 881 115 l 881 564 l 1230 564 l 1230 133 b 1027 -267 1230 -14 1213 -145 l 1075 -347 b 1405 111 1352 -255 1405 -77 l 1405 649 l 881 649 l 881 721 b 1073 950 881 847 961 950 b 1213 901 1127 950 1175 942 l 1212 883 b 1306 787 1212 831 1255 787 b 1402 883 1359 787 1402 831 b 1080 1038 1402 1006 1215 1038 b 706 694 804 1038 706 853 l 706 649 "},"ь":{"x_min":48.984375,"x_max":692.046875,"ha":740,"o":"m 314 533 l 404 563 l 387 648 l 64 648 l 48 563 l 139 533 l 139 115 l 51 84 l 68 0 l 492 0 b 692 194 598 0 692 91 b 432 400 692 356 533 400 l 373 400 l 373 313 l 403 313 b 504 204 462 313 504 269 b 403 84 504 137 462 84 l 314 84 l 314 533 "},"Җ":{"x_min":20.828125,"x_max":1395.828125,"ha":1417,"o":"m 1079 0 l 1208 0 l 1297 -242 l 1395 -228 l 1395 98 l 1272 142 l 1079 456 l 973 516 l 1209 769 b 1388 873 1245 808 1294 847 l 1372 972 l 1029 972 l 1012 873 l 1097 830 l 841 554 l 841 480 l 1091 77 l 1079 0 m 797 829 l 913 873 l 895 972 l 518 972 l 502 873 l 619 829 l 619 142 l 504 98 l 518 0 l 895 0 l 912 98 l 797 141 l 797 829 m 325 77 l 575 480 l 575 554 l 319 830 l 404 873 l 387 972 l 44 972 l 27 873 b 206 769 115 849 170 808 l 443 516 l 337 456 l 140 141 l 20 98 l 34 0 l 337 0 l 325 77 "},"Ÿ":{"x_min":6.9375,"x_max":944.6875,"ha":951,"o":"m 404 141 l 287 98 l 302 0 l 694 0 l 711 98 l 596 141 l 596 447 l 819 827 l 944 873 l 929 972 l 608 972 l 594 873 l 696 827 l 495 495 l 495 583 l 348 827 l 452 872 l 437 972 l 22 972 l 6 873 l 129 827 l 404 356 l 404 141 m 619 1216 b 529 1126 570 1216 529 1176 b 619 1036 529 1077 570 1036 b 709 1126 668 1036 709 1077 b 619 1216 709 1176 668 1216 m 358 1216 b 268 1126 309 1216 268 1176 b 358 1036 268 1077 309 1036 b 448 1126 408 1036 448 1077 b 358 1216 448 1176 408 1216 "},"€":{"x_min":23.609375,"x_max":862.5,"ha":879,"o":"m 43 565 l 23 494 l 140 494 b 138 448 138 479 138 463 b 141 377 138 425 140 400 l 41 377 l 23 306 l 152 306 b 568 -13 193 126 319 -13 b 862 73 687 -13 776 20 l 862 270 l 766 284 l 701 133 b 568 101 668 112 606 101 b 356 306 447 101 383 191 l 619 306 l 636 377 l 344 377 b 341 450 341 401 341 425 b 343 494 341 463 341 479 l 619 494 l 636 565 l 355 565 b 568 791 386 681 450 791 b 701 758 619 791 665 777 l 766 605 l 862 620 l 862 819 b 568 905 776 872 688 905 b 148 565 311 905 183 754 l 43 565 "},"в":{"x_min":42.09375,"x_max":712.921875,"ha":768,"o":"m 365 312 l 411 312 b 524 195 474 312 524 261 b 411 84 524 131 474 84 l 307 84 l 307 563 l 382 563 b 464 484 428 563 464 531 b 382 400 464 436 428 400 l 365 400 l 365 312 m 518 0 b 712 186 625 0 712 83 b 586 363 712 268 661 336 b 653 491 625 393 653 443 b 489 648 653 577 580 648 l 58 648 l 42 563 l 132 533 l 132 115 l 43 84 l 60 0 l 518 0 "},"С":{"x_min":41.671875,"x_max":879.171875,"ha":901,"o":"m 550 93 b 250 493 312 93 250 304 b 550 879 250 755 356 879 b 715 856 595 879 665 870 l 779 675 l 879 690 l 879 906 b 550 995 775 966 673 995 b 41 486 211 995 41 741 b 550 -23 41 230 188 -23 b 879 66 663 -23 801 11 l 879 291 l 780 305 l 709 112 b 550 93 663 100 590 93 "},"ß":{"x_min":27.78125,"x_max":855.5625,"ha":911,"o":"m 431 1037 b 126 731 213 1037 126 887 l 126 704 l 27 670 l 43 581 l 126 581 l 126 116 l 41 88 l 58 0 l 298 0 l 298 744 b 431 926 298 850 320 926 b 559 831 512 926 559 881 b 386 548 559 698 386 719 b 701 179 386 352 701 322 b 604 93 701 131 668 93 b 538 105 586 93 561 98 l 494 233 l 405 216 l 405 41 b 613 -13 483 4 554 -13 b 855 202 780 -13 855 80 b 538 570 855 398 538 441 b 730 826 538 677 730 654 b 431 1037 730 908 654 1037 "},"њ":{"x_min":48.828125,"x_max":1146.046875,"ha":1188,"o":"m 593 380 l 312 380 l 312 533 l 404 563 l 387 648 l 65 648 l 48 563 l 137 533 l 137 115 l 51 84 l 68 0 l 383 0 l 400 84 l 312 115 l 312 301 l 593 301 l 593 115 l 504 84 l 521 0 l 946 0 b 1146 194 1052 0 1146 91 b 886 400 1146 356 987 400 l 827 400 l 827 313 l 857 313 b 958 204 916 313 958 269 b 857 84 958 137 916 84 l 768 84 l 768 533 l 857 563 l 840 648 l 519 648 l 502 563 l 593 533 l 593 380 "},"Ӓ":{"x_min":21.09375,"x_max":1046.1875,"ha":1057,"o":"m 665 1216 b 575 1126 616 1216 575 1176 b 665 1036 575 1077 616 1036 b 755 1126 714 1036 755 1077 b 665 1216 755 1176 714 1216 m 404 1216 b 314 1126 355 1216 314 1176 b 404 1036 314 1077 355 1036 b 494 1126 454 1036 494 1077 b 404 1216 494 1176 454 1216 m 461 972 l 141 143 l 21 98 l 36 0 l 383 0 l 397 100 l 266 143 l 333 309 l 658 309 l 721 143 l 611 98 l 626 0 l 1030 0 l 1046 98 l 923 143 l 612 995 l 461 972 m 618 418 l 375 418 l 530 812 l 530 654 l 618 418 "},"Ű":{"x_min":42.484375,"x_max":1021.640625,"ha":1042,"o":"m 902 1208 l 789 1307 l 617 1090 l 657 1052 l 902 1208 m 667 1208 l 554 1307 l 382 1090 l 423 1052 l 667 1208 m 543 -23 b 904 415 723 -23 904 55 l 904 827 l 1021 873 l 1007 972 l 696 972 l 679 873 l 799 827 l 799 404 b 566 93 799 197 713 93 b 350 406 420 93 350 184 l 350 827 l 467 873 l 453 972 l 56 972 l 42 873 l 159 827 l 159 415 b 543 -23 159 52 352 -23 "},"c":{"x_min":55.5625,"x_max":683.328125,"ha":714,"o":"m 434 576 b 540 559 461 576 511 570 l 569 455 l 662 472 l 662 605 b 431 663 581 645 498 663 b 55 323 212 663 55 537 b 429 -15 55 119 179 -15 b 683 79 520 -15 615 16 l 636 150 b 436 86 575 108 497 86 b 245 350 294 86 245 204 b 434 576 245 491 322 576 "},"¶":{"x_min":55.71875,"x_max":744.609375,"ha":786,"o":"m 375 816 l 451 816 l 451 273 b 248 -155 451 133 433 -33 l 300 -242 b 629 267 554 -164 629 64 l 629 780 l 744 823 l 727 913 l 348 913 b 55 633 190 913 55 802 b 375 363 55 434 190 363 l 375 816 "},"Ȋ":{"x_min":83.328125,"x_max":511.109375,"ha":594,"o":"m 344 1288 l 248 1288 l 88 1052 l 130 1023 l 297 1159 l 461 1023 l 505 1052 l 344 1288 m 393 141 l 511 98 l 494 0 l 100 0 l 83 98 l 201 141 l 201 827 l 83 873 l 100 972 l 494 972 l 511 873 l 393 827 l 393 141 "},"­":{"x_min":58.328125,"x_max":481.9375,"ha":540,"o":"m 58 380 l 466 380 l 481 508 l 75 508 l 58 380 "},":":{"x_min":69.4375,"x_max":259.71875,"ha":329,"o":"m 163 166 b 69 72 112 166 69 123 b 163 -23 69 19 112 -23 b 259 72 216 -23 259 19 b 163 166 259 123 216 166 m 163 663 b 69 569 112 663 69 620 b 163 473 69 516 112 473 b 259 569 216 473 259 516 b 163 663 259 620 216 663 "},"Ѝ":{"x_min":55.59375,"x_max":1118.09375,"ha":1174,"o":"m 363 143 l 480 98 l 463 0 l 72 0 l 58 98 l 172 141 l 172 830 l 55 873 l 72 972 l 465 972 l 483 873 l 363 829 l 363 476 l 322 323 l 808 784 l 808 830 l 691 873 l 708 972 l 1101 972 l 1118 873 l 1000 830 l 1000 141 l 1116 98 l 1101 0 l 708 0 l 694 98 l 808 141 l 808 504 l 862 650 l 363 179 l 363 143 m 615 1052 l 655 1090 l 483 1307 l 370 1208 l 615 1052 "},"ś":{"x_min":56.171875,"x_max":572.84375,"ha":628,"o":"m 479 998 l 345 1064 l 243 811 l 304 779 l 479 998 m 296 -13 b 572 187 464 -13 572 65 b 399 384 572 294 495 338 b 218 504 329 418 218 450 b 320 576 218 545 264 576 b 424 562 353 576 390 570 l 453 455 l 547 472 l 547 605 b 333 663 488 641 410 663 b 58 483 167 663 58 601 b 275 261 58 362 183 304 b 413 148 338 231 413 193 b 285 73 413 97 353 73 b 196 87 267 73 218 79 l 149 225 l 56 206 l 56 43 b 296 -13 135 4 235 -13 "},"У":{"x_min":6.9375,"x_max":894.453125,"ha":797,"o":"m 769 830 l 894 873 l 876 972 l 565 972 l 548 873 l 654 831 l 473 387 l 473 544 l 338 831 l 445 873 l 430 972 l 25 972 l 6 873 l 127 830 l 388 255 l 419 248 l 413 231 b 162 108 379 148 237 108 l 177 2 l 381 -24 b 495 144 440 13 470 81 l 769 830 "},"ү":{"x_min":27.84375,"x_max":847.28125,"ha":868,"o":"m 751 530 l 847 563 l 833 648 l 577 648 l 562 563 l 641 533 l 461 106 l 461 236 l 312 533 l 388 563 l 375 648 l 43 648 l 27 563 l 127 533 l 363 26 l 363 -216 l 276 -247 l 291 -331 l 620 -331 l 634 -247 l 547 -216 l 547 37 l 751 530 "},"¾":{"x_min":69.359375,"x_max":965.421875,"ha":1038,"o":"m 404 940 l 383 984 l 86 984 l 86 848 l 140 837 l 159 896 l 234 896 l 304 922 l 137 733 l 166 694 l 205 703 b 313 611 273 703 313 672 b 222 498 313 548 269 498 b 102 550 180 498 137 523 l 69 498 b 226 437 113 458 169 437 b 420 614 337 437 420 507 b 258 775 420 719 333 772 l 404 940 m 866 994 l 123 -24 l 223 -24 l 965 994 l 866 994 m 766 201 l 648 201 l 804 414 l 766 301 l 766 201 m 766 140 l 766 73 l 677 57 l 686 -1 l 952 -1 l 964 55 l 876 73 l 876 140 l 937 140 l 952 201 l 876 201 l 876 533 l 822 547 l 554 182 l 584 140 l 766 140 "},"ŉ":{"x_min":-136.09375,"x_max":817.65625,"ha":867,"o":"m -55 812 b -131 734 -98 812 -131 777 b -106 676 -131 714 -122 694 l -83 676 b -136 590 -87 647 -104 615 l -97 551 b 20 734 -37 582 20 641 b -55 812 20 779 -12 812 m 431 564 b 555 450 492 564 555 522 l 555 115 l 467 84 l 484 0 l 800 0 l 817 84 l 730 115 l 730 429 b 466 663 730 580 627 663 b 292 627 408 663 338 643 l 235 664 l 58 648 l 73 564 l 136 564 l 136 115 l 48 84 l 63 0 l 384 0 l 399 84 l 310 115 l 310 536 b 431 564 346 548 395 564 "},"":{"x_min":48.609375,"x_max":612.5,"ha":685,"o":"m 256 -81 b 176 -64 234 -81 202 -74 l 138 79 l 48 62 l 48 -124 b 270 -180 125 -162 202 -180 b 612 105 454 -180 612 -78 b 336 367 612 278 469 367 b 206 343 288 367 250 360 l 229 491 l 575 491 l 575 731 l 481 750 l 452 648 l 137 648 l 80 240 l 156 208 b 288 248 204 239 250 248 b 437 104 361 248 437 205 b 256 -81 437 -19 338 -81 "},"Ģ":{"x_min":48.6875,"x_max":1016.796875,"ha":1051,"o":"m 576 -49 b 500 -127 533 -49 500 -84 b 525 -186 500 -148 509 -167 l 548 -186 b 495 -272 544 -215 527 -247 l 534 -311 b 652 -127 594 -280 652 -220 b 576 -49 652 -83 619 -49 m 255 493 b 569 879 255 693 350 879 b 734 855 615 879 684 869 l 800 673 l 898 689 l 898 905 b 569 995 795 965 691 995 b 48 486 259 995 48 769 b 569 -23 48 230 209 -23 b 898 66 683 -23 822 11 l 898 337 l 1016 384 l 1000 483 l 605 483 l 590 384 l 705 339 l 705 109 b 568 93 665 98 605 93 b 255 493 329 93 255 304 "},"m":{"x_min":48.953125,"x_max":1208.671875,"ha":1257,"o":"m 717 430 b 696 536 717 472 710 502 b 819 564 722 548 768 564 b 946 441 878 564 946 523 l 946 115 l 858 84 l 875 0 l 1192 0 l 1208 84 l 1119 115 l 1119 429 b 843 663 1119 580 1023 663 b 644 612 773 663 690 637 b 462 663 604 650 537 663 b 289 627 404 663 335 643 l 232 664 l 58 648 l 73 564 l 136 564 l 136 115 l 48 84 l 65 0 l 382 0 l 398 84 l 311 115 l 311 536 b 432 564 347 548 396 564 b 542 454 486 564 542 526 l 542 115 l 454 84 l 471 0 l 789 0 l 805 84 l 717 115 l 717 430 "},"Е":{"x_min":48.609375,"x_max":802.78125,"ha":851,"o":"m 625 873 l 679 709 l 779 725 l 779 972 l 63 972 l 48 873 l 165 827 l 165 141 l 51 98 l 65 0 l 802 0 l 802 293 l 704 306 l 630 98 l 356 98 l 356 445 l 500 445 l 543 333 l 641 347 l 641 654 l 541 668 l 500 555 l 356 555 l 356 873 l 625 873 "},"ž":{"x_min":34.71875,"x_max":637.5,"ha":672,"o":"m 554 991 l 509 1021 l 345 884 l 179 1021 l 137 991 l 297 755 l 393 755 l 554 991 m 75 648 l 75 472 l 168 455 l 201 564 l 486 564 l 387 512 l 34 84 l 76 0 l 616 0 l 616 207 l 523 225 l 480 84 l 169 84 l 272 132 l 637 564 l 569 648 l 75 648 "},"á":{"x_min":43.15625,"x_max":691.765625,"ha":706,"o":"m 508 998 l 373 1064 l 272 811 l 333 779 l 508 998 m 94 472 l 187 455 l 218 561 b 320 576 244 568 287 576 b 439 458 382 576 439 537 l 439 409 b 43 177 264 409 43 366 b 277 -15 43 51 152 -15 b 457 32 358 -15 415 2 l 498 0 l 675 0 l 691 84 l 614 115 l 614 402 b 327 663 614 570 507 663 b 94 605 258 663 175 645 l 94 472 m 439 141 b 329 86 415 107 366 86 b 233 190 290 86 233 111 b 439 323 233 269 309 323 l 439 141 "},"×":{"x_min":105.5625,"x_max":640.28125,"ha":778,"o":"m 551 172 l 640 254 l 459 436 l 640 616 l 554 703 l 373 522 l 193 703 l 106 616 l 287 436 l 105 254 l 195 172 l 373 349 l 551 172 "},"Ӱ":{"x_min":6.84375,"x_max":894.421875,"ha":797,"o":"m 577 1216 b 487 1126 529 1216 487 1176 b 577 1036 487 1077 529 1036 b 668 1126 626 1036 668 1077 b 577 1216 668 1176 626 1216 m 316 1216 b 226 1126 267 1216 226 1176 b 316 1036 226 1077 267 1036 b 406 1126 366 1036 406 1077 b 316 1216 406 1176 366 1216 m 769 830 l 894 873 l 876 972 l 565 972 l 548 873 l 654 831 l 473 387 l 473 544 l 338 831 l 445 873 l 430 972 l 24 972 l 6 873 l 127 830 l 388 255 l 419 248 l 413 231 b 162 108 379 148 237 108 l 177 2 l 381 -24 b 495 144 440 13 470 81 l 769 830 "},"п":{"x_min":48.609375,"x_max":818.0625,"ha":867,"o":"m 65 648 l 48 563 l 138 533 l 138 115 l 51 84 l 68 0 l 384 0 l 401 84 l 313 115 l 313 563 l 552 563 l 552 116 l 463 84 l 480 0 l 798 0 l 815 84 l 727 115 l 727 533 l 818 563 l 801 648 l 65 648 "},"K":{"x_min":48.609375,"x_max":988.890625,"ha":1011,"o":"m 356 827 l 473 873 l 459 972 l 63 972 l 48 875 l 165 827 l 165 144 l 48 98 l 62 0 l 459 0 l 473 100 l 356 144 l 356 827 m 668 0 l 973 0 l 988 98 l 868 143 l 640 479 l 545 523 l 791 773 b 970 873 823 806 886 850 l 955 972 l 620 972 l 604 873 l 691 827 l 415 545 l 415 472 l 680 75 l 668 0 "},"7":{"x_min":90.28125,"x_max":668.0625,"ha":689,"o":"m 148 0 l 318 0 l 318 70 l 668 819 l 636 894 l 90 894 l 90 666 l 183 648 l 213 744 l 404 744 l 512 788 l 148 0 "},"¨":{"x_min":69.4375,"x_max":511.109375,"ha":581,"o":"m 420 1216 b 330 1126 372 1216 330 1176 b 420 1036 330 1077 372 1036 b 511 1126 469 1036 511 1077 b 420 1216 511 1176 469 1216 m 159 1216 b 69 1126 111 1216 69 1176 b 159 1036 69 1077 111 1036 b 250 1126 209 1036 250 1077 b 159 1216 250 1176 209 1216 "},"Y":{"x_min":6.875,"x_max":944.609375,"ha":951,"o":"m 404 141 l 287 98 l 302 0 l 694 0 l 711 98 l 596 141 l 596 447 l 819 827 l 944 873 l 929 972 l 608 972 l 594 873 l 696 827 l 495 495 l 495 583 l 348 827 l 452 872 l 437 972 l 22 972 l 6 873 l 129 827 l 404 356 l 404 141 "},"E":{"x_min":48.609375,"x_max":802.78125,"ha":851,"o":"m 625 873 l 679 709 l 779 725 l 779 972 l 63 972 l 48 873 l 165 827 l 165 141 l 51 98 l 65 0 l 802 0 l 802 293 l 704 306 l 630 98 l 356 98 l 356 445 l 500 445 l 543 333 l 641 347 l 641 654 l 541 668 l 500 555 l 356 555 l 356 873 l 625 873 "},"Ô":{"x_min":83.328125,"x_max":1040.28125,"ha":1124,"o":"m 608 1288 l 512 1288 l 352 1052 l 394 1023 l 561 1159 l 725 1023 l 769 1052 l 608 1288 m 562 995 b 83 486 252 995 83 741 b 562 -23 83 230 230 -23 b 1040 486 894 -23 1040 200 b 562 995 1040 772 872 995 m 562 879 b 834 493 740 879 834 748 b 562 93 834 237 744 93 b 291 493 381 93 291 230 b 562 879 291 755 384 879 "},"Є":{"x_min":83.328125,"x_max":934.71875,"ha":982,"o":"m 605 93 b 293 447 386 93 301 272 l 487 447 l 531 333 l 629 350 l 629 652 l 531 668 l 487 555 l 294 555 b 605 880 312 766 431 880 b 769 861 648 880 720 872 l 834 675 l 934 690 l 934 905 b 605 995 830 965 727 995 b 83 486 266 995 83 741 b 605 -23 83 230 244 -23 b 934 69 719 -23 858 13 l 934 293 l 836 306 l 765 113 b 605 93 719 102 644 93 "},"Ï":{"x_min":76.03125,"x_max":517.96875,"ha":594,"o":"m 427 1216 b 337 1126 379 1216 337 1176 b 427 1036 337 1077 379 1036 b 517 1126 476 1036 517 1077 b 427 1216 517 1176 476 1216 m 166 1216 b 76 1126 117 1216 76 1176 b 166 1036 76 1077 117 1036 b 256 1126 216 1036 256 1077 b 166 1216 256 1176 216 1216 m 392 827 l 511 873 l 494 972 l 99 972 l 82 873 l 201 827 l 201 141 l 82 98 l 99 0 l 494 0 l 511 98 l 392 141 l 392 827 "},"Ȅ":{"x_min":48.609375,"x_max":802.78125,"ha":851,"o":"m 366 1052 l 406 1090 l 234 1307 l 122 1208 l 366 1052 m 601 1052 l 641 1090 l 469 1307 l 356 1208 l 601 1052 m 356 873 l 356 555 l 500 555 l 541 668 l 641 654 l 641 347 l 543 333 l 500 445 l 356 445 l 356 98 l 630 98 l 704 306 l 802 293 l 802 0 l 65 0 l 51 98 l 165 141 l 165 827 l 48 873 l 63 972 l 779 972 l 779 725 l 679 709 l 625 873 l 356 873 "},"ġ":{"x_min":32.90625,"x_max":655.046875,"ha":669,"o":"m 338 968 b 248 877 291 968 248 927 b 338 787 248 829 291 787 b 428 877 388 787 428 829 b 338 968 428 927 388 968 m 270 149 b 230 183 246 156 231 167 l 234 194 b 331 183 263 185 298 183 b 636 422 506 183 636 262 b 616 525 636 459 630 494 l 553 563 l 634 563 l 655 665 l 463 648 b 341 663 427 658 381 663 b 57 422 173 663 57 551 b 142 240 57 341 84 281 l 75 128 b 185 10 75 58 137 27 l 327 -35 b 449 -147 384 -53 449 -94 b 302 -248 449 -207 380 -248 b 169 -171 221 -248 169 -214 b 230 -80 169 -144 187 -104 l 180 -19 b 32 -178 106 -44 32 -104 b 302 -347 32 -300 166 -347 b 630 -111 471 -347 630 -276 b 392 106 630 5 531 58 l 270 149 m 341 576 b 468 429 402 576 468 545 b 341 270 468 319 412 270 b 223 426 273 270 223 323 b 341 576 223 527 274 576 "},"җ":{"x_min":13.890625,"x_max":1062.5,"ha":1076,"o":"m 331 363 l 237 321 l 115 114 l 13 84 l 30 0 l 300 0 l 284 71 l 427 309 l 458 321 l 458 116 l 369 84 l 386 0 l 688 0 l 705 84 l 618 114 l 618 321 l 648 309 l 790 71 l 776 0 l 915 0 l 969 -181 l 1062 -172 l 1062 85 l 961 114 l 838 321 l 744 363 l 894 496 b 1036 563 926 525 965 552 l 1019 648 l 766 648 l 750 563 l 805 532 l 654 395 l 618 395 l 618 532 l 695 563 l 679 648 l 395 648 l 379 563 l 458 532 l 458 395 l 422 395 l 269 532 l 325 563 l 308 648 l 55 648 l 38 563 b 181 498 91 555 136 539 l 331 363 "},"й":{"x_min":48.90625,"x_max":863.96875,"ha":913,"o":"m 312 134 l 633 413 l 600 312 l 600 115 l 509 84 l 526 0 l 844 0 l 861 84 l 773 115 l 773 533 l 863 563 l 847 648 l 526 648 l 509 563 l 600 533 l 600 509 l 279 230 l 312 331 l 312 533 l 404 563 l 387 648 l 65 648 l 48 563 l 139 533 l 139 115 l 51 84 l 68 0 l 383 0 l 400 84 l 312 115 l 312 134 m 683 994 b 514 920 623 938 579 920 b 376 1008 454 920 404 958 l 305 1008 l 218 916 b 471 793 285 823 371 793 b 734 941 564 793 670 851 l 683 994 "},"b":{"x_min":2.78125,"x_max":738.890625,"ha":794,"o":"m 313 550 b 412 563 347 559 388 563 b 551 354 490 563 551 515 b 375 86 551 187 475 86 b 269 104 336 86 298 93 l 269 1017 l 188 1038 l 2 1017 l 18 937 l 95 937 l 95 56 b 383 -15 175 8 268 -15 b 738 338 608 -15 738 126 b 423 663 738 561 633 663 b 313 650 395 663 347 659 l 313 550 "},"ﬂ":{"x_min":27.78125,"x_max":998.609375,"ha":1054,"o":"m 902 115 l 902 970 b 529 1037 755 1020 656 1037 b 141 706 269 1037 141 875 l 141 673 l 27 640 l 41 563 l 141 563 l 141 115 l 52 84 l 69 0 l 430 0 l 447 84 l 316 115 l 316 563 l 462 563 l 477 648 l 316 648 l 316 727 b 523 950 316 890 430 950 b 727 890 601 950 675 930 l 727 115 l 631 84 l 648 0 l 981 0 l 998 84 l 902 115 "},"ф":{"x_min":55.5625,"x_max":955.5625,"ha":1011,"o":"m 418 85 b 248 329 333 97 248 178 b 418 563 248 478 334 550 l 418 85 m 418 -216 l 330 -246 l 347 -331 l 663 -331 l 680 -246 l 593 -216 l 593 -13 b 955 325 801 -5 955 103 b 593 649 955 549 788 640 l 593 1019 l 511 1038 l 341 1021 l 355 938 l 418 938 l 418 649 b 55 325 222 640 55 549 b 418 -13 55 103 211 -5 l 418 -216 m 593 563 b 763 329 675 550 763 478 b 593 85 763 178 677 97 l 593 563 "},"Ŋ":{"x_min":33.328125,"x_max":1040.28125,"ha":1089,"o":"m 34 98 l 50 0 l 356 0 l 372 98 l 256 141 l 256 738 l 733 27 b 569 -154 702 -36 652 -97 l 622 -243 b 925 240 898 -154 925 47 l 925 827 l 1040 873 l 1026 972 l 675 972 l 661 873 l 776 827 l 776 218 l 712 416 l 336 972 l 47 972 l 33 873 l 150 827 l 150 143 l 34 98 "},"Ũ":{"x_min":41.640625,"x_max":1021.28125,"ha":1042,"o":"m 683 1050 l 812 1209 l 771 1239 l 650 1180 l 511 1236 l 464 1236 l 334 1076 l 379 1047 l 494 1119 l 633 1050 l 683 1050 m 543 -23 b 904 415 722 -23 904 55 l 904 827 l 1021 873 l 1007 972 l 696 972 l 679 873 l 799 827 l 799 404 b 565 93 799 197 712 93 b 350 406 419 93 350 184 l 350 827 l 466 873 l 452 972 l 55 972 l 41 873 l 158 827 l 158 415 b 543 -23 158 52 351 -23 "},"Щ":{"x_min":50,"x_max":1433.328125,"ha":1489,"o":"m 1123 98 l 837 98 l 837 827 l 954 873 l 940 973 l 543 973 l 527 873 l 645 827 l 645 98 l 358 98 l 358 827 l 475 873 l 459 973 l 63 973 l 50 873 l 166 827 l 166 141 l 51 98 l 66 0 l 1243 0 l 1331 -242 l 1430 -228 l 1430 98 l 1316 98 l 1316 827 l 1433 873 l 1416 973 l 1022 973 l 1006 873 l 1123 827 l 1123 98 "},"L":{"x_min":48.609375,"x_max":800,"ha":814,"o":"m 62 972 l 48 873 l 165 827 l 165 143 l 48 98 l 62 0 l 800 0 l 800 293 l 701 306 l 625 98 l 356 98 l 356 827 l 475 873 l 459 972 l 62 972 "},"":{"x_min":66.671875,"x_max":618.0625,"ha":636,"o":"m 131 -180 l 297 -180 l 297 -100 l 618 577 l 573 648 l 66 648 l 66 422 l 159 404 l 186 490 l 365 490 l 465 522 l 131 -180 "},"Ҡ":{"x_min":-79.171875,"x_max":988.890625,"ha":1011,"o":"m 165 873 l 165 144 l 48 100 l 62 0 l 459 0 l 473 101 l 356 144 l 356 830 l 473 873 l 459 972 l -79 972 l -79 725 l 19 711 l 80 873 l 165 873 m 680 75 l 415 472 l 415 545 l 691 827 l 604 873 l 620 972 l 955 972 l 970 873 b 791 773 886 850 823 806 l 545 523 l 640 479 l 863 148 l 988 98 l 973 0 l 668 0 l 680 75 "},"ď":{"x_min":48.890625,"x_max":908.859375,"ha":793,"o":"m 832 968 b 908 890 875 968 908 935 b 790 707 908 797 850 737 l 751 745 b 804 832 783 770 800 802 l 781 832 b 756 890 765 850 756 869 b 832 968 756 933 789 968 m 521 129 b 401 86 490 98 443 86 b 237 333 307 86 237 187 b 408 564 237 477 300 564 b 521 536 443 564 491 552 l 521 129 m 580 0 l 769 0 l 786 84 l 696 115 l 696 1017 l 614 1038 l 430 1017 l 446 937 l 521 937 l 521 645 b 400 663 485 656 436 663 b 48 319 193 663 48 525 b 393 -15 48 114 169 -15 b 539 32 447 -15 508 7 l 580 0 "},"Ĭ":{"x_min":68.0625,"x_max":527.78125,"ha":594,"o":"m 297 1169 b 118 1249 226 1169 161 1196 l 68 1214 b 297 1048 97 1133 179 1048 b 527 1214 416 1048 498 1133 l 476 1249 b 297 1169 433 1196 369 1169 m 393 827 l 511 873 l 494 972 l 100 972 l 83 873 l 201 827 l 201 141 l 83 98 l 100 0 l 494 0 l 511 98 l 393 141 l 393 827 "},"ŧ":{"x_min":12.5,"x_max":519.4375,"ha":519,"o":"m 281 795 l 177 819 l 118 671 l 13 639 l 27 563 l 106 563 l 106 400 l 12 400 l 12 330 l 106 330 l 106 173 b 319 -14 106 67 180 -14 b 519 78 406 -14 465 23 l 459 152 b 341 85 422 112 376 85 b 281 162 316 85 281 114 l 281 330 l 463 330 l 463 400 l 281 400 l 281 563 l 448 563 l 465 648 l 281 648 l 281 795 "},"À":{"x_min":20.828125,"x_max":1045.828125,"ha":1057,"o":"m 586 1052 l 626 1090 l 454 1307 l 341 1208 l 586 1052 m 612 995 l 923 143 l 1045 98 l 1030 0 l 626 0 l 611 98 l 720 143 l 658 309 l 333 309 l 266 143 l 397 100 l 383 0 l 36 0 l 20 98 l 141 143 l 461 972 l 612 995 m 530 654 l 530 812 l 375 418 l 618 418 l 530 654 "},"½":{"x_min":99.71875,"x_max":1055.28125,"ha":1119,"o":"m 888 487 b 945 412 919 487 945 466 b 728 44 945 261 728 193 l 728 0 l 1046 0 l 1046 136 l 991 147 l 970 90 l 816 90 b 1055 402 844 176 1055 236 b 891 548 1055 480 1002 548 b 744 513 848 548 794 537 l 744 402 l 801 391 l 826 475 b 888 487 844 483 870 487 m 901 995 l 158 -23 l 258 -23 l 999 995 l 901 995 m 113 447 l 383 447 l 394 504 l 305 522 l 305 986 l 248 986 l 99 954 l 110 894 l 195 894 l 195 522 l 103 505 l 113 447 "},"ȓ":{"x_min":48.609375,"x_max":616.671875,"ha":631,"o":"m 370 1020 l 275 1020 l 115 784 l 156 755 l 323 891 l 487 755 l 531 784 l 370 1020 m 616 472 l 616 633 b 473 663 563 654 516 663 b 294 627 409 663 337 643 l 237 664 l 56 648 l 73 564 l 136 564 l 136 115 l 48 84 l 65 0 l 409 0 l 426 84 l 311 115 l 311 536 b 436 564 351 551 408 564 b 491 558 455 564 481 561 l 523 455 l 616 472 "},"'":{"x_min":40.28125,"x_max":218.0625,"ha":258,"o":"m 165 586 l 218 972 l 155 996 l 40 972 l 91 586 l 165 586 "},"Р":{"x_min":48.609375,"x_max":838.890625,"ha":881,"o":"m 359 873 l 480 873 b 651 663 604 873 651 779 b 477 473 651 568 586 473 l 418 473 l 418 365 l 473 365 b 838 663 668 365 838 438 b 523 972 838 850 731 972 l 65 972 l 48 873 l 168 827 l 168 141 l 51 98 l 66 0 l 502 0 l 518 98 l 359 141 l 359 873 "},"˛":{"x_min":26.390625,"x_max":263.890625,"ha":299,"o":"m 175 21 b 26 -140 118 -5 26 -48 b 168 -273 26 -220 84 -273 b 263 -256 179 -273 220 -272 l 240 -156 b 197 -163 226 -160 213 -163 b 140 -117 163 -163 140 -152 b 262 0 140 -77 187 -35 l 175 21 "},"":{"x_min":69.4375,"x_max":1533.328125,"ha":1594,"o":"m 855 731 b 1098 422 855 537 991 475 b 1359 211 1194 375 1359 320 b 1156 93 1359 136 1269 93 b 1029 123 1120 93 1061 108 l 958 305 l 859 291 l 859 66 b 1166 -23 937 11 1052 -23 b 1533 254 1415 -23 1533 93 b 1248 573 1533 420 1394 512 b 1030 755 1195 600 1030 654 b 1194 879 1030 833 1093 879 b 1326 861 1236 879 1288 872 l 1391 675 l 1491 690 l 1491 906 b 1194 995 1405 958 1302 995 b 855 731 1016 995 855 908 m 69 731 b 312 422 69 537 205 475 b 573 211 408 375 573 320 b 370 93 573 136 483 93 b 243 123 334 93 275 108 l 172 305 l 73 291 l 73 66 b 380 -23 151 11 266 -23 b 747 254 629 -23 747 93 b 462 573 747 420 608 512 b 244 755 409 600 244 654 b 408 879 244 833 306 879 b 540 861 450 879 502 872 l 605 675 l 705 690 l 705 906 b 408 995 619 958 516 995 b 69 731 230 995 69 908 "},"Ć":{"x_min":41.671875,"x_max":879.171875,"ha":901,"o":"m 550 93 b 250 493 312 93 250 304 b 550 879 250 755 356 879 b 715 857 595 879 665 870 l 779 675 l 879 690 l 879 907 b 550 995 775 966 673 995 b 41 486 211 995 41 741 b 550 -23 41 230 188 -23 b 879 66 663 -23 801 11 l 879 291 l 780 305 l 709 112 b 550 93 663 100 590 93 m 777 1208 l 665 1307 l 493 1090 l 533 1052 l 777 1208 "},"Т":{"x_min":55.5625,"x_max":887.5,"ha":943,"o":"m 55 688 l 154 673 l 227 873 l 375 873 l 375 141 l 258 98 l 272 0 l 669 0 l 683 98 l 566 141 l 566 873 l 715 873 l 788 673 l 887 688 l 887 972 l 55 972 l 55 688 "},"£":{"x_min":5.109375,"x_max":620.390625,"ha":635,"o":"m 5 433 l 5 362 l 119 362 b 5 121 119 216 53 160 l 5 0 l 607 0 l 607 151 l 273 151 l 166 119 b 294 359 224 164 294 276 l 521 359 l 521 433 l 294 433 l 294 619 b 423 791 294 733 357 791 b 498 777 450 791 477 787 l 530 677 l 620 694 l 620 839 b 417 905 560 878 503 905 b 119 570 278 905 120 820 l 119 433 l 5 433 "},"ů":{"x_min":41.40625,"x_max":796.96875,"ha":818,"o":"m 420 1023 b 267 888 335 1023 267 979 b 420 757 267 800 327 757 b 573 888 513 757 573 798 b 420 1023 573 979 509 1023 m 420 966 b 471 890 451 966 471 932 b 420 813 471 850 452 813 b 369 890 388 813 369 850 b 420 966 369 930 390 966 m 533 563 l 474 563 l 459 645 l 638 663 l 708 643 l 708 115 l 796 84 l 780 0 l 591 0 l 549 32 b 366 -15 496 -5 434 -15 b 113 238 206 -15 113 87 l 113 563 l 56 563 l 41 645 l 208 663 l 288 644 l 288 226 b 415 86 288 122 358 86 b 533 138 452 86 505 105 l 533 563 "},"Ō":{"x_min":83.328125,"x_max":1040.28125,"ha":1124,"o":"m 325 1059 l 798 1059 l 798 1151 l 325 1151 l 325 1059 m 562 995 b 83 486 252 995 83 741 b 562 -23 83 230 230 -23 b 1040 486 894 -23 1040 200 b 562 995 1040 772 872 995 m 562 879 b 834 493 740 879 834 748 b 562 93 834 237 744 93 b 291 493 381 93 291 230 b 562 879 291 755 384 879 "},"а":{"x_min":43.0625,"x_max":691.671875,"ha":706,"o":"m 94 472 l 187 455 l 218 561 b 320 576 244 568 287 576 b 438 458 381 576 438 537 l 438 409 b 43 177 263 409 43 366 b 277 -15 43 51 152 -15 b 456 32 358 -15 415 2 l 498 0 l 675 0 l 691 84 l 613 115 l 613 402 b 327 663 613 570 506 663 b 94 605 258 663 175 645 l 94 472 m 438 141 b 329 86 415 107 366 86 b 233 190 290 86 233 111 b 438 323 233 269 309 323 l 438 141 "},"Ğ":{"x_min":49.03125,"x_max":1017.09375,"ha":1051,"o":"m 569 1169 b 390 1249 499 1169 433 1196 l 340 1214 b 569 1049 369 1133 451 1049 b 800 1214 689 1049 771 1133 l 749 1249 b 569 1169 705 1196 642 1169 m 255 493 b 569 879 255 693 350 879 b 735 855 615 879 685 869 l 800 674 l 899 689 l 899 905 b 569 996 796 965 692 996 b 49 486 260 996 49 769 b 569 -23 49 230 210 -23 b 899 67 683 -23 822 11 l 899 337 l 1017 385 l 1000 483 l 605 483 l 590 385 l 705 339 l 705 110 b 568 93 665 99 605 93 b 255 493 329 93 255 304 "},"ә":{"x_min":55.5625,"x_max":681.953125,"ha":738,"o":"m 488 283 b 348 86 486 180 434 86 b 225 212 276 86 225 133 b 238 283 225 236 231 265 l 488 283 m 97 369 b 55 223 77 334 55 261 b 348 -13 55 65 181 -13 b 681 323 547 -13 681 111 b 326 663 681 537 547 663 b 81 606 259 663 162 647 l 81 473 l 175 456 l 204 561 b 322 576 236 573 293 576 b 491 369 431 576 491 494 l 97 369 "},"v":{"x_min":27.78125,"x_max":793.0625,"ha":814,"o":"m 701 533 l 793 564 l 776 648 l 531 648 l 515 564 l 598 535 l 426 140 l 426 266 l 306 533 l 386 564 l 369 648 l 44 648 l 27 564 l 118 533 l 356 -15 l 484 0 l 701 533 "},"Ї":{"x_min":76.03125,"x_max":517.96875,"ha":594,"o":"m 427 1216 b 337 1126 379 1216 337 1176 b 427 1036 337 1077 379 1036 b 517 1126 476 1036 517 1077 b 427 1216 517 1176 476 1216 m 166 1216 b 76 1126 117 1216 76 1176 b 166 1036 76 1077 117 1036 b 256 1126 216 1036 256 1077 b 166 1216 256 1176 216 1216 m 392 827 l 511 873 l 494 972 l 99 972 l 82 873 l 201 827 l 201 141 l 82 98 l 99 0 l 494 0 l 511 98 l 392 141 l 392 827 "},"û":{"x_min":41.78125,"x_max":797.328125,"ha":818,"o":"m 470 1020 l 375 1020 l 215 784 l 257 755 l 423 891 l 587 755 l 632 784 l 470 1020 m 533 563 l 475 563 l 459 645 l 639 663 l 708 643 l 708 115 l 797 84 l 780 0 l 591 0 l 550 32 b 366 -15 497 -5 434 -15 b 114 238 207 -15 114 87 l 114 563 l 57 563 l 41 645 l 208 663 l 289 644 l 289 226 b 415 86 289 122 358 86 b 533 138 452 86 505 105 l 533 563 "},"Ź":{"x_min":29.171875,"x_max":851.390625,"ha":885,"o":"m 702 1208 l 590 1307 l 418 1090 l 458 1052 l 702 1208 m 230 98 l 334 172 l 851 873 l 776 972 l 101 972 l 101 688 l 200 673 l 270 873 l 661 873 l 555 790 l 29 98 l 91 0 l 851 0 l 851 291 l 752 306 l 677 98 l 230 98 "},"Ĺ":{"x_min":48.484375,"x_max":799.875,"ha":814,"o":"m 62 972 l 48 873 l 165 827 l 165 143 l 48 98 l 62 0 l 799 0 l 799 293 l 701 306 l 624 98 l 356 98 l 356 827 l 474 873 l 459 972 l 62 972 m 530 1208 l 417 1307 l 245 1090 l 285 1052 l 530 1208 "},"Č":{"x_min":41.671875,"x_max":879.171875,"ha":901,"o":"m 756 1259 l 712 1289 l 548 1152 l 381 1289 l 340 1259 l 500 1023 l 595 1023 l 756 1259 m 550 93 b 250 493 312 93 250 304 b 550 879 250 755 356 879 b 715 857 595 879 665 870 l 779 675 l 879 690 l 879 907 b 550 995 775 966 673 995 b 41 486 211 995 41 741 b 550 -23 41 230 188 -23 b 879 66 663 -23 801 11 l 879 291 l 780 305 l 709 112 b 550 93 663 100 590 93 "},"x":{"x_min":13.890625,"x_max":754.171875,"ha":768,"o":"m 754 563 l 737 648 l 463 648 l 447 563 l 523 533 l 395 375 l 395 434 l 327 533 l 398 563 l 381 648 l 36 648 l 19 563 l 118 533 l 273 305 l 119 115 l 13 84 l 30 0 l 294 0 l 311 84 l 244 115 l 366 262 l 366 211 l 434 115 l 363 84 l 380 0 l 729 0 l 745 84 l 641 115 l 487 331 l 650 533 l 754 563 "},"è":{"x_min":55.671875,"x_max":714,"ha":763,"o":"m 416 779 l 477 811 l 376 1064 l 241 998 l 416 779 m 534 408 b 539 448 537 422 539 436 b 411 576 539 530 483 576 b 250 408 320 576 262 508 l 534 408 m 441 86 b 655 150 512 86 584 102 l 702 79 b 434 -15 614 6 526 -15 b 55 325 170 -15 55 119 b 411 663 55 537 212 663 b 714 438 577 663 714 575 b 683 322 714 401 700 351 l 245 322 b 441 86 248 183 322 86 "},"Ń":{"x_min":33.328125,"x_max":998.609375,"ha":1036,"o":"m 773 1208 l 661 1307 l 488 1090 l 529 1052 l 773 1208 m 34 98 l 50 0 l 356 0 l 372 98 l 256 141 l 256 738 l 768 -24 l 883 0 l 883 827 l 998 873 l 984 972 l 675 972 l 661 873 l 776 827 l 776 251 l 726 395 l 336 972 l 47 972 l 33 873 l 150 827 l 150 142 l 34 98 "},".":{"x_min":68.0625,"x_max":258.328125,"ha":329,"o":"m 162 166 b 68 72 111 166 68 123 b 162 -23 68 19 111 -23 b 258 72 215 -23 258 19 b 162 166 258 123 215 166 "},"ȕ":{"x_min":41.34375,"x_max":796.890625,"ha":818,"o":"m 514 779 l 576 811 l 474 1064 l 339 998 l 514 779 m 310 779 l 371 811 l 270 1064 l 135 998 l 310 779 m 533 564 l 474 564 l 459 645 l 638 664 l 708 643 l 708 115 l 796 84 l 780 0 l 591 0 l 549 32 b 366 -15 496 -5 434 -15 b 113 239 206 -15 113 87 l 113 564 l 56 564 l 41 645 l 208 664 l 288 644 l 288 226 b 414 86 288 122 358 86 b 533 139 452 86 505 105 l 533 564 "},"ӑ":{"x_min":42.890625,"x_max":691.78125,"ha":706,"o":"m 355 913 b 176 993 284 913 219 940 l 126 958 b 355 793 155 877 237 793 b 586 958 475 793 557 877 l 534 993 b 355 913 491 940 427 913 m 94 472 l 187 455 l 217 561 b 320 576 244 568 287 576 b 438 458 381 576 438 537 l 438 409 b 42 177 263 409 42 366 b 277 -15 42 51 152 -15 b 456 32 358 -15 415 2 l 498 0 l 675 0 l 691 84 l 614 115 l 614 402 b 327 663 614 570 507 663 b 94 605 258 663 174 645 l 94 472 m 438 141 b 329 86 415 107 366 86 b 233 190 290 86 233 111 b 438 323 233 269 309 323 l 438 141 "},"‘":{"x_min":97.21875,"x_max":343.0625,"ha":413,"o":"m 191 659 b 286 754 244 659 286 703 b 254 826 286 779 275 803 l 233 826 b 343 1028 236 894 279 978 l 294 1078 b 97 754 216 1039 97 891 b 191 659 97 703 138 659 "},"9":{"x_min":64.28125,"x_max":674,"ha":735,"o":"m 179 76 l 232 -15 b 674 589 447 68 674 346 b 369 909 674 787 557 909 b 64 595 179 909 64 754 b 321 307 64 427 183 307 b 433 336 351 307 396 319 b 179 76 374 219 278 125 m 342 409 b 244 591 285 409 244 487 b 369 807 244 701 282 807 b 494 589 455 807 494 729 b 465 411 494 529 483 465 l 444 444 b 342 409 400 418 368 409 "},"l":{"x_min":55.5625,"x_max":422.21875,"ha":478,"o":"m 326 115 l 326 1017 l 244 1038 l 63 1017 l 79 938 l 151 938 l 151 115 l 55 85 l 72 0 l 405 0 l 422 85 l 326 115 "},"Ъ":{"x_min":13.890625,"x_max":915.28125,"ha":971,"o":"m 258 141 l 143 98 l 158 0 l 569 0 b 915 315 836 0 915 147 b 555 602 915 526 727 602 l 501 602 l 501 495 l 522 495 b 706 315 634 495 706 433 b 512 98 706 198 647 98 l 450 98 l 450 830 l 566 873 l 550 972 l 13 972 l 13 725 l 112 711 l 173 873 l 258 873 l 258 141 "},"Ś":{"x_min":69.90625,"x_max":747.6875,"ha":808,"o":"m 610 1208 l 497 1307 l 325 1090 l 365 1052 l 610 1208 m 69 732 b 312 422 69 537 206 475 b 574 211 408 375 574 320 b 371 93 574 136 483 93 b 243 123 335 93 275 108 l 172 305 l 74 291 l 74 66 b 381 -23 151 11 267 -23 b 747 254 629 -23 747 93 b 462 573 747 420 608 512 b 244 755 410 600 244 654 b 408 879 244 833 307 879 b 540 861 450 879 503 872 l 606 675 l 706 690 l 706 907 b 408 995 619 958 517 995 b 69 732 231 995 69 908 "},"Ü":{"x_min":41.703125,"x_max":1020.640625,"ha":1042,"o":"m 691 1216 b 601 1126 642 1216 601 1176 b 691 1036 601 1077 642 1036 b 781 1126 740 1036 781 1077 b 691 1216 781 1176 740 1216 m 430 1216 b 340 1126 381 1216 340 1176 b 430 1036 340 1077 381 1036 b 520 1126 480 1036 520 1077 b 430 1216 520 1176 480 1216 m 542 -23 b 903 415 722 -23 903 55 l 903 827 l 1020 873 l 1006 972 l 695 972 l 678 873 l 798 827 l 798 404 b 565 93 798 197 712 93 b 350 406 419 93 350 184 l 350 827 l 466 873 l 452 972 l 55 972 l 41 873 l 158 827 l 158 415 b 542 -23 158 52 351 -23 "},"à":{"x_min":43.0625,"x_max":691.671875,"ha":706,"o":"m 329 779 l 390 811 l 288 1064 l 154 998 l 329 779 m 94 605 b 327 663 175 645 258 663 b 613 402 506 663 613 570 l 613 115 l 691 84 l 675 0 l 498 0 l 456 32 b 277 -15 415 2 358 -15 b 43 177 152 -15 43 51 b 438 409 43 366 263 409 l 438 458 b 320 576 438 537 381 576 b 218 561 287 576 244 568 l 187 455 l 94 472 l 94 605 m 438 323 b 233 190 309 323 233 269 b 329 86 233 111 290 86 b 438 141 366 86 415 107 l 438 323 "},"ó":{"x_min":55.28125,"x_max":748.34375,"ha":804,"o":"m 595 998 l 460 1064 l 359 811 l 420 779 l 595 998 m 402 663 b 55 325 191 663 55 531 b 402 -13 55 118 178 -13 b 748 325 627 -13 748 112 b 402 663 748 537 612 663 m 402 576 b 571 329 505 576 571 484 b 402 73 571 175 508 73 b 234 329 294 73 234 176 b 402 576 234 481 299 576 "},"₴":{"x_min":23.5,"x_max":760.65625,"ha":775,"o":"m 105 565 l 86 494 l 352 494 b 176 377 294 458 227 423 l 41 377 l 23 306 l 116 306 b 86 190 97 273 86 236 b 383 -13 86 27 210 -13 b 674 51 451 -13 584 6 l 674 236 l 571 252 l 520 109 b 391 94 485 100 417 94 b 259 183 317 94 259 129 b 356 306 259 234 299 270 l 674 306 l 691 377 l 477 377 b 614 494 528 408 578 445 l 744 494 l 760 565 l 652 565 b 669 662 663 593 669 626 b 358 890 669 818 563 890 b 111 826 288 890 188 865 l 111 679 l 211 659 l 242 763 b 359 781 272 776 322 781 b 494 675 446 781 494 733 b 445 565 494 630 474 595 l 105 565 "},"¦":{"x_min":138.890625,"x_max":248.609375,"ha":388,"o":"m 248 226 l 138 226 l 138 -331 l 248 -331 l 248 226 m 248 995 l 138 995 l 138 437 l 248 437 l 248 995 "},"Ѣ":{"x_min":13.890625,"x_max":937.5,"ha":993,"o":"m 13 581 l 108 563 l 168 715 l 280 715 l 280 141 l 165 98 l 177 0 l 591 0 b 937 268 858 0 937 98 b 576 511 937 481 751 511 l 536 511 l 536 412 l 544 412 b 729 268 656 412 729 381 b 536 98 729 152 669 98 l 472 98 l 472 715 l 613 715 l 673 563 l 768 581 l 768 808 l 472 808 l 472 850 l 588 897 l 572 994 l 179 994 l 163 897 l 280 850 l 280 808 l 13 808 l 13 581 "},"Ő":{"x_min":83.765625,"x_max":1040.71875,"ha":1124,"o":"m 911 1208 l 799 1307 l 626 1090 l 667 1052 l 911 1208 m 676 1208 l 564 1307 l 392 1090 l 432 1052 l 676 1208 m 562 995 b 83 486 253 995 83 741 b 562 -23 83 230 230 -23 b 1040 486 894 -23 1040 200 b 562 995 1040 772 872 995 m 562 879 b 835 493 740 879 835 748 b 562 93 835 237 744 93 b 292 493 382 93 292 230 b 562 879 292 755 385 879 "},"ȏ":{"x_min":55.875,"x_max":748.9375,"ha":804,"o":"m 448 1020 l 353 1020 l 193 784 l 235 755 l 401 891 l 565 755 l 610 784 l 448 1020 m 403 663 b 55 325 191 663 55 531 b 403 -13 55 118 179 -13 b 748 325 628 -13 748 112 b 403 663 748 537 612 663 m 403 576 b 572 329 505 576 572 484 b 403 73 572 175 508 73 b 235 329 294 73 235 176 b 403 576 235 481 300 576 "},"Ž":{"x_min":41.671875,"x_max":863.890625,"ha":892,"o":"m 243 98 l 347 172 l 863 873 l 788 972 l 113 972 l 113 688 l 212 673 l 283 873 l 673 873 l 568 790 l 41 98 l 104 0 l 863 0 l 863 291 l 765 306 l 690 98 l 243 98 m 701 1259 l 656 1289 l 493 1152 l 326 1289 l 284 1259 l 444 1023 l 540 1023 l 701 1259 "},"е":{"x_min":55.671875,"x_max":714,"ha":763,"o":"m 250 408 b 411 576 262 508 320 576 b 539 448 483 576 539 530 b 534 408 539 436 537 422 l 250 408 m 441 86 b 245 322 322 86 248 183 l 683 322 b 714 438 700 351 714 401 b 411 663 714 575 577 663 b 55 325 212 663 55 537 b 434 -15 55 119 170 -15 b 702 79 526 -15 614 6 l 655 150 b 441 86 584 102 512 86 "},"Î":{"x_min":83.328125,"x_max":511.109375,"ha":594,"o":"m 344 1288 l 248 1288 l 88 1052 l 130 1023 l 297 1159 l 461 1023 l 505 1052 l 344 1288 m 393 141 l 511 98 l 494 0 l 100 0 l 83 98 l 201 141 l 201 827 l 83 873 l 100 972 l 494 972 l 511 873 l 393 827 l 393 141 "},"e":{"x_min":55.671875,"x_max":714,"ha":763,"o":"m 250 408 b 411 576 262 508 320 576 b 539 448 483 576 539 530 b 534 408 539 436 537 422 l 250 408 m 441 86 b 245 322 322 86 248 183 l 683 322 b 714 438 700 351 714 401 b 411 663 714 575 577 663 b 55 325 212 663 55 537 b 434 -15 55 119 170 -15 b 702 79 526 -15 614 6 l 655 150 b 441 86 584 102 512 86 "},"Ĕ":{"x_min":48.40625,"x_max":802.5625,"ha":851,"o":"m 437 1169 b 258 1249 366 1169 301 1196 l 208 1214 b 437 1048 237 1133 319 1048 b 667 1214 556 1048 638 1133 l 616 1249 b 437 1169 573 1196 509 1169 m 624 873 l 678 709 l 778 725 l 778 972 l 63 972 l 48 873 l 165 827 l 165 141 l 51 98 l 65 0 l 802 0 l 802 293 l 703 306 l 630 98 l 356 98 l 356 445 l 499 445 l 542 333 l 641 347 l 641 654 l 541 668 l 499 555 l 356 555 l 356 873 l 624 873 "},"ļ":{"x_min":55.15625,"x_max":421.828125,"ha":478,"o":"m 241 -49 b 317 -127 284 -49 317 -83 b 199 -311 317 -220 259 -280 l 160 -272 b 213 -185 192 -247 209 -215 l 189 -185 b 164 -127 174 -167 164 -148 b 241 -49 164 -84 198 -49 m 326 115 l 326 1017 l 244 1038 l 63 1017 l 78 937 l 151 937 l 151 115 l 55 84 l 71 0 l 405 0 l 421 84 l 326 115 "},"Ѓ":{"x_min":48.75,"x_max":754.3125,"ha":789,"o":"m 345 873 l 580 873 l 655 675 l 754 690 l 754 972 l 65 972 l 48 873 l 165 830 l 165 141 l 51 98 l 65 0 l 445 0 l 461 98 l 345 141 l 345 873 m 620 1208 l 508 1307 l 336 1090 l 376 1052 l 620 1208 "},"ò":{"x_min":55.5625,"x_max":748.609375,"ha":804,"o":"m 416 779 l 477 811 l 376 1064 l 241 998 l 416 779 m 402 663 b 55 325 191 663 55 531 b 402 -13 55 118 179 -13 b 748 325 627 -13 748 112 b 402 663 748 537 612 663 m 402 576 b 572 329 505 576 572 484 b 402 73 572 175 508 73 b 234 329 294 73 234 176 b 402 576 234 481 300 576 "},"ﬄ":{"x_min":27.78125,"x_max":1563.890625,"ha":1619,"o":"m 706 648 l 316 648 l 316 790 b 437 950 316 916 376 950 b 498 937 455 950 484 944 l 529 822 l 622 840 l 622 970 b 431 1037 559 1018 505 1037 b 141 763 255 1037 141 922 l 141 673 l 27 640 l 41 563 l 141 563 l 141 115 l 52 84 l 69 0 l 430 0 l 447 84 l 316 115 l 316 563 l 706 563 l 706 115 l 618 84 l 634 0 l 995 0 l 1012 84 l 881 115 l 881 563 l 1027 563 l 1043 648 l 881 648 l 881 727 b 1088 950 881 890 995 950 b 1293 890 1166 950 1240 930 l 1293 115 l 1197 84 l 1213 0 l 1547 0 l 1563 84 l 1468 115 l 1468 970 b 1094 1037 1320 1020 1222 1037 b 706 706 834 1037 706 875 l 706 648 "},"^":{"x_min":52.78125,"x_max":740.28125,"ha":793,"o":"m 462 1066 l 323 1066 l 52 636 l 125 593 l 395 884 l 663 593 l 740 636 l 462 1066 "},"":{"x_min":79.171875,"x_max":554.171875,"ha":639,"o":"m 302 565 b 369 494 344 565 369 547 b 79 126 369 348 126 309 l 79 0 l 554 0 l 554 215 l 468 231 l 434 151 l 283 151 l 194 113 b 543 487 230 228 543 274 b 322 663 543 615 454 663 b 101 604 250 663 183 643 l 101 454 l 194 435 l 220 538 b 302 565 244 554 279 565 "},"к":{"x_min":13.890625,"x_max":766.671875,"ha":781,"o":"m 445 648 l 429 563 l 498 532 l 320 362 l 320 307 l 493 70 l 479 0 l 750 0 l 766 84 l 665 114 l 518 323 l 434 341 l 600 498 b 745 563 627 525 662 550 l 729 648 l 445 648 m 277 114 l 277 648 l 195 669 l 13 648 l 30 563 l 102 563 l 102 114 l 13 84 l 30 0 l 348 0 l 365 84 l 277 114 "},"Ӑ":{"x_min":20.828125,"x_max":1045.828125,"ha":1057,"o":"m 536 1169 b 356 1249 465 1169 400 1196 l 306 1214 b 536 1049 336 1133 418 1049 b 766 1214 655 1049 737 1133 l 715 1249 b 536 1169 672 1196 608 1169 m 461 972 l 141 143 l 20 99 l 36 0 l 383 0 l 397 100 l 266 143 l 333 310 l 658 310 l 720 143 l 611 99 l 626 0 l 1030 0 l 1045 99 l 923 143 l 612 996 l 461 972 m 618 418 l 375 418 l 530 812 l 530 654 l 618 418 "},"ﬅ":{"x_min":27.5,"x_max":1002.5,"ha":1003,"o":"m 462 1037 b 141 761 263 1037 141 919 l 141 673 l 27 640 l 41 562 l 141 562 l 141 115 l 52 86 l 69 0 l 416 0 l 433 86 l 316 115 l 316 788 b 460 950 316 909 383 950 b 630 812 570 950 630 904 b 495 648 630 741 581 675 l 510 563 l 590 563 l 590 173 b 802 -13 590 68 663 -13 b 1002 79 890 -13 948 23 l 942 152 b 824 86 905 112 859 86 b 765 162 799 86 765 115 l 765 563 l 931 563 l 948 648 l 765 648 b 795 798 778 679 795 726 b 462 1037 795 947 673 1037 "},"ū":{"x_min":41.671875,"x_max":797.21875,"ha":818,"o":"m 176 805 l 650 805 l 650 897 l 176 897 l 176 805 m 533 564 l 475 564 l 459 646 l 638 664 l 708 643 l 708 115 l 797 84 l 780 0 l 591 0 l 550 32 b 366 -15 497 -5 434 -15 b 113 239 206 -15 113 87 l 113 564 l 56 564 l 41 646 l 208 664 l 288 644 l 288 226 b 415 86 288 122 358 86 b 533 139 452 86 505 105 l 533 564 "},"ˆ":{"x_min":69.4375,"x_max":486.109375,"ha":556,"o":"m 325 1289 l 229 1289 l 69 1053 l 111 1024 l 277 1160 l 441 1024 l 486 1053 l 325 1289 "},"Ẅ":{"x_min":5.5625,"x_max":1434.71875,"ha":1439,"o":"m 884 1216 b 794 1126 836 1216 794 1176 b 884 1036 794 1077 836 1036 b 975 1126 933 1036 975 1077 b 884 1216 975 1176 933 1216 m 623 1216 b 533 1126 575 1216 533 1176 b 623 1036 533 1077 575 1036 b 713 1126 673 1036 713 1077 b 623 1216 713 1176 673 1216 m 920 -24 l 1054 0 l 1311 827 l 1434 873 l 1419 972 l 1105 972 l 1090 873 l 1201 827 l 997 201 l 997 388 l 808 995 l 711 971 l 465 194 l 465 388 l 325 827 l 437 873 l 420 972 l 19 972 l 5 873 l 127 827 l 388 -24 l 525 0 l 745 699 l 745 534 l 920 -24 "},"ȷ":{"x_min":-62.5,"x_max":315.28125,"ha":418,"o":"m 45 648 l 63 563 l 140 563 l 140 133 b -62 -267 140 -15 123 -145 l -15 -347 b 315 111 262 -255 315 -77 l 315 648 l 233 663 l 45 648 "},"č":{"x_min":55.796875,"x_max":683.578125,"ha":714,"o":"m 608 991 l 564 1021 l 400 884 l 233 1021 l 191 991 l 351 755 l 447 755 l 608 991 m 434 576 b 540 559 461 576 511 570 l 569 455 l 662 472 l 662 605 b 432 663 582 645 498 663 b 55 323 212 663 55 537 b 429 -15 55 119 179 -15 b 683 79 521 -15 615 16 l 636 150 b 436 86 575 108 497 86 b 246 350 294 86 246 204 b 434 576 246 491 322 576 "},"’":{"x_min":69.4375,"x_max":315.28125,"ha":413,"o":"m 220 1078 b 126 983 168 1078 126 1035 b 158 911 126 958 137 935 l 179 911 b 69 710 176 843 133 760 l 118 660 b 315 983 195 698 315 846 b 220 1078 315 1035 273 1078 "},"-":{"x_min":69.4375,"x_max":518.0625,"ha":588,"o":"m 69 313 l 502 313 l 518 434 l 86 434 l 69 313 "},"Q":{"x_min":83.046875,"x_max":1040,"ha":1124,"o":"m 833 492 b 560 92 833 236 710 92 b 290 492 380 92 290 229 b 560 878 290 754 383 878 b 833 492 738 878 833 747 m 1038 485 b 560 994 1038 771 870 994 b 83 485 251 994 83 740 b 488 -19 83 242 194 5 b 274 -142 435 -59 360 -100 l 330 -236 b 583 -175 415 -200 494 -175 b 892 -267 703 -175 740 -267 l 1040 -129 l 977 -80 b 884 -116 935 -107 906 -116 b 659 -60 801 -116 776 -60 b 1038 485 953 50 1038 311 "},"ј":{"x_min":-62.5,"x_max":315.28125,"ha":418,"o":"m 45 648 l 63 563 l 140 563 l 140 133 b -62 -267 140 -15 123 -145 l -15 -347 b 315 111 262 -255 315 -77 l 315 648 l 233 663 l 45 648 m 216 968 b 126 877 168 968 126 927 b 216 787 126 829 168 787 b 306 877 266 787 306 829 b 216 968 306 927 266 968 "},"ě":{"x_min":55.78125,"x_max":714,"ha":763,"o":"m 250 408 b 411 576 262 508 321 576 b 539 448 483 576 539 530 b 534 408 539 436 537 422 l 250 408 m 441 86 b 246 322 322 86 248 184 l 683 322 b 714 439 700 351 714 401 b 411 663 714 575 577 663 b 55 325 212 663 55 537 b 434 -14 55 120 171 -14 b 702 80 526 -14 614 7 l 655 150 b 441 86 584 103 512 86 m 619 991 l 575 1021 l 411 884 l 244 1021 l 203 991 l 362 755 l 458 755 l 619 991 "},"œ":{"x_min":56,"x_max":1231,"ha":1279,"o":"m 958 86 b 762 322 839 86 765 183 l 1200 322 b 1231 438 1217 351 1231 401 b 928 663 1231 574 1094 663 b 664 563 822 663 729 627 b 403 663 604 627 514 663 b 56 324 192 663 56 531 b 403 -14 56 117 179 -14 b 662 77 517 -14 604 17 b 951 -15 724 17 818 -15 b 1219 79 1043 -15 1131 6 l 1172 149 b 958 86 1101 102 1029 86 m 403 576 b 572 340 503 576 568 488 l 572 329 b 403 73 572 174 508 73 b 235 329 294 73 235 176 b 403 576 235 481 300 576 m 767 408 b 928 576 779 508 837 576 b 1056 448 1000 576 1056 530 b 1051 408 1056 436 1054 422 l 767 408 "},"ӗ":{"x_min":55.828125,"x_max":714,"ha":763,"o":"m 404 913 b 225 993 333 913 268 940 l 175 958 b 404 793 204 877 286 793 b 634 958 523 793 605 877 l 583 993 b 404 913 540 940 476 913 m 250 408 b 411 576 262 508 321 576 b 539 448 483 576 539 530 b 534 408 539 436 537 422 l 250 408 m 441 86 b 246 322 322 86 248 183 l 683 322 b 714 438 700 351 714 401 b 411 663 714 575 577 663 b 55 325 212 663 55 537 b 434 -15 55 119 171 -15 b 702 79 526 -15 614 6 l 655 150 b 441 86 584 102 512 86 "},"#":{"x_min":37.5,"x_max":890.28125,"ha":928,"o":"m 545 972 l 529 987 l 425 987 l 295 662 l 84 662 l 84 554 l 254 554 l 197 406 l 45 406 l 45 297 l 152 297 l 37 0 l 54 -15 l 163 -15 l 286 297 l 488 297 l 373 0 l 388 -15 l 500 -15 l 622 297 l 851 297 l 851 406 l 665 406 l 722 554 l 890 554 l 890 662 l 763 662 l 881 972 l 865 987 l 759 987 l 631 662 l 427 662 l 545 972 m 386 554 l 590 554 l 531 406 l 329 406 l 386 554 "},"Џ":{"x_min":55.5625,"x_max":1062.5,"ha":1118,"o":"m 498 -241 l 601 -241 l 638 0 l 1045 0 l 1059 98 l 945 143 l 945 827 l 1062 875 l 1047 973 l 651 973 l 637 875 l 754 827 l 754 98 l 363 98 l 363 827 l 480 875 l 466 973 l 70 973 l 55 875 l 172 827 l 172 141 l 56 98 l 72 0 l 459 0 l 498 -241 "},"Å":{"x_min":21.0625,"x_max":1045.859375,"ha":1057,"o":"m 537 1291 b 384 1156 452 1291 384 1247 b 537 1025 384 1068 444 1025 b 690 1156 630 1025 690 1066 b 537 1291 690 1247 626 1291 m 537 1234 b 588 1158 568 1234 588 1200 b 537 1081 588 1118 569 1081 b 486 1158 505 1081 486 1118 b 537 1234 486 1198 507 1234 m 612 995 l 923 143 l 1045 98 l 1030 0 l 626 0 l 611 98 l 720 143 l 658 309 l 333 309 l 266 143 l 397 100 l 383 0 l 36 0 l 21 98 l 141 143 l 461 972 l 612 995 m 530 654 l 530 812 l 375 418 l 618 418 l 530 654 "},"ș":{"x_min":55.25,"x_max":571.90625,"ha":628,"o":"m 302 -49 b 226 -127 259 -49 226 -84 b 251 -186 226 -148 235 -167 l 274 -186 b 221 -272 270 -215 253 -247 l 260 -311 b 378 -127 320 -280 378 -220 b 302 -49 378 -83 345 -49 m 295 -13 b 571 187 463 -13 571 65 b 398 384 571 294 494 338 b 217 504 328 418 217 450 b 319 576 217 545 263 576 b 423 562 352 576 389 570 l 452 455 l 546 472 l 546 605 b 333 663 487 641 409 663 b 58 483 166 663 58 601 b 274 261 58 362 183 304 b 412 148 337 232 412 193 b 284 73 412 97 352 73 b 195 87 266 73 217 79 l 148 225 l 55 207 l 55 43 b 295 -13 134 4 234 -13 "},"Ѵ":{"x_min":6.9375,"x_max":980.5625,"ha":988,"o":"m 859 808 b 980 901 894 899 970 901 l 980 994 b 765 862 909 994 801 959 l 516 205 l 516 362 l 336 827 l 443 873 l 427 972 l 23 972 l 6 873 l 130 827 l 451 -14 l 562 0 l 859 808 "},"Ә":{"x_min":83.328125,"x_max":966.671875,"ha":1050,"o":"m 752 426 b 522 93 750 259 680 93 b 286 318 372 93 286 194 b 309 426 286 355 295 394 l 752 426 m 966 486 b 472 995 966 741 811 995 b 130 906 348 995 234 966 l 130 690 l 229 675 l 294 859 b 472 879 345 870 426 879 b 756 551 631 879 748 754 l 147 551 b 83 333 118 498 83 416 b 522 -23 83 98 258 -23 b 966 486 816 -23 966 165 "},"¸":{"x_min":226.390625,"x_max":458.328125,"ha":622,"o":"m 254 -306 b 458 -156 337 -306 458 -269 b 344 -54 458 -83 390 -56 l 344 20 l 258 20 l 258 -120 l 300 -120 b 340 -163 326 -120 340 -140 b 226 -229 340 -201 298 -229 l 254 -306 "},"=":{"x_min":111.109375,"x_max":773.609375,"ha":885,"o":"m 773 597 l 127 597 l 111 481 l 755 481 l 773 597 m 773 336 l 127 336 l 111 220 l 755 220 l 773 336 "},"Ћ":{"x_min":55.5625,"x_max":1111.109375,"ha":1139,"o":"m 55 688 l 154 673 l 227 873 l 375 873 l 375 141 l 258 98 l 272 0 l 669 0 l 683 98 l 566 141 l 566 474 b 727 519 613 495 683 519 b 834 403 781 519 834 476 l 834 64 l 847 0 l 1095 0 l 1111 84 l 1022 114 l 1022 383 b 738 621 1022 538 898 621 b 566 576 680 621 622 602 l 566 873 l 715 873 l 788 673 l 887 688 l 887 972 l 55 972 l 55 688 "},"ú":{"x_min":41.328125,"x_max":796.890625,"ha":818,"o":"m 592 998 l 458 1064 l 356 811 l 417 779 l 592 998 m 533 139 b 414 86 505 105 452 86 b 288 226 358 86 288 122 l 288 644 l 208 664 l 41 645 l 56 564 l 113 564 l 113 239 b 366 -15 113 87 206 -15 b 549 32 434 -15 496 -5 l 591 0 l 780 0 l 796 84 l 708 115 l 708 643 l 638 664 l 459 645 l 474 564 l 533 564 l 533 139 "},"˚":{"x_min":33.328125,"x_max":338.890625,"ha":385,"o":"m 186 1291 b 33 1156 101 1291 33 1247 b 186 1025 33 1068 93 1025 b 338 1156 279 1025 338 1066 b 186 1291 338 1247 275 1291 m 186 1234 b 237 1158 216 1234 237 1200 b 186 1081 237 1118 218 1081 b 134 1158 154 1081 134 1118 b 186 1234 134 1198 155 1234 "},"д":{"x_min":14.265625,"x_max":711.484375,"ha":767,"o":"m 621 84 l 621 532 l 711 563 l 694 648 l 118 648 l 101 563 l 192 532 b 85 84 190 344 158 160 l 14 84 l 14 -164 l 108 -181 l 161 0 l 547 0 l 601 -181 l 694 -172 l 694 84 l 621 84 m 446 84 l 210 84 b 301 563 275 192 301 355 l 446 563 l 446 84 "},"ӥ":{"x_min":49.984375,"x_max":863.96875,"ha":913,"o":"m 586 968 b 496 877 537 968 496 927 b 586 787 496 829 537 787 b 676 877 634 787 676 829 b 586 968 676 927 634 968 m 326 968 b 236 877 277 968 236 927 b 326 787 236 829 277 787 b 416 877 376 787 416 829 b 326 968 416 927 376 968 m 313 134 l 633 413 l 600 312 l 600 115 l 509 84 l 526 0 l 844 0 l 861 84 l 773 115 l 773 533 l 863 563 l 847 648 l 526 648 l 509 563 l 600 533 l 600 509 l 280 230 l 313 331 l 313 533 l 405 563 l 389 648 l 66 648 l 49 563 l 140 533 l 140 115 l 52 84 l 69 0 l 384 0 l 401 84 l 313 115 l 313 134 "},"¯":{"x_min":125,"x_max":598.609375,"ha":725,"o":"m 125 1059 l 598 1059 l 598 1151 l 125 1151 l 125 1059 "},"u":{"x_min":41.671875,"x_max":797.21875,"ha":818,"o":"m 533 139 b 415 86 505 105 452 86 b 288 226 358 86 288 122 l 288 644 l 208 664 l 41 645 l 56 564 l 113 564 l 113 239 b 366 -15 113 87 206 -15 b 550 32 434 -15 497 -5 l 591 0 l 780 0 l 797 84 l 708 115 l 708 643 l 638 664 l 459 645 l 475 564 l 533 564 l 533 139 "},"Ȍ":{"x_min":83.328125,"x_max":1040.28125,"ha":1124,"o":"m 452 1052 l 493 1090 l 320 1307 l 208 1208 l 452 1052 m 687 1052 l 727 1090 l 555 1307 l 443 1208 l 687 1052 m 562 995 b 83 486 252 995 83 741 b 562 -23 83 230 230 -23 b 1040 486 894 -23 1040 200 b 562 995 1040 772 872 995 m 562 879 b 834 493 740 879 834 748 b 562 93 834 237 744 93 b 291 493 381 93 291 230 b 562 879 291 755 384 879 "},"З":{"x_min":33.28125,"x_max":724.953125,"ha":794,"o":"m 343 -23 b 724 286 604 -23 724 123 b 544 543 724 418 644 504 b 677 754 623 580 677 651 b 341 995 677 888 581 995 b 47 905 262 995 148 963 l 47 690 l 145 675 l 212 859 b 341 879 251 872 304 879 b 470 741 419 879 470 830 b 304 590 470 655 381 590 l 241 590 l 241 480 l 329 480 b 518 301 438 480 518 405 b 343 93 518 179 445 93 b 197 122 291 93 240 105 l 133 305 l 33 291 l 33 66 b 343 -23 111 11 229 -23 "},"é":{"x_min":55.671875,"x_max":714,"ha":763,"o":"m 589 998 l 454 1064 l 352 811 l 414 779 l 589 998 m 250 408 b 411 576 262 508 320 576 b 539 448 483 576 539 530 b 534 408 539 436 537 422 l 250 408 m 441 86 b 245 322 322 86 248 183 l 683 322 b 714 438 700 351 714 401 b 411 663 714 575 577 663 b 55 325 212 663 55 537 b 434 -15 55 119 170 -15 b 702 79 526 -15 614 6 l 655 150 b 441 86 584 102 512 86 "},"Ş":{"x_min":69.4375,"x_max":747.21875,"ha":808,"o":"m 69 731 b 312 422 69 537 205 475 b 573 211 408 375 573 320 b 370 93 573 136 483 93 b 243 123 334 93 275 108 l 172 305 l 73 291 l 73 66 b 345 -22 143 16 243 -16 l 345 -120 l 387 -120 b 427 -163 413 -120 427 -140 b 313 -229 427 -201 386 -229 l 341 -306 b 545 -156 425 -306 545 -269 b 431 -54 545 -83 477 -56 l 431 -20 b 747 254 644 -5 747 104 b 462 573 747 420 608 512 b 244 755 409 600 244 654 b 408 879 244 833 306 879 b 540 861 450 879 502 872 l 605 675 l 705 690 l 705 906 b 408 995 619 958 516 995 b 69 731 230 995 69 908 "},"↓":{"x_min":36.109375,"x_max":593.0625,"ha":615,"o":"m 273 13 l 338 0 l 593 426 l 527 476 l 312 227 l 101 475 l 36 427 l 273 13 m 365 1000 l 251 1000 l 251 380 l 365 380 l 365 1000 "},"B":{"x_min":48.21875,"x_max":907.9375,"ha":978,"o":"m 356 873 l 462 873 b 610 726 570 873 610 802 b 473 588 610 650 549 588 l 414 588 l 414 480 l 517 480 b 701 293 624 480 701 394 b 548 98 701 191 638 98 l 356 98 l 356 873 m 585 0 b 907 279 784 0 907 125 b 712 544 907 402 824 508 b 817 738 774 586 817 656 b 564 972 817 866 707 972 l 63 972 l 48 873 l 164 827 l 164 141 l 49 98 l 64 0 l 585 0 "},"…":{"x_min":69.4375,"x_max":851.390625,"ha":921,"o":"m 459 166 b 365 72 408 166 365 123 b 459 -23 365 19 408 -23 b 555 72 512 -23 555 19 b 459 166 555 123 512 166 m 755 166 b 661 72 704 166 661 123 b 755 -23 661 19 704 -23 b 851 72 808 -23 851 19 b 755 166 851 123 808 166 m 163 166 b 69 72 112 166 69 123 b 163 -23 69 19 112 -23 b 259 72 216 -23 259 19 b 163 166 259 123 216 166 "},"H":{"x_min":55.5625,"x_max":1083.328125,"ha":1139,"o":"m 1083 873 l 1069 972 l 672 972 l 658 873 l 775 827 l 775 554 l 363 554 l 363 827 l 480 873 l 466 972 l 69 972 l 55 873 l 172 827 l 172 141 l 56 98 l 72 0 l 463 0 l 477 98 l 363 141 l 363 447 l 775 447 l 775 141 l 658 98 l 672 0 l 1066 0 l 1081 98 l 966 143 l 966 827 l 1083 873 "},"î":{"x_min":23.609375,"x_max":440.28125,"ha":464,"o":"m 279 1020 l 183 1020 l 23 784 l 65 755 l 231 891 l 395 755 l 440 784 l 279 1020 m 408 86 l 391 0 l 72 0 l 55 86 l 144 115 l 144 563 l 80 563 l 65 648 l 234 663 l 319 648 l 319 115 l 408 86 "},"ā":{"x_min":43.0625,"x_max":691.671875,"ha":706,"o":"m 106 805 l 580 805 l 580 897 l 106 897 l 106 805 m 94 605 b 327 663 175 645 258 663 b 613 402 506 663 613 570 l 613 115 l 691 84 l 675 0 l 498 0 l 456 32 b 277 -15 415 2 358 -15 b 43 177 152 -15 43 51 b 438 410 43 366 263 410 l 438 458 b 320 576 438 537 381 576 b 218 561 287 576 244 568 l 187 455 l 94 472 l 94 605 m 438 323 b 233 190 309 323 233 269 b 329 86 233 111 290 86 b 438 141 366 86 415 107 l 438 323 "},"ĵ":{"x_min":-62.5,"x_max":412.5,"ha":418,"o":"m 251 1020 l 155 1020 l -4 784 l 37 755 l 204 891 l 368 755 l 412 784 l 251 1020 m 45 648 l 63 563 l 140 563 l 140 133 b -62 -267 140 -15 123 -145 l -15 -347 b 315 111 262 -255 315 -77 l 315 648 l 233 663 l 45 648 "},"ӭ":{"x_min":41.671875,"x_max":648.609375,"ha":704,"o":"m 220 286 l 456 286 b 265 74 445 170 387 74 b 173 88 240 74 198 78 l 136 225 l 41 207 l 41 42 b 275 -13 119 6 204 -13 b 648 324 526 -13 648 120 b 273 663 648 538 493 663 b 41 607 205 663 122 646 l 41 472 l 136 456 b 165 560 143 485 156 529 b 269 575 195 571 241 575 b 458 377 376 575 452 504 l 220 377 l 220 286 m 413 968 b 323 878 365 968 323 928 b 413 788 323 829 365 788 b 504 878 462 788 504 829 b 413 968 504 928 462 968 m 152 968 b 62 878 104 968 62 928 b 152 788 62 829 104 788 b 243 878 202 788 243 829 b 152 968 243 928 202 968 "},"Ĩ":{"x_min":72.21875,"x_max":550,"ha":594,"o":"m 420 1050 l 550 1209 l 508 1239 l 387 1180 l 248 1236 l 201 1236 l 72 1076 l 116 1047 l 231 1119 l 370 1050 l 420 1050 m 393 827 l 511 873 l 494 972 l 100 972 l 83 873 l 201 827 l 201 141 l 83 98 l 100 0 l 494 0 l 511 98 l 393 141 l 393 827 "},"←":{"x_min":113.890625,"x_max":1113.890625,"ha":1199,"o":"m 541 101 l 588 166 l 341 377 l 590 592 l 540 658 l 113 403 l 127 338 l 541 101 m 494 430 l 494 316 l 1113 316 l 1113 430 l 494 430 "},"*":{"x_min":69.4375,"x_max":605.5625,"ha":675,"o":"m 134 884 l 79 834 l 69 716 b 270 680 137 684 204 680 b 111 564 233 637 175 593 l 159 501 l 268 460 b 355 641 308 509 337 578 b 398 466 379 597 393 532 l 468 471 l 550 564 b 402 715 515 622 459 675 b 490 723 440 721 465 723 b 590 714 518 723 545 721 l 605 782 l 537 884 b 363 787 473 868 413 827 b 427 964 370 841 394 907 l 359 996 l 241 966 b 240 908 240 946 240 927 b 275 766 240 866 258 812 b 134 884 227 789 176 834 "},"ă":{"x_min":42.890625,"x_max":691.78125,"ha":706,"o":"m 355 913 b 176 993 284 913 219 940 l 126 958 b 355 793 155 877 237 793 b 586 958 475 793 557 877 l 534 993 b 355 913 491 940 427 913 m 94 472 l 187 455 l 217 561 b 320 576 244 568 287 576 b 438 458 381 576 438 537 l 438 409 b 42 177 263 409 42 366 b 277 -15 42 51 152 -15 b 456 32 358 -15 415 2 l 498 0 l 675 0 l 691 84 l 614 115 l 614 402 b 327 663 614 570 507 663 b 94 605 258 663 174 645 l 94 472 m 438 141 b 329 86 415 107 366 86 b 233 190 290 86 233 111 b 438 323 233 269 309 323 l 438 141 "},"†":{"x_min":41.671875,"x_max":675,"ha":717,"o":"m 429 594 l 643 546 l 675 611 l 650 733 l 427 689 l 455 972 l 383 996 l 261 972 l 287 689 l 73 737 l 41 672 l 66 550 l 288 594 l 315 -180 l 397 -180 l 429 594 "},"°":{"x_min":83.328125,"x_max":454.171875,"ha":538,"o":"m 270 995 b 83 809 166 995 83 911 b 270 625 83 711 161 625 b 454 809 370 625 454 708 b 270 995 454 918 369 995 m 270 891 b 350 809 312 891 350 855 b 270 730 350 765 312 730 b 188 809 225 730 188 763 b 270 891 188 855 223 891 "},"Ķ":{"x_min":48.96875,"x_max":989.34375,"ha":1011,"o":"m 561 -49 b 485 -127 518 -49 485 -84 b 510 -186 485 -148 494 -167 l 533 -186 b 480 -272 529 -215 512 -247 l 519 -311 b 637 -127 579 -280 637 -220 b 561 -49 637 -83 604 -49 m 357 827 l 473 873 l 460 972 l 64 972 l 48 875 l 165 827 l 165 144 l 48 98 l 62 0 l 460 0 l 473 100 l 357 144 l 357 827 m 668 0 l 974 0 l 989 98 l 868 143 l 640 479 l 546 523 l 792 773 b 971 873 824 806 886 850 l 956 972 l 621 972 l 604 873 l 692 827 l 415 545 l 415 472 l 681 75 l 668 0 "},"ŵ":{"x_min":16.671875,"x_max":1131.953125,"ha":1154,"o":"m 650 1020 l 554 1020 l 394 784 l 436 755 l 602 891 l 766 755 l 811 784 l 650 1020 m 713 -14 l 863 0 l 1036 533 l 1131 563 l 1115 648 l 868 648 l 851 563 l 934 533 l 811 174 l 811 266 l 684 665 l 543 647 l 380 147 l 380 266 l 291 533 l 373 563 l 356 648 l 33 648 l 16 563 l 112 533 l 283 -14 l 440 0 l 594 467 l 594 356 l 713 -14 "},"ǽ":{"x_min":40,"x_max":1094,"ha":1143,"o":"m 821 86 b 626 322 702 86 628 183 l 1063 322 b 1094 438 1080 351 1094 401 b 791 663 1094 575 957 663 b 548 582 696 663 612 634 b 324 663 499 636 423 663 b 91 605 255 663 171 645 l 91 472 l 184 455 l 214 561 b 317 576 241 568 284 576 b 435 458 378 576 435 537 l 435 409 b 40 177 260 409 40 366 b 274 -15 40 51 149 -15 b 546 58 370 -15 466 2 b 814 -15 609 11 696 -15 b 1082 79 906 -15 994 6 l 1035 150 b 821 86 964 102 892 86 m 435 141 b 326 86 412 106 363 86 b 230 190 287 86 230 111 b 435 323 230 269 306 323 l 435 141 m 630 408 b 791 576 642 508 701 576 b 919 448 863 576 919 530 b 914 408 919 436 917 422 l 630 408 m 795 998 l 660 1064 l 559 811 l 620 779 l 795 998 "},"Ļ":{"x_min":48.609375,"x_max":800,"ha":814,"o":"m 444 -49 b 520 -127 487 -49 520 -83 b 402 -311 520 -220 462 -280 l 363 -272 b 416 -186 395 -247 412 -215 l 393 -186 b 368 -127 377 -167 368 -148 b 444 -49 368 -84 401 -49 m 62 972 l 48 873 l 165 827 l 165 143 l 48 98 l 62 0 l 800 0 l 800 293 l 701 307 l 625 98 l 356 98 l 356 827 l 475 873 l 459 972 l 62 972 "},"Õ":{"x_min":83.328125,"x_max":1040.28125,"ha":1124,"o":"m 670 1050 l 800 1209 l 758 1239 l 637 1180 l 498 1236 l 451 1236 l 322 1076 l 366 1047 l 481 1119 l 620 1050 l 670 1050 m 562 995 b 83 486 252 995 83 741 b 562 -23 83 230 230 -23 b 1040 486 894 -23 1040 200 b 562 995 1040 772 872 995 m 562 879 b 834 493 740 879 834 748 b 562 93 834 237 744 93 b 291 493 381 93 291 230 b 562 879 291 755 384 879 "},"№":{"x_min":48.609375,"x_max":1512.5,"ha":1561,"o":"m 1069 228 l 1491 228 l 1491 335 l 1069 335 l 1069 228 m 1280 412 b 1512 653 1436 412 1512 502 b 1280 894 1512 804 1426 894 b 1047 653 1133 894 1047 801 b 1280 412 1047 506 1123 412 m 1280 810 b 1376 656 1343 810 1376 758 b 1280 494 1376 552 1344 494 b 1183 656 1216 494 1183 553 b 1280 810 1183 756 1218 810 m 50 98 l 65 0 l 372 0 l 387 98 l 272 141 l 272 738 l 783 -24 l 898 0 l 898 827 l 1013 873 l 1000 972 l 690 972 l 676 873 l 791 827 l 791 251 l 741 395 l 351 972 l 62 972 l 48 873 l 165 827 l 165 142 l 50 98 "},"Ҙ":{"x_min":33.515625,"x_max":725.1875,"ha":794,"o":"m 261 -306 b 465 -156 344 -306 465 -269 b 351 -54 465 -83 397 -56 l 351 -23 b 725 286 607 -20 725 125 b 544 543 725 418 644 504 b 677 754 623 580 677 651 b 341 995 677 888 582 995 b 47 905 262 995 148 963 l 47 690 l 146 675 l 212 859 b 341 879 251 872 304 879 b 471 741 419 879 471 830 b 304 590 471 655 382 590 l 241 590 l 241 480 l 329 480 b 518 301 439 480 518 405 b 343 93 518 179 446 93 b 197 122 291 93 240 105 l 133 305 l 33 291 l 33 66 b 265 -18 93 23 177 -6 l 265 -120 l 307 -120 b 347 -163 333 -120 347 -140 b 233 -229 347 -201 305 -229 l 261 -306 "},"Ľ":{"x_min":48.609375,"x_max":800,"ha":814,"o":"m 609 812 b 686 734 652 812 686 779 b 568 551 686 641 627 581 l 529 590 b 581 676 561 615 577 647 l 558 676 b 533 734 543 694 533 713 b 609 812 533 777 566 812 m 62 972 l 48 873 l 165 827 l 165 143 l 48 98 l 62 0 l 800 0 l 800 293 l 701 306 l 625 98 l 356 98 l 356 827 l 475 873 l 459 972 l 62 972 "},"ť":{"x_min":13.5625,"x_max":628.859375,"ha":519,"o":"m 281 795 l 177 819 l 117 672 l 13 640 l 27 563 l 106 563 l 106 173 b 319 -13 106 68 180 -13 b 519 79 406 -13 464 23 l 459 152 b 341 86 421 112 376 86 b 281 162 316 86 281 115 l 281 563 l 448 563 l 464 648 l 281 648 l 281 795 m 552 954 b 476 876 509 954 476 919 b 501 818 476 855 485 836 l 524 818 b 471 731 520 788 503 756 l 510 693 b 628 876 570 723 628 783 b 552 954 628 920 595 954 "},"5":{"x_min":40.28125,"x_max":638.890625,"ha":733,"o":"m 256 749 l 615 749 l 615 975 l 522 994 l 491 898 l 166 898 l 111 466 l 186 435 b 319 477 225 460 268 477 b 458 291 413 477 458 403 b 305 88 458 155 386 88 b 95 171 240 88 158 123 l 40 87 b 313 -14 113 20 220 -14 b 638 295 497 -14 638 92 b 363 580 638 496 486 580 b 230 548 320 580 269 569 l 256 749 "},"o":{"x_min":55.5625,"x_max":748.609375,"ha":804,"o":"m 402 663 b 55 325 191 663 55 531 b 402 -13 55 118 179 -13 b 748 325 627 -13 748 112 b 402 663 748 537 612 663 m 402 576 b 572 329 505 576 572 484 b 402 73 572 175 508 73 b 234 329 294 73 234 176 b 402 576 234 481 300 576 "},"Ѕ":{"x_min":69.4375,"x_max":747.21875,"ha":808,"o":"m 69 731 b 312 422 69 537 205 475 b 573 211 408 375 573 320 b 370 93 573 136 483 93 b 243 123 334 93 275 108 l 172 305 l 73 291 l 73 66 b 380 -23 151 11 266 -23 b 747 254 629 -23 747 93 b 462 573 747 420 608 512 b 244 755 409 600 244 654 b 408 879 244 833 306 879 b 540 861 450 879 502 872 l 605 675 l 705 690 l 705 906 b 408 995 619 958 516 995 b 69 731 230 995 69 908 "},"d":{"x_min":48.609375,"x_max":786.109375,"ha":793,"o":"m 520 129 b 401 86 490 98 443 86 b 237 333 306 86 237 187 b 408 564 237 477 300 564 b 520 536 443 564 491 552 l 520 129 m 580 0 l 769 0 l 786 84 l 695 115 l 695 1017 l 613 1038 l 430 1017 l 445 937 l 520 937 l 520 645 b 400 663 484 656 436 663 b 48 319 193 663 48 525 b 393 -15 48 114 169 -15 b 538 32 447 -15 508 7 l 580 0 "},",":{"x_min":13.890625,"x_max":259.71875,"ha":329,"o":"m 165 167 b 70 72 112 167 70 124 b 102 0 70 47 81 24 l 123 0 b 13 -201 120 -67 77 -151 l 62 -251 b 259 72 140 -212 259 -64 b 165 167 259 124 218 167 "},"ѣ":{"x_min":13.890625,"x_max":780.5625,"ha":829,"o":"m 525 564 l 556 456 l 651 472 l 651 649 l 415 649 l 415 1019 l 333 1038 l 148 1021 l 163 938 l 240 938 l 240 649 l 13 649 l 13 472 l 106 456 l 138 564 l 240 564 l 240 115 l 152 85 l 168 0 l 587 0 b 780 194 693 0 780 92 b 525 400 780 357 629 400 l 475 400 l 475 314 l 488 314 b 590 204 550 314 590 269 b 488 85 590 138 550 85 l 415 85 l 415 564 l 525 564 "},"\"":{"x_min":40.28125,"x_max":455.5625,"ha":496,"o":"m 165 586 l 218 972 l 155 996 l 40 972 l 91 586 l 165 586 m 402 586 l 455 972 l 393 996 l 277 972 l 329 586 l 402 586 "},"ľ":{"x_min":55.359375,"x_max":542.859375,"ha":478,"o":"m 466 954 b 542 876 509 954 542 921 b 424 693 542 783 484 724 l 385 732 b 438 818 417 757 434 789 l 415 818 b 390 876 399 836 390 856 b 466 954 390 919 423 954 m 326 115 l 326 1017 l 244 1038 l 63 1017 l 78 938 l 151 938 l 151 115 l 55 85 l 72 0 l 405 0 l 422 85 l 326 115 "},"Ӳ":{"x_min":6.9375,"x_max":894.453125,"ha":797,"o":"m 777 1208 l 665 1307 l 493 1090 l 533 1052 l 777 1208 m 543 1208 l 430 1307 l 258 1090 l 298 1052 l 543 1208 m 769 830 l 894 873 l 876 972 l 565 972 l 548 873 l 654 831 l 473 387 l 473 544 l 338 831 l 445 873 l 430 972 l 25 972 l 6 873 l 127 830 l 388 255 l 419 248 l 413 231 b 162 108 379 148 237 108 l 177 2 l 381 -24 b 495 144 440 13 470 81 l 769 830 "},"ė":{"x_min":55.671875,"x_max":714,"ha":763,"o":"m 408 968 b 318 877 361 968 318 927 b 408 787 318 829 361 787 b 498 877 458 787 498 829 b 408 968 498 927 458 968 m 250 408 b 411 576 262 508 320 576 b 539 448 483 576 539 530 b 534 408 539 436 537 422 l 250 408 m 441 86 b 245 322 322 86 248 183 l 683 322 b 714 438 700 351 714 401 b 411 663 714 575 577 663 b 55 325 212 663 55 537 b 434 -15 55 119 170 -15 b 702 79 526 -15 614 6 l 655 150 b 441 86 584 102 512 86 "},"ҙ":{"x_min":34.65625,"x_max":549.9375,"ha":604,"o":"m 198 -306 b 402 -156 281 -306 402 -269 b 288 -54 402 -83 334 -56 l 288 -13 b 549 193 456 -8 549 91 b 437 362 549 277 501 336 b 518 501 487 388 518 434 b 276 663 518 591 420 663 b 43 605 208 663 122 644 l 43 473 l 136 456 l 165 561 b 258 576 188 569 231 576 b 343 495 299 576 343 555 b 238 398 343 437 284 398 l 187 398 l 187 312 l 252 312 b 374 198 316 312 374 262 b 261 73 374 129 326 73 b 166 87 238 73 191 77 l 129 225 l 34 206 l 34 43 b 202 -8 88 16 148 0 l 202 -120 l 244 -120 b 284 -163 270 -120 284 -140 b 170 -229 284 -201 242 -229 l 198 -306 "},"Í":{"x_min":82.984375,"x_max":510.765625,"ha":594,"o":"m 502 1208 l 389 1307 l 217 1090 l 257 1052 l 502 1208 m 392 827 l 510 873 l 494 972 l 99 972 l 82 873 l 201 827 l 201 141 l 82 98 l 99 0 l 494 0 l 510 98 l 392 141 l 392 827 "},"Ú":{"x_min":41.671875,"x_max":1020.828125,"ha":1042,"o":"m 790 1208 l 677 1307 l 505 1090 l 545 1052 l 790 1208 m 543 -23 b 904 415 722 -23 904 55 l 904 827 l 1020 873 l 1006 972 l 695 972 l 679 873 l 798 827 l 798 404 b 565 93 798 197 712 93 b 350 406 419 93 350 184 l 350 827 l 466 873 l 452 972 l 55 972 l 41 873 l 158 827 l 158 415 b 543 -23 158 52 351 -23 "},"Ŷ":{"x_min":6.875,"x_max":944.609375,"ha":951,"o":"m 551 1288 l 455 1288 l 295 1052 l 337 1023 l 504 1159 l 668 1023 l 712 1052 l 551 1288 m 404 356 l 129 827 l 6 873 l 22 972 l 437 972 l 452 872 l 348 827 l 495 583 l 495 495 l 696 827 l 594 873 l 608 972 l 929 972 l 944 873 l 819 827 l 596 447 l 596 141 l 711 98 l 694 0 l 302 0 l 287 98 l 404 141 l 404 356 "},"":{"x_min":88.84375,"x_max":636.0625,"ha":696,"o":"m 315 -82 b 215 -65 283 -82 240 -74 l 179 64 l 88 48 l 88 -125 b 318 -181 165 -162 240 -181 b 636 100 490 -181 636 -85 b 383 341 636 277 484 334 l 587 573 l 541 648 l 98 648 l 98 421 l 191 403 l 216 493 l 330 493 l 423 523 l 208 277 l 248 224 l 305 235 b 463 92 394 235 463 203 b 315 -82 463 -22 391 -82 "},"Ý":{"x_min":6.828125,"x_max":944.609375,"ha":951,"o":"m 721 1208 l 608 1307 l 436 1090 l 476 1052 l 721 1208 m 404 141 l 287 98 l 302 0 l 694 0 l 711 98 l 596 141 l 596 447 l 819 827 l 944 873 l 929 972 l 608 972 l 594 873 l 696 827 l 495 495 l 495 583 l 348 827 l 452 872 l 437 972 l 22 972 l 6 873 l 129 827 l 404 356 l 404 141 "},"ŝ":{"x_min":55.28125,"x_max":571.953125,"ha":628,"o":"m 295 -13 b 55 43 234 -13 134 4 l 55 206 l 148 225 l 195 87 b 284 73 217 79 266 73 b 412 148 352 73 412 97 b 274 261 412 193 337 231 b 58 483 183 304 58 362 b 333 663 58 601 166 663 b 546 605 409 663 487 641 l 546 472 l 452 455 l 423 562 b 319 576 390 570 352 576 b 217 504 263 576 217 545 b 398 384 217 450 328 418 b 571 187 494 338 571 294 b 295 -13 571 65 463 -13 m 351 1020 l 255 1020 l 95 784 l 137 755 l 303 891 l 467 755 l 512 784 l 351 1020 "},"ą":{"x_min":43.265625,"x_max":691.875,"ha":706,"o":"m 94 472 l 187 455 l 218 561 b 321 576 244 568 287 576 b 439 458 382 576 439 537 l 439 409 b 43 177 264 409 43 366 b 277 -15 43 51 152 -15 b 457 32 358 -15 415 2 l 498 0 l 544 0 b 439 -140 493 -27 439 -69 b 580 -273 439 -220 497 -273 b 676 -256 591 -273 633 -272 l 652 -156 b 609 -163 639 -161 626 -163 b 552 -117 576 -163 552 -152 b 675 0 552 -77 600 -36 l 691 84 l 614 115 l 614 402 b 327 663 614 570 507 663 b 94 605 258 663 175 645 l 94 472 m 439 141 b 329 86 415 107 366 86 b 233 190 290 86 233 111 b 439 323 233 269 309 323 l 439 141 "},"ѵ":{"x_min":27.78125,"x_max":769.453125,"ha":790,"o":"m 662 516 b 769 580 673 547 720 573 l 752 668 b 566 537 683 658 597 616 l 415 137 l 415 266 l 311 533 l 386 563 l 372 648 l 43 648 l 27 563 l 120 533 l 341 -17 l 469 0 l 662 516 "},"ӟ":{"x_min":35.65625,"x_max":550.9375,"ha":604,"o":"m 405 968 b 314 877 356 968 314 927 b 405 787 314 829 356 787 b 495 877 453 787 495 829 b 405 968 495 927 453 968 m 144 968 b 53 877 95 968 53 927 b 144 787 53 829 95 787 b 234 877 194 787 234 829 b 144 968 234 927 194 968 m 275 -13 b 550 193 453 -13 550 88 b 438 362 550 277 502 336 b 519 501 488 388 519 434 b 277 663 519 591 421 663 b 44 605 209 663 123 644 l 44 473 l 137 456 l 166 561 b 259 576 189 569 232 576 b 344 495 300 576 344 555 b 239 398 344 437 285 398 l 188 398 l 188 312 l 253 312 b 375 198 317 312 375 262 b 262 73 375 129 327 73 b 167 87 239 73 192 77 l 130 225 l 35 206 l 35 43 b 275 -13 116 4 209 -13 "},"ȁ":{"x_min":43.171875,"x_max":691.78125,"ha":706,"o":"m 430 779 l 491 811 l 390 1064 l 255 998 l 430 779 m 226 779 l 287 811 l 186 1064 l 51 998 l 226 779 m 94 605 b 327 663 175 645 258 663 b 614 402 507 663 614 570 l 614 115 l 691 84 l 675 0 l 498 0 l 457 32 b 277 -15 415 2 358 -15 b 43 177 152 -15 43 51 b 439 409 43 366 264 409 l 439 458 b 320 576 439 537 382 576 b 218 561 287 576 244 568 l 187 455 l 94 472 l 94 605 m 439 323 b 233 190 309 323 233 269 b 329 86 233 111 290 86 b 439 141 366 86 415 107 l 439 323 "},"ȍ":{"x_min":55.5625,"x_max":748.609375,"ha":804,"o":"m 486 779 l 547 811 l 445 1064 l 311 998 l 486 779 m 281 779 l 343 811 l 241 1064 l 106 998 l 281 779 m 402 663 b 55 325 191 663 55 531 b 402 -13 55 118 179 -13 b 748 325 627 -13 748 112 b 402 663 748 537 612 663 m 402 576 b 572 329 505 576 572 484 b 402 73 572 175 508 73 b 234 329 294 73 234 176 b 402 576 234 481 300 576 "},"ã":{"x_min":42.890625,"x_max":691.78125,"ha":706,"o":"m 459 782 l 589 941 l 547 971 l 426 912 l 287 968 l 240 968 l 110 808 l 155 779 l 270 851 l 409 782 l 459 782 m 94 472 l 187 455 l 217 561 b 320 576 244 568 287 576 b 438 458 381 576 438 537 l 438 409 b 42 177 263 409 42 366 b 277 -15 42 51 152 -15 b 456 32 358 -15 415 2 l 498 0 l 675 0 l 691 84 l 614 115 l 614 402 b 327 663 614 570 507 663 b 94 605 258 663 174 645 l 94 472 m 438 141 b 329 86 415 107 366 86 b 233 190 290 86 233 111 b 438 323 233 269 309 323 l 438 141 "},"æ":{"x_min":42.828125,"x_max":1097,"ha":1146,"o":"m 824 86 b 628 322 705 86 631 183 l 1066 322 b 1097 438 1083 351 1097 401 b 794 663 1097 575 960 663 b 551 582 699 663 615 634 b 327 663 502 636 426 663 b 94 605 258 663 174 645 l 94 472 l 187 455 l 217 561 b 320 576 244 568 287 576 b 438 458 381 576 438 537 l 438 409 b 42 177 263 409 42 366 b 277 -15 42 51 152 -15 b 549 58 373 -15 469 2 b 817 -15 612 11 699 -15 b 1085 79 909 -15 997 6 l 1038 150 b 824 86 967 102 895 86 m 438 141 b 328 86 415 106 366 86 b 233 190 290 86 233 111 b 438 323 233 269 309 323 l 438 141 m 633 408 b 794 576 645 508 703 576 b 922 448 866 576 922 530 b 917 408 922 436 920 422 l 633 408 "},"ĩ":{"x_min":-6.9375,"x_max":470.828125,"ha":464,"o":"m 341 782 l 470 941 l 429 971 l 308 912 l 169 968 l 122 968 l -6 808 l 37 779 l 152 851 l 291 782 l 341 782 m 319 115 l 319 648 l 234 664 l 65 648 l 80 564 l 144 564 l 144 115 l 55 86 l 72 0 l 391 0 l 408 86 l 319 115 "},"~":{"x_min":76.390625,"x_max":779.171875,"ha":856,"o":"m 720 496 b 593 434 686 462 634 434 b 318 487 505 434 404 487 b 76 333 206 487 136 432 l 140 292 b 275 357 166 321 218 357 b 552 300 368 357 454 300 b 779 446 643 300 720 343 l 720 496 "},"ŀ":{"x_min":55.5625,"x_max":569.4375,"ha":478,"o":"m 479 649 b 569 558 529 649 569 608 b 479 468 569 510 529 468 b 388 558 431 468 388 510 b 479 649 388 608 431 649 m 326 115 l 326 1017 l 244 1038 l 63 1017 l 79 938 l 151 938 l 151 115 l 55 85 l 72 0 l 405 0 l 422 85 l 326 115 "},"Ċ":{"x_min":41.671875,"x_max":879.171875,"ha":901,"o":"m 552 1215 b 462 1125 505 1215 462 1175 b 552 1034 462 1076 505 1034 b 643 1125 602 1034 643 1076 b 552 1215 643 1175 602 1215 m 550 93 b 250 493 312 93 250 304 b 550 879 250 755 356 879 b 715 856 595 879 665 870 l 779 675 l 879 690 l 879 906 b 550 995 775 966 673 995 b 41 486 211 995 41 741 b 550 -23 41 230 188 -23 b 879 66 663 -23 801 11 l 879 291 l 780 305 l 709 112 b 550 93 663 100 590 93 "},"Ӥ":{"x_min":55.59375,"x_max":1117.828125,"ha":1174,"o":"m 363 179 l 862 650 l 808 504 l 808 141 l 694 98 l 708 0 l 1101 0 l 1116 98 l 999 141 l 999 830 l 1117 873 l 1101 972 l 708 972 l 691 873 l 808 830 l 808 784 l 322 323 l 363 476 l 363 829 l 483 873 l 465 972 l 72 972 l 55 873 l 172 830 l 172 141 l 58 98 l 72 0 l 463 0 l 480 98 l 363 143 l 363 179 m 716 1216 b 626 1126 667 1216 626 1176 b 716 1036 626 1077 667 1036 b 806 1126 765 1036 806 1077 b 716 1216 806 1176 765 1216 m 455 1216 b 365 1126 406 1216 365 1176 b 455 1036 365 1077 406 1036 b 545 1126 505 1036 545 1077 b 455 1216 545 1176 505 1216 "},"¡":{"x_min":111.109375,"x_max":323.609375,"ha":435,"o":"m 168 401 l 111 -332 l 188 -356 l 323 -332 l 266 401 l 168 401 m 216 473 b 311 568 268 473 311 516 b 216 663 311 620 268 663 b 120 568 163 663 120 620 b 216 473 120 516 163 473 "},"ẅ":{"x_min":16.671875,"x_max":1131.953125,"ha":1154,"o":"m 722 967 b 631 877 673 967 631 927 b 722 787 631 829 673 787 b 812 877 770 787 812 829 b 722 967 812 927 770 967 m 461 967 b 370 877 412 967 370 927 b 461 787 370 829 412 787 b 551 877 511 787 551 829 b 461 967 551 927 511 967 m 713 -14 l 863 0 l 1036 533 l 1131 563 l 1115 648 l 868 648 l 851 563 l 934 533 l 811 174 l 811 266 l 684 665 l 543 647 l 380 147 l 380 266 l 291 533 l 373 563 l 356 648 l 33 648 l 16 563 l 112 533 l 283 -14 l 440 0 l 594 467 l 594 356 l 713 -14 "},"К":{"x_min":48.609375,"x_max":988.890625,"ha":1011,"o":"m 356 827 l 473 873 l 459 972 l 63 972 l 48 875 l 165 827 l 165 144 l 48 98 l 62 0 l 459 0 l 473 100 l 356 144 l 356 827 m 668 0 l 973 0 l 988 98 l 868 143 l 640 479 l 545 523 l 791 773 b 970 873 823 806 886 850 l 955 972 l 620 972 l 604 873 l 691 827 l 415 545 l 415 472 l 680 75 l 668 0 "},"":{"x_min":27.78125,"x_max":840.28125,"ha":944,"o":"m 656 878 b 747 787 656 829 698 787 b 837 878 797 787 837 829 b 515 1037 837 1000 650 1037 b 141 694 238 1037 141 853 l 141 673 l 27 640 l 41 564 l 141 564 l 141 115 l 52 84 l 69 0 l 416 0 l 433 84 l 316 115 l 316 564 l 665 564 l 665 133 b 462 -267 665 -15 648 -145 l 509 -347 b 840 111 787 -255 840 -77 l 840 648 l 316 648 l 316 721 b 508 950 316 847 395 950 b 658 896 562 950 615 940 l 656 878 "},"ѳ":{"x_min":55.5625,"x_max":748.609375,"ha":804,"o":"m 402 663 b 55 325 191 663 55 531 b 402 -13 55 118 179 -13 b 748 325 627 -13 748 112 b 402 663 748 537 612 663 m 402 576 b 569 376 494 576 556 502 b 502 348 548 361 522 348 b 336 379 450 348 387 379 b 234 341 294 379 262 366 b 402 576 237 486 302 576 m 311 296 b 479 262 366 296 418 262 b 570 296 512 262 543 272 b 402 73 562 159 500 73 b 238 265 309 73 252 148 b 311 296 255 280 281 296 "},"P":{"x_min":48.609375,"x_max":838.890625,"ha":881,"o":"m 359 873 l 480 873 b 651 663 604 873 651 779 b 477 473 651 568 586 473 l 418 473 l 418 365 l 473 365 b 838 663 668 365 838 438 b 523 972 838 850 731 972 l 65 972 l 48 873 l 168 827 l 168 141 l 51 98 l 66 0 l 502 0 l 518 98 l 359 141 l 359 873 "},"%":{"x_min":54.359375,"x_max":1169.640625,"ha":1224,"o":"m 937 536 b 701 258 765 536 701 413 b 937 -23 701 104 752 -23 b 1169 258 1122 -23 1169 111 b 937 536 1169 408 1109 536 m 937 443 b 1014 262 1001 443 1014 372 b 937 69 1014 151 998 69 b 857 262 875 69 857 152 b 937 443 857 370 872 443 m 921 995 l 177 -23 l 291 -23 l 1033 995 l 921 995 m 290 995 b 54 718 118 995 54 873 b 290 436 54 563 105 436 b 522 718 475 436 522 570 b 290 995 522 868 462 995 m 290 902 b 366 722 354 902 366 831 b 290 529 366 611 351 529 b 209 722 227 529 209 612 b 290 902 209 830 225 902 "},"_":{"x_min":0,"x_max":693.0625,"ha":693,"o":"m 0 -194 l 677 -194 l 693 -72 l 16 -72 l 0 -194 "},"ñ":{"x_min":48.5,"x_max":818.5,"ha":867,"o":"m 528 782 l 657 941 l 615 971 l 494 912 l 355 968 l 308 968 l 179 808 l 223 779 l 338 851 l 478 782 l 528 782 m 432 564 b 555 450 493 564 555 522 l 555 115 l 468 84 l 484 0 l 801 0 l 818 84 l 731 115 l 731 429 b 466 663 731 580 628 663 b 293 627 408 663 338 643 l 236 664 l 58 648 l 73 564 l 136 564 l 136 115 l 48 84 l 63 0 l 384 0 l 400 84 l 311 115 l 311 536 b 432 564 347 548 395 564 "},"Ŕ":{"x_min":48.4375,"x_max":927.59375,"ha":958,"o":"m 692 1208 l 580 1307 l 408 1090 l 448 1052 l 692 1208 m 358 873 l 494 873 b 678 693 617 873 678 794 b 505 522 678 612 612 522 l 416 522 l 416 434 l 622 76 l 608 0 l 912 0 l 927 98 l 806 141 l 667 387 l 576 434 b 865 693 710 434 865 541 b 544 972 865 865 752 972 l 65 972 l 48 873 l 165 827 l 165 141 l 51 98 l 66 0 l 458 0 l 473 98 l 358 143 l 358 873 "},"‚":{"x_min":31.9375,"x_max":277.78125,"ha":347,"o":"m 183 167 b 88 72 130 167 88 124 b 120 0 88 47 100 24 l 141 0 b 31 -201 138 -67 95 -151 l 80 -251 b 277 72 158 -212 277 -64 b 183 167 277 124 236 167 "},"Æ":{"x_min":6.9375,"x_max":1352.78125,"ha":1401,"o":"m 1175 873 l 1229 709 l 1329 725 l 1329 972 l 502 972 l 127 143 l 6 98 l 22 0 l 358 0 l 372 100 l 254 141 l 329 309 l 701 309 l 701 141 l 587 98 l 601 0 l 1352 0 l 1352 293 l 1254 307 l 1180 98 l 893 98 l 893 446 l 1050 446 l 1093 333 l 1191 347 l 1191 654 l 1091 668 l 1050 555 l 893 555 l 893 873 l 1175 873 m 701 827 l 701 418 l 377 418 l 584 873 l 701 827 "},"₣":{"x_min":55.5625,"x_max":1226.390625,"ha":1261,"o":"m 337 799 l 568 799 l 619 649 l 709 663 l 709 889 l 68 889 l 55 799 l 162 758 l 162 130 l 56 89 l 70 0 l 470 0 l 483 89 l 337 128 l 337 407 l 465 407 l 505 305 l 594 318 l 594 596 l 505 610 l 465 507 l 337 507 l 337 799 m 1226 431 l 1226 580 b 1095 608 1179 598 1134 608 b 931 574 1037 608 970 588 l 879 608 l 713 594 l 729 516 l 787 516 l 787 105 l 706 77 l 722 0 l 1037 0 l 1052 77 l 947 105 l 947 489 b 1061 516 983 505 1036 516 b 1112 510 1079 516 1104 513 l 1141 416 l 1226 431 "},"ﬆ":{"x_min":55.28125,"x_max":1152.5,"ha":1153,"o":"m 295 -13 b 571 187 463 -13 571 65 b 398 384 571 294 494 339 b 217 504 328 418 217 450 b 319 576 217 545 263 576 b 423 562 352 576 390 570 l 452 455 l 546 472 l 546 605 b 387 808 474 641 387 722 b 587 950 387 912 501 950 b 780 812 687 950 780 904 b 645 648 780 741 731 675 l 660 564 l 740 564 l 740 173 b 952 -13 740 68 813 -13 b 1152 79 1040 -13 1098 23 l 1092 152 b 974 86 1055 112 1009 86 b 915 162 949 86 915 115 l 915 564 l 1081 564 l 1098 648 l 915 648 b 945 798 928 679 945 726 b 608 1037 945 947 821 1037 b 290 805 415 1037 290 936 b 309 718 290 773 296 744 l 388 659 b 333 663 370 662 351 663 b 58 483 166 663 58 601 b 274 261 58 362 183 304 b 412 148 337 232 412 193 b 284 73 412 97 352 73 b 195 87 266 73 217 79 l 148 225 l 55 207 l 55 43 b 295 -13 134 4 234 -13 "},"Ū":{"x_min":41.671875,"x_max":1020.828125,"ha":1042,"o":"m 311 1059 l 784 1059 l 784 1151 l 311 1151 l 311 1059 m 543 -23 b 158 415 351 -23 158 52 l 158 827 l 41 873 l 55 972 l 452 972 l 466 873 l 350 827 l 350 406 b 565 93 350 184 419 93 b 798 404 712 93 798 197 l 798 827 l 679 873 l 695 972 l 1006 972 l 1020 873 l 904 827 l 904 415 b 543 -23 904 55 722 -23 "},"ы":{"x_min":48.953125,"x_max":1035.078125,"ha":1083,"o":"m 414 400 l 373 400 l 373 313 l 383 313 b 486 204 446 313 486 269 b 383 84 486 137 446 84 l 314 84 l 314 533 l 404 563 l 387 648 l 65 648 l 48 563 l 139 533 l 139 115 l 51 84 l 68 0 l 473 0 b 675 194 580 0 675 91 b 414 400 675 356 517 400 m 772 115 l 685 84 l 701 0 l 1018 0 l 1035 84 l 947 113 l 947 533 l 1035 563 l 1018 648 l 701 648 l 685 563 l 772 533 l 772 115 "},"ѓ":{"x_min":41.90625,"x_max":584.96875,"ha":613,"o":"m 454 998 l 319 1064 l 218 811 l 279 779 l 454 998 m 305 564 l 459 564 l 490 455 l 584 472 l 584 648 l 58 648 l 41 564 l 132 533 l 132 115 l 44 84 l 61 0 l 376 0 l 393 84 l 305 115 l 305 564 "},"Œ":{"x_min":83.328125,"x_max":1361.109375,"ha":1410,"o":"m 725 148 b 562 93 683 112 629 93 b 291 493 381 93 291 230 b 562 879 291 755 384 879 b 725 826 629 879 683 861 l 725 148 m 1361 0 l 1361 293 l 1262 306 l 1188 98 l 915 98 l 915 445 l 1058 445 l 1101 333 l 1200 347 l 1200 654 l 1100 668 l 1058 555 l 915 555 l 915 873 l 1183 873 l 1237 709 l 1337 725 l 1337 972 l 726 972 b 562 995 677 987 622 995 b 83 486 252 995 83 741 b 562 -23 83 230 230 -23 b 733 0 626 -23 683 -15 l 1361 0 "},"Ą":{"x_min":20.484375,"x_max":1045.484375,"ha":1057,"o":"m 460 972 l 141 143 l 20 98 l 35 0 l 382 0 l 396 100 l 266 143 l 332 309 l 657 309 l 720 143 l 610 98 l 626 0 l 899 0 b 794 -140 848 -27 794 -69 b 935 -273 794 -220 852 -273 b 1031 -256 946 -273 988 -272 l 1007 -156 b 964 -163 994 -161 981 -163 b 907 -118 931 -163 907 -152 b 1030 0 907 -77 955 -36 l 1045 98 l 923 143 l 612 995 l 460 972 m 617 418 l 374 418 l 530 812 l 530 654 l 617 418 "},"Њ":{"x_min":55.5625,"x_max":1433.328125,"ha":1485,"o":"m 1083 873 l 1069 972 l 672 972 l 658 873 l 775 829 l 775 554 l 363 554 l 363 830 l 480 873 l 466 972 l 69 972 l 55 873 l 172 829 l 172 143 l 56 98 l 72 0 l 463 0 l 477 98 l 363 143 l 363 447 l 775 447 l 775 141 l 658 98 l 672 0 l 1087 0 b 1433 315 1354 0 1433 147 b 1073 602 1433 526 1245 602 l 1018 602 l 1018 495 l 1040 495 b 1225 315 1152 495 1225 433 b 1030 98 1225 198 1165 98 l 968 98 l 968 830 l 1083 873 "},"›":{"x_min":83.328125,"x_max":423.609375,"ha":507,"o":"m 402 301 l 423 389 l 127 581 l 83 531 l 250 356 l 83 174 l 127 124 l 402 301 "},"ћ":{"x_min":22.21875,"x_max":801.390625,"ha":843,"o":"m 293 842 l 293 1019 l 211 1038 l 25 1021 l 41 937 l 119 937 l 119 842 l 22 842 l 22 771 l 119 771 l 119 115 l 31 85 l 45 0 l 366 0 l 380 85 l 293 115 l 293 536 b 419 564 323 549 365 564 b 531 455 480 564 531 528 l 531 64 l 543 0 l 787 0 l 801 85 l 713 115 l 713 429 b 436 662 713 580 593 662 b 293 637 388 662 336 649 l 293 771 l 512 771 l 512 842 l 293 842 "},"→":{"x_min":84.71875,"x_max":1084.71875,"ha":1199,"o":"m 1070 338 l 1084 403 l 658 658 l 608 592 l 856 377 l 609 166 l 656 101 l 1070 338 m 84 430 l 84 316 l 704 316 l 704 430 l 84 430 "},"<":{"x_min":125,"x_max":718.0625,"ha":843,"o":"m 668 90 l 716 170 l 375 409 l 718 650 l 668 728 l 125 450 l 148 348 l 668 90 "},"¬":{"x_min":80.5625,"x_max":686.109375,"ha":767,"o":"m 80 380 l 555 380 l 555 163 l 686 163 l 686 508 l 100 508 l 80 380 "},"t":{"x_min":13.890625,"x_max":519.4375,"ha":519,"o":"m 281 795 l 177 819 l 118 671 l 13 639 l 27 563 l 106 563 l 106 173 b 319 -14 106 67 180 -14 b 519 78 406 -14 465 23 l 459 152 b 341 85 422 112 376 85 b 281 162 316 85 281 114 l 281 563 l 448 563 l 465 648 l 281 648 l 281 795 "},"Ц":{"x_min":55.5625,"x_max":1062.5,"ha":1118,"o":"m 754 98 l 363 98 l 363 827 l 480 874 l 466 973 l 70 973 l 55 874 l 172 827 l 172 141 l 56 98 l 72 0 l 870 0 l 961 -242 l 1059 -228 l 1059 98 l 945 98 l 945 827 l 1062 874 l 1047 973 l 651 973 l 637 874 l 754 827 l 754 98 "},"ù":{"x_min":41.671875,"x_max":797.21875,"ha":818,"o":"m 433 779 l 494 811 l 393 1064 l 258 998 l 433 779 m 533 564 l 475 564 l 459 645 l 638 664 l 708 643 l 708 115 l 797 84 l 780 0 l 591 0 l 550 32 b 366 -15 497 -5 434 -15 b 113 239 206 -15 113 87 l 113 564 l 56 564 l 41 645 l 208 664 l 288 644 l 288 226 b 415 86 288 122 358 86 b 533 139 452 86 505 105 l 533 564 "},"ï":{"x_min":11.109375,"x_max":452.796875,"ha":464,"o":"m 362 968 b 272 877 313 968 272 927 b 362 787 272 829 313 787 b 452 877 411 787 452 829 b 362 968 452 927 411 968 m 101 968 b 11 877 52 968 11 927 b 101 787 11 829 52 787 b 191 877 151 787 191 829 b 101 968 191 927 151 968 m 319 115 l 319 648 l 234 663 l 65 648 l 80 563 l 144 563 l 144 115 l 55 86 l 72 0 l 391 0 l 408 86 l 319 115 "},"Ф":{"x_min":76.390625,"x_max":1166.671875,"ha":1243,"o":"m 425 995 l 409 898 l 526 851 l 526 823 b 450 829 501 827 479 829 b 76 494 211 829 76 677 b 450 160 76 312 195 160 b 526 166 475 160 501 162 l 526 142 l 411 98 l 426 0 l 818 0 l 831 98 l 718 142 l 718 166 b 793 160 743 162 769 160 b 1166 494 1050 160 1166 312 b 793 829 1166 677 1033 829 b 718 823 765 829 743 827 l 718 851 l 834 898 l 819 995 l 425 995 m 718 718 b 758 720 733 720 744 720 b 980 499 887 720 980 675 b 758 269 980 372 918 269 b 718 272 745 269 734 269 l 718 718 m 526 272 b 487 269 509 269 498 269 b 263 499 325 269 263 372 b 486 720 263 675 355 720 b 526 718 495 720 515 719 l 526 272 "},"Ò":{"x_min":83.328125,"x_max":1040.28125,"ha":1124,"o":"m 605 1052 l 645 1090 l 473 1307 l 361 1208 l 605 1052 m 562 995 b 83 486 252 995 83 741 b 562 -23 83 230 230 -23 b 1040 486 894 -23 1040 200 b 562 995 1040 772 872 995 m 562 879 b 834 493 740 879 834 748 b 562 93 834 237 744 93 b 291 493 381 93 291 230 b 562 879 291 755 384 879 "},"I":{"x_min":83.328125,"x_max":511.109375,"ha":594,"o":"m 393 827 l 511 873 l 494 972 l 100 972 l 83 873 l 201 827 l 201 141 l 83 98 l 100 0 l 494 0 l 511 98 l 393 141 l 393 827 "},"˝":{"x_min":18.0625,"x_max":537.5,"ha":535,"o":"m 537 1208 l 425 1307 l 252 1090 l 293 1052 l 537 1208 m 302 1208 l 190 1307 l 18 1090 l 58 1052 l 302 1208 "},"·":{"x_min":69.4375,"x_max":258.328125,"ha":329,"o":"m 163 573 b 69 477 112 573 69 530 b 163 383 69 426 112 383 b 258 477 216 383 258 426 b 163 573 258 530 216 573 "},"ҡ":{"x_min":18.0625,"x_max":863.890625,"ha":878,"o":"m 375 115 l 375 533 l 465 563 l 448 648 l 18 648 l 18 472 l 111 455 l 144 563 l 200 563 l 200 115 l 111 84 l 127 0 l 445 0 l 462 84 l 375 115 m 543 648 l 526 563 l 595 533 l 418 362 l 418 308 l 590 70 l 576 0 l 847 0 l 863 84 l 762 115 l 615 323 l 531 341 l 697 498 b 843 563 725 526 759 551 l 826 648 l 543 648 "},"Һ":{"x_min":34.71875,"x_max":848.609375,"ha":865,"o":"m 388 880 l 372 972 l 51 972 l 34 880 l 123 852 l 123 119 l 34 91 l 51 0 l 372 0 l 388 90 l 300 119 l 300 466 b 445 489 338 479 402 489 b 575 383 501 489 575 459 l 575 121 l 484 90 l 502 0 l 831 0 l 848 90 l 759 119 l 759 347 b 456 602 759 519 620 602 b 300 577 405 602 341 593 l 300 852 l 388 880 "},"¿":{"x_min":58.328125,"x_max":526.390625,"ha":565,"o":"m 281 401 b 308 269 302 333 308 295 b 58 -140 308 116 58 79 b 323 -355 58 -288 168 -355 b 526 -265 401 -355 469 -319 l 526 -127 l 440 -111 b 405 -223 431 -141 416 -190 b 320 -256 384 -240 351 -256 b 209 -159 258 -256 209 -219 b 434 208 209 -19 434 30 b 384 401 434 263 425 348 l 281 401 m 320 473 b 415 568 372 473 415 516 b 320 663 415 620 372 663 b 225 568 268 663 225 620 b 320 473 225 516 268 473 "},"ſ":{"x_min":27.78125,"x_max":622.21875,"ha":574,"o":"m 431 1037 b 141 763 255 1037 141 922 l 141 673 l 27 640 l 41 562 l 141 562 l 141 115 l 52 86 l 69 0 l 416 0 l 433 86 l 316 115 l 316 790 b 437 950 316 916 376 950 b 498 937 455 950 484 944 l 529 822 l 622 840 l 622 970 b 431 1037 559 1018 505 1037 "},"Ђ":{"x_min":55.5625,"x_max":995.828125,"ha":1051,"o":"m 55 702 l 154 688 l 227 873 l 375 873 l 375 141 l 258 98 l 273 0 l 669 0 l 683 98 l 566 141 l 566 506 b 701 533 602 522 661 533 b 812 417 756 533 812 490 l 812 151 b 611 -258 812 0 800 -133 l 658 -339 b 995 129 941 -244 995 -64 l 995 397 b 712 635 995 552 872 635 b 566 609 662 635 609 627 l 566 873 l 715 873 l 788 687 l 887 702 l 887 972 l 55 972 l 55 702 "},"ű":{"x_min":41.78125,"x_max":796.875,"ha":818,"o":"m 485 998 l 351 1064 l 250 811 l 311 779 l 485 998 m 689 998 l 555 1064 l 454 811 l 515 779 l 689 998 m 533 139 b 415 86 505 105 452 86 b 288 226 358 86 288 122 l 288 644 l 208 664 l 41 645 l 57 564 l 114 564 l 114 239 b 366 -15 114 87 207 -15 b 549 32 434 -15 497 -5 l 591 0 l 780 0 l 796 84 l 708 115 l 708 643 l 638 664 l 459 645 l 474 564 l 533 564 l 533 139 "},"Ǽ":{"x_min":6.671875,"x_max":1352.5,"ha":1401,"o":"m 1174 873 l 1228 709 l 1328 725 l 1328 972 l 502 972 l 127 143 l 6 98 l 21 0 l 358 0 l 371 100 l 253 141 l 328 309 l 701 309 l 701 141 l 587 98 l 601 0 l 1352 0 l 1352 293 l 1253 307 l 1180 98 l 892 98 l 892 446 l 1049 446 l 1092 333 l 1191 347 l 1191 654 l 1091 668 l 1049 555 l 892 555 l 892 873 l 1174 873 m 701 827 l 701 418 l 377 418 l 584 873 l 701 827 m 1053 1208 l 941 1307 l 769 1090 l 809 1052 l 1053 1208 "},";":{"x_min":44.4375,"x_max":291.671875,"ha":361,"o":"m 195 663 b 101 569 144 663 101 620 b 195 473 101 516 144 473 b 291 569 248 473 291 516 b 195 663 291 620 248 663 m 195 166 b 101 72 143 166 101 123 b 133 0 101 47 112 23 l 154 0 b 44 -201 151 -67 108 -151 l 93 -251 b 290 72 170 -212 290 -64 b 195 166 290 123 248 166 "},"Ȃ":{"x_min":20.828125,"x_max":1045.828125,"ha":1025,"o":"m 576 1288 l 480 1288 l 320 1052 l 362 1023 l 529 1159 l 693 1023 l 737 1052 l 576 1288 m 612 995 l 923 143 l 1045 98 l 1030 0 l 626 0 l 611 98 l 720 143 l 658 309 l 333 309 l 266 143 l 397 100 l 383 0 l 36 0 l 20 98 l 141 143 l 461 972 l 612 995 m 530 654 l 530 812 l 375 418 l 618 418 l 530 654 "},"Ș":{"x_min":69.46875,"x_max":747.25,"ha":808,"o":"m 419 -49 b 343 -127 376 -49 343 -84 b 368 -186 343 -148 352 -167 l 391 -186 b 338 -272 387 -215 370 -247 l 377 -311 b 495 -127 437 -280 495 -220 b 419 -49 495 -83 462 -49 m 69 732 b 312 422 69 537 205 475 b 573 211 408 375 573 320 b 370 93 573 136 483 93 b 243 123 334 93 275 108 l 172 305 l 73 291 l 73 66 b 380 -23 151 11 266 -23 b 747 254 629 -23 747 93 b 462 573 747 420 608 512 b 244 755 409 600 244 654 b 408 879 244 833 306 879 b 540 861 450 879 502 872 l 605 675 l 705 690 l 705 907 b 408 995 619 958 516 995 b 69 732 230 995 69 908 "},"Ġ":{"x_min":49.328125,"x_max":1017.390625,"ha":1051,"o":"m 571 1215 b 481 1125 524 1215 481 1175 b 571 1034 481 1076 524 1034 b 661 1125 621 1034 661 1076 b 571 1215 661 1175 621 1215 m 256 493 b 570 879 256 693 350 879 b 735 855 616 879 685 869 l 800 673 l 899 688 l 899 905 b 570 995 796 965 692 995 b 49 486 260 995 49 769 b 570 -23 49 230 210 -23 b 899 66 684 -23 822 11 l 899 337 l 1017 384 l 1000 483 l 606 483 l 591 384 l 706 338 l 706 109 b 568 93 666 98 606 93 b 256 493 329 93 256 304 "},"6":{"x_min":67.0625,"x_max":674,"ha":743,"o":"m 592 818 l 542 910 b 67 328 305 839 67 640 b 372 -14 67 133 176 -14 b 674 299 555 -14 674 141 b 415 578 674 466 544 578 b 289 542 378 578 330 566 b 592 818 353 684 478 761 m 307 448 b 397 476 340 470 374 476 b 499 302 447 476 499 409 b 372 88 499 208 460 88 b 242 330 278 88 242 205 b 274 503 242 395 257 453 l 307 448 "},"n":{"x_min":48.609375,"x_max":818.0625,"ha":867,"o":"m 431 564 b 555 450 493 564 555 522 l 555 115 l 468 84 l 484 0 l 801 0 l 818 84 l 730 115 l 730 429 b 466 663 730 580 627 663 b 293 627 408 663 338 643 l 236 664 l 58 648 l 73 564 l 136 564 l 136 115 l 48 84 l 63 0 l 384 0 l 400 84 l 311 115 l 311 536 b 431 564 347 548 395 564 "},"ģ":{"x_min":31.9375,"x_max":655.046875,"ha":669,"o":"m 337 735 b 414 812 380 735 414 769 b 389 871 414 833 404 853 l 365 871 b 418 957 369 900 386 932 l 379 996 b 261 812 319 965 261 905 b 337 735 261 768 294 735 m 269 149 b 229 183 245 156 230 167 l 233 194 b 330 183 262 185 297 183 b 636 422 506 183 636 262 b 616 525 636 459 630 494 l 553 563 l 634 563 l 655 665 l 463 648 b 340 663 426 658 380 663 b 56 422 172 663 56 551 b 141 240 56 341 83 281 l 74 128 b 184 10 74 58 136 27 l 326 -35 b 449 -147 383 -53 449 -94 b 301 -248 449 -207 379 -248 b 168 -171 220 -248 168 -214 b 229 -80 168 -144 186 -104 l 179 -19 b 31 -178 105 -44 31 -104 b 301 -347 31 -300 165 -347 b 630 -111 471 -347 630 -276 b 391 106 630 5 531 58 l 269 149 m 340 576 b 468 429 401 576 468 545 b 340 270 468 319 411 270 b 222 426 272 270 222 323 b 340 576 222 527 273 576 "},"℗":{"x_min":76.390625,"x_max":1088.890625,"ha":1165,"o":"m 76 488 b 576 -13 76 211 298 -13 b 1088 488 856 -13 1088 211 b 580 995 1088 769 861 995 b 76 488 302 995 76 769 m 202 488 b 580 881 202 716 358 881 b 962 488 806 881 962 716 b 576 100 962 266 802 100 b 202 488 354 100 202 266 m 552 719 l 625 719 b 727 594 700 719 727 663 b 623 480 727 537 687 480 l 587 480 l 587 416 l 620 416 b 840 594 737 416 840 459 b 651 779 840 705 775 779 l 377 779 l 366 719 l 438 693 l 438 281 l 369 256 l 377 197 l 638 197 l 647 256 l 552 281 l 552 719 "},"‡":{"x_min":41.671875,"x_max":675,"ha":717,"o":"m 429 594 l 643 546 l 675 611 l 650 733 l 427 689 l 455 972 l 383 996 l 261 972 l 287 689 l 73 737 l 41 672 l 66 550 l 288 594 l 301 226 l 129 258 l 97 207 l 122 126 l 304 154 l 315 -180 l 397 -180 l 411 157 l 584 125 l 616 190 l 591 257 l 413 229 l 429 594 "},"ň":{"x_min":48.5,"x_max":818.5,"ha":867,"o":"m 637 991 l 593 1021 l 429 884 l 262 1021 l 220 991 l 380 755 l 476 755 l 637 991 m 432 564 b 555 450 493 564 555 522 l 555 115 l 468 84 l 484 0 l 801 0 l 818 84 l 731 115 l 731 429 b 466 663 731 580 628 663 b 293 627 408 663 338 643 l 236 664 l 58 648 l 73 564 l 136 564 l 136 115 l 48 84 l 63 0 l 384 0 l 400 84 l 311 115 l 311 536 b 432 564 347 548 395 564 "},"Ӯ":{"x_min":6.9375,"x_max":894.453125,"ha":797,"o":"m 237 1059 l 711 1059 l 711 1151 l 237 1151 l 237 1059 m 769 830 l 894 873 l 876 972 l 565 972 l 548 873 l 654 831 l 473 387 l 473 544 l 338 831 l 445 873 l 430 972 l 25 972 l 6 873 l 127 830 l 388 255 l 419 248 l 413 231 b 162 108 379 148 237 108 l 177 2 l 381 -24 b 495 144 440 13 470 81 l 769 830 "},"ę":{"x_min":55.96875,"x_max":714,"ha":763,"o":"m 442 86 b 246 322 322 86 249 183 l 683 322 b 714 438 700 351 714 401 b 411 663 714 575 578 663 b 55 325 212 663 55 537 b 397 -13 55 129 160 -1 b 317 -140 354 -41 317 -80 b 458 -273 317 -220 375 -273 b 554 -256 469 -273 511 -272 l 530 -156 b 487 -163 516 -161 504 -163 b 430 -118 454 -163 430 -152 b 550 -1 430 -77 476 -37 b 702 79 601 12 651 37 l 655 150 b 442 86 584 102 512 86 m 250 408 b 411 576 262 508 321 576 b 539 448 483 576 539 530 b 534 408 539 436 537 422 l 250 408 "},"į":{"x_min":55.5625,"x_max":408.328125,"ha":464,"o":"m 251 20 b 102 -140 194 -5 102 -48 b 244 -273 102 -220 161 -273 b 340 -256 255 -273 297 -272 l 316 -156 b 273 -163 302 -161 290 -163 b 216 -118 240 -163 216 -152 b 338 0 216 -77 263 -36 l 251 20 m 319 115 l 319 648 l 234 663 l 65 648 l 80 563 l 144 563 l 144 115 l 55 84 l 72 0 l 391 0 l 408 84 l 319 115 m 220 968 b 130 877 172 968 130 927 b 220 787 130 829 172 787 b 311 877 270 787 311 829 b 220 968 311 927 270 968 "},"":{"x_min":73.609375,"x_max":687.5,"ha":761,"o":"m 380 663 b 73 323 175 663 73 530 b 380 -13 73 116 159 -13 b 687 323 602 -13 687 109 b 380 663 687 537 587 663 m 380 565 b 513 329 470 565 513 475 b 380 84 513 180 472 84 b 247 329 290 84 247 181 b 380 565 247 475 291 565 "},"ĸ":{"x_min":55.5625,"x_max":808.328125,"ha":822,"o":"m 770 648 l 787 563 b 641 498 704 550 669 525 l 476 341 l 559 323 l 706 114 l 808 85 l 791 0 l 520 0 l 534 70 l 362 307 l 362 362 l 540 532 l 470 563 l 490 648 l 770 648 m 319 114 l 319 648 l 237 669 l 66 648 l 83 569 l 144 569 l 144 114 l 55 85 l 72 0 l 390 0 l 406 85 l 319 114 "},"g":{"x_min":31.859375,"x_max":655.828125,"ha":669,"o":"m 269 149 b 229 183 246 156 230 167 l 233 194 b 331 183 262 185 297 183 b 637 422 506 183 637 262 b 616 525 637 459 630 494 l 554 563 l 635 563 l 655 665 l 463 648 b 341 663 427 658 381 663 b 56 422 172 663 56 551 b 141 240 56 341 83 281 l 74 128 b 185 10 74 58 136 27 l 327 -35 b 449 -147 384 -53 449 -94 b 301 -248 449 -207 380 -248 b 168 -171 221 -248 168 -214 b 229 -80 168 -144 186 -104 l 179 -19 b 31 -178 105 -44 31 -104 b 301 -347 31 -300 165 -347 b 630 -111 471 -347 630 -276 b 392 106 630 5 531 58 l 269 149 m 341 576 b 469 429 402 576 469 545 b 341 270 469 319 412 270 b 222 426 272 270 222 323 b 341 576 222 527 274 576 "},"ǿ":{"x_min":55.921875,"x_max":748.1875,"ha":804,"o":"m 402 663 b 55 325 191 663 55 531 b 178 50 55 204 97 108 l 133 -16 l 146 -29 l 210 -29 l 239 15 b 402 -13 286 -4 340 -13 b 748 325 627 -13 748 112 b 626 597 748 445 703 540 l 669 662 l 657 672 l 591 672 l 565 632 b 402 663 517 652 463 663 m 571 329 b 402 73 571 175 508 73 b 304 112 362 73 330 87 l 545 476 b 571 329 562 437 571 387 m 402 576 b 501 537 441 576 474 562 l 261 175 b 234 329 243 216 234 269 b 402 576 234 482 300 576 m 595 998 l 461 1064 l 359 811 l 420 779 l 595 998 "},"²":{"x_min":27.890625,"x_max":354.28125,"ha":382,"o":"m 187 934 b 244 859 218 934 244 913 b 27 491 244 708 27 640 l 27 447 l 345 447 l 345 583 l 290 594 l 269 537 l 115 537 b 354 850 143 623 354 683 b 190 995 354 927 301 995 b 43 961 147 995 93 984 l 43 850 l 100 838 l 125 922 b 187 934 143 930 169 934 "},"Ã":{"x_min":20.828125,"x_max":1045.828125,"ha":1057,"o":"m 679 1050 l 808 1209 l 766 1239 l 645 1180 l 506 1236 l 459 1236 l 330 1076 l 375 1047 l 490 1119 l 629 1050 l 679 1050 m 461 972 l 141 143 l 20 98 l 36 0 l 383 0 l 397 100 l 266 143 l 333 309 l 658 309 l 720 143 l 611 98 l 626 0 l 1030 0 l 1045 98 l 923 143 l 612 995 l 461 972 m 618 418 l 375 418 l 530 812 l 530 654 l 618 418 "},"Ј":{"x_min":-6.9375,"x_max":508.328125,"ha":550,"o":"m 200 273 b -6 -154 200 127 180 -27 l 45 -243 b 390 240 322 -154 390 47 l 390 827 l 508 873 l 493 972 l 98 972 l 81 873 l 200 827 l 200 273 "},"Ұ":{"x_min":6.875,"x_max":944.609375,"ha":951,"o":"m 596 416 l 596 447 l 819 827 l 944 873 l 929 972 l 608 972 l 594 873 l 696 827 l 495 495 l 495 583 l 348 827 l 452 872 l 437 972 l 22 972 l 6 873 l 129 827 l 369 416 l 161 416 l 161 344 l 404 344 l 404 141 l 287 98 l 302 0 l 694 0 l 711 98 l 596 141 l 596 344 l 791 344 l 791 416 l 596 416 "},"Ӵ":{"x_min":27.40625,"x_max":948.609375,"ha":1004,"o":"m 622 1216 b 531 1126 573 1216 531 1176 b 622 1036 531 1077 573 1036 b 712 1126 670 1036 712 1077 b 622 1216 712 1176 670 1216 m 360 1216 b 270 1126 312 1216 270 1176 b 360 1036 270 1077 312 1036 b 451 1126 410 1036 451 1077 b 360 1216 451 1176 410 1216 m 337 830 l 453 873 l 437 972 l 45 972 l 27 873 l 144 830 l 144 608 b 459 368 144 451 303 368 b 640 395 506 368 588 377 l 640 141 l 483 98 l 497 0 l 931 0 l 947 98 l 831 141 l 831 830 l 948 873 l 933 973 l 537 973 l 522 873 l 640 830 l 640 518 b 471 481 602 498 523 481 b 337 595 413 481 337 516 l 337 830 "},"©":{"x_min":76.390625,"x_max":1088.890625,"ha":1165,"o":"m 76 488 b 576 -13 76 211 298 -13 b 1088 488 856 -13 1088 211 b 580 995 1088 769 861 995 b 76 488 302 995 76 769 m 202 488 b 580 881 202 716 358 881 b 962 488 806 881 962 716 b 576 100 962 266 802 100 b 202 488 354 100 202 266 m 591 255 b 415 491 451 255 415 380 b 591 720 415 647 477 720 b 690 708 619 720 661 716 l 727 600 l 787 609 l 787 737 b 591 790 725 772 665 790 b 291 487 391 790 291 638 b 591 186 291 336 379 186 b 787 238 659 186 741 206 l 787 372 l 729 380 l 687 266 b 591 255 659 259 616 255 "},"Ă":{"x_min":20.828125,"x_max":1045.828125,"ha":1057,"o":"m 536 1169 b 356 1249 465 1169 400 1196 l 306 1214 b 536 1049 336 1133 418 1049 b 766 1214 655 1049 737 1133 l 715 1249 b 536 1169 672 1196 608 1169 m 461 972 l 141 143 l 20 99 l 36 0 l 383 0 l 397 100 l 266 143 l 333 310 l 658 310 l 720 143 l 611 99 l 626 0 l 1030 0 l 1045 99 l 923 143 l 612 996 l 461 972 m 618 418 l 375 418 l 530 812 l 530 654 l 618 418 "},"ґ":{"x_min":41.671875,"x_max":572.21875,"ha":600,"o":"m 572 571 l 572 743 l 479 760 l 447 648 l 56 648 l 41 571 l 131 533 l 131 115 l 44 86 l 59 0 l 380 0 l 394 86 l 306 115 l 306 571 l 572 571 "},"ÿ":{"x_min":24.78125,"x_max":823.609375,"ha":844,"o":"m 570 968 b 480 877 522 968 480 927 b 570 787 480 829 522 787 b 661 877 619 787 661 829 b 570 968 661 927 619 968 m 309 968 b 219 877 260 968 219 927 b 309 787 219 829 260 787 b 399 877 359 787 399 829 b 309 968 399 927 359 968 m 727 533 l 823 563 l 806 648 l 536 648 l 519 563 l 613 533 l 466 111 l 466 226 l 309 533 l 416 563 l 399 648 l 41 648 l 24 563 l 126 533 l 377 0 l 420 -15 l 393 -87 b 156 -248 344 -212 230 -237 l 172 -331 l 359 -347 b 490 -144 411 -311 469 -204 l 727 533 "},"Ł":{"x_min":49,"x_max":800.390625,"ha":814,"o":"m 62 972 l 49 873 l 165 827 l 165 537 l 49 494 l 49 394 l 165 437 l 165 143 l 49 98 l 62 0 l 800 0 l 800 293 l 701 306 l 625 98 l 357 98 l 357 509 l 457 548 l 457 648 l 357 609 l 357 827 l 475 873 l 460 972 l 62 972 "},"\\":{"x_min":-12.5,"x_max":738.890625,"ha":722,"o":"m 612 -180 l 708 -180 l 738 -165 l 113 1079 l 13 1079 l -12 1066 l 612 -180 "},"Ì":{"x_min":83.234375,"x_max":511.015625,"ha":594,"o":"m 327 1052 l 367 1090 l 195 1307 l 83 1208 l 327 1052 m 392 141 l 511 98 l 494 0 l 99 0 l 83 98 l 201 141 l 201 827 l 83 873 l 99 972 l 494 972 l 511 873 l 392 827 l 392 141 "},"ъ":{"x_min":18.328125,"x_max":753.046875,"ha":801,"o":"m 434 399 l 434 313 l 464 313 b 565 203 523 313 565 268 b 464 83 565 136 523 83 l 375 83 l 375 532 l 465 563 l 448 647 l 18 647 l 18 471 l 111 454 l 144 563 l 200 563 l 200 114 l 112 83 l 129 0 l 553 0 b 753 193 659 0 753 90 b 493 399 753 356 594 399 l 434 399 "},"Ē":{"x_min":48.609375,"x_max":802.78125,"ha":851,"o":"m 198 1059 l 672 1059 l 672 1151 l 198 1151 l 198 1059 m 356 873 l 356 555 l 500 555 l 541 668 l 641 654 l 641 347 l 543 333 l 500 446 l 356 446 l 356 99 l 630 99 l 704 307 l 802 293 l 802 0 l 65 0 l 51 99 l 165 142 l 165 827 l 48 873 l 63 972 l 779 972 l 779 725 l 679 710 l 625 873 l 356 873 "},"!":{"x_min":111.109375,"x_max":323.609375,"ha":435,"o":"m 266 239 l 323 972 l 245 996 l 111 972 l 168 239 l 266 239 m 218 166 b 313 72 270 166 313 123 b 218 -23 313 19 270 -23 b 123 72 166 -23 123 19 b 218 166 123 123 166 166 "},"ç":{"x_min":55.5625,"x_max":683.328125,"ha":714,"o":"m 434 576 b 540 559 461 576 511 570 l 569 455 l 662 472 l 662 605 b 431 663 581 645 498 663 b 55 323 212 663 55 537 b 363 -11 55 137 156 9 l 363 -120 l 405 -120 b 445 -163 431 -120 445 -140 b 331 -229 445 -201 404 -229 l 359 -306 b 563 -156 443 -306 563 -269 b 450 -54 563 -83 495 -56 l 450 -15 b 683 79 534 -11 619 20 l 636 150 b 436 86 575 108 497 86 b 245 350 294 86 245 204 b 434 576 245 491 322 576 "},"Й":{"x_min":55.59375,"x_max":1117.828125,"ha":1146,"o":"m 813 1250 b 644 1176 754 1194 709 1176 b 506 1263 584 1176 534 1213 l 436 1263 l 348 1172 b 601 1048 415 1079 501 1048 b 865 1197 694 1048 801 1106 l 813 1250 m 363 179 l 862 650 l 808 504 l 808 141 l 694 98 l 708 0 l 1101 0 l 1116 98 l 999 141 l 999 830 l 1117 873 l 1101 972 l 708 972 l 691 873 l 808 829 l 808 784 l 322 323 l 363 476 l 363 826 l 483 873 l 465 972 l 72 972 l 55 873 l 172 827 l 172 141 l 58 98 l 72 0 l 463 0 l 480 98 l 363 143 l 363 179 "},"Б":{"x_min":54.171875,"x_max":827.78125,"ha":885,"o":"m 669 711 l 768 725 l 768 972 l 70 972 l 54 873 l 172 827 l 172 141 l 54 98 l 69 0 l 481 0 b 827 308 751 0 827 140 b 480 590 827 519 655 590 l 413 590 l 413 480 l 447 480 b 620 308 559 480 620 425 b 426 98 620 191 561 98 l 362 98 l 362 873 l 611 873 l 669 711 "},"ҳ":{"x_min":13.890625,"x_max":754.171875,"ha":768,"o":"m 754 563 l 737 648 l 463 648 l 447 563 l 523 532 l 395 374 l 395 434 l 327 532 l 398 563 l 381 648 l 36 648 l 19 563 l 118 532 l 273 305 l 119 114 l 13 84 l 30 0 l 294 0 l 311 84 l 244 114 l 366 262 l 366 210 l 434 114 l 363 84 l 380 0 l 598 0 l 652 -181 l 745 -172 l 745 85 l 641 114 l 487 331 l 650 532 l 754 563 "},"đ":{"x_min":48.609375,"x_max":788.890625,"ha":793,"o":"m 580 0 l 769 0 l 786 84 l 695 115 l 695 777 l 788 777 l 788 848 l 695 848 l 695 1017 l 613 1038 l 430 1017 l 445 937 l 520 937 l 520 848 l 265 848 l 265 777 l 520 777 l 520 645 b 400 663 484 656 436 663 b 48 319 193 663 48 525 b 393 -15 48 114 169 -15 b 538 32 447 -15 508 7 l 580 0 m 520 129 b 401 86 490 98 443 86 b 237 333 306 86 237 187 b 408 564 237 477 300 564 b 520 536 443 564 491 552 l 520 129 "},"ċ":{"x_min":55.5625,"x_max":683.328125,"ha":714,"o":"m 426 968 b 336 877 379 968 336 927 b 426 787 336 829 379 787 b 516 877 476 787 516 829 b 426 968 516 927 476 968 m 434 576 b 540 559 461 576 511 570 l 569 455 l 662 472 l 662 605 b 431 663 581 645 498 663 b 55 323 212 663 55 537 b 429 -15 55 119 179 -15 b 683 79 520 -15 615 16 l 636 150 b 436 86 575 108 497 86 b 245 350 294 86 245 204 b 434 576 245 491 322 576 "},"Ā":{"x_min":20.828125,"x_max":1045.828125,"ha":1057,"o":"m 301 1059 l 775 1059 l 775 1151 l 301 1151 l 301 1059 m 612 995 l 923 143 l 1045 98 l 1030 0 l 626 0 l 611 98 l 720 143 l 658 309 l 333 309 l 266 143 l 397 100 l 383 0 l 36 0 l 20 98 l 141 143 l 461 972 l 612 995 m 530 654 l 530 812 l 375 418 l 618 418 l 530 654 "},"Ẃ":{"x_min":5.5625,"x_max":1434.71875,"ha":1439,"o":"m 969 1208 l 856 1307 l 684 1090 l 725 1052 l 969 1208 m 920 -24 l 1054 0 l 1311 827 l 1434 873 l 1419 972 l 1105 972 l 1090 873 l 1201 827 l 997 201 l 997 388 l 808 995 l 711 971 l 465 194 l 465 388 l 325 827 l 437 873 l 420 972 l 19 972 l 5 873 l 127 827 l 388 -24 l 525 0 l 745 699 l 745 534 l 920 -24 "},"ø":{"x_min":55.921875,"x_max":748.1875,"ha":804,"o":"m 402 663 b 55 325 191 663 55 531 b 178 50 55 204 97 108 l 133 -16 l 146 -29 l 210 -29 l 239 15 b 402 -13 286 -4 340 -13 b 748 325 627 -13 748 112 b 626 597 748 445 703 540 l 669 662 l 657 672 l 591 672 l 565 632 b 402 663 517 652 463 663 m 571 329 b 402 73 571 175 508 73 b 304 112 362 73 330 87 l 545 476 b 571 329 562 437 571 387 m 402 576 b 501 537 441 576 474 562 l 261 175 b 234 329 243 216 234 269 b 402 576 234 482 300 576 "},"â":{"x_min":42.875,"x_max":691.484375,"ha":706,"o":"m 383 1020 l 287 1020 l 127 784 l 169 755 l 335 891 l 499 755 l 544 784 l 383 1020 m 94 605 b 327 663 174 645 258 663 b 613 402 506 663 613 570 l 613 115 l 691 84 l 674 0 l 498 0 l 456 32 b 277 -15 415 2 358 -15 b 42 177 152 -15 42 51 b 438 410 42 366 263 410 l 438 458 b 320 576 438 537 381 576 b 217 561 287 576 244 568 l 187 455 l 94 472 l 94 605 m 438 323 b 233 190 309 323 233 269 b 328 86 233 111 290 86 b 438 141 366 86 415 107 l 438 323 "},"}":{"x_min":55.859375,"x_max":504.46875,"ha":588,"o":"m 128 962 b 205 884 171 962 205 926 l 205 581 b 315 388 205 480 244 422 b 205 197 244 356 205 297 l 205 -152 b 128 -230 205 -197 171 -230 l 55 -230 l 55 -336 l 146 -336 b 378 -101 273 -336 378 -230 l 378 258 b 458 336 378 300 414 336 l 504 336 l 504 441 l 458 441 b 378 519 414 441 378 476 l 378 833 b 146 1066 378 962 273 1066 l 55 1066 l 55 962 l 128 962 "},"ț":{"x_min":13.9375,"x_max":519.5,"ha":519,"o":"m 272 -50 b 195 -127 229 -50 195 -84 b 220 -186 195 -148 205 -168 l 244 -186 b 191 -272 240 -215 223 -247 l 230 -311 b 348 -127 290 -280 348 -220 b 272 -50 348 -83 315 -50 m 282 795 l 177 819 l 118 671 l 13 639 l 27 563 l 107 563 l 107 173 b 319 -13 107 67 180 -13 b 519 79 407 -13 465 23 l 459 152 b 341 86 422 112 376 86 b 282 162 316 86 282 115 l 282 563 l 448 563 l 465 648 l 282 648 l 282 795 "},"‰":{"x_min":56.359375,"x_max":1723.03125,"ha":1778,"o":"m 939 536 b 703 258 767 536 703 413 b 939 -23 703 104 754 -23 b 1171 258 1124 -23 1171 111 b 939 536 1171 408 1111 536 m 939 443 b 1016 262 1003 443 1016 372 b 939 69 1016 151 1000 69 b 859 262 877 69 859 152 b 939 443 859 370 874 443 m 923 995 l 179 -23 l 293 -23 l 1035 995 l 923 995 m 292 995 b 56 718 120 995 56 873 b 292 436 56 563 107 436 b 524 718 477 436 524 570 b 292 995 524 868 464 995 m 292 902 b 368 722 356 902 368 831 b 292 529 368 611 353 529 b 211 722 229 529 211 612 b 292 902 211 830 227 902 m 1491 536 b 1254 258 1318 536 1254 413 b 1491 -23 1254 104 1306 -23 b 1723 258 1675 -23 1723 111 b 1491 536 1723 408 1663 536 m 1491 443 b 1567 262 1554 443 1567 372 b 1491 69 1567 151 1552 69 b 1410 262 1428 69 1410 152 b 1491 443 1410 370 1425 443 "},"Ä":{"x_min":21.09375,"x_max":1046.1875,"ha":1057,"o":"m 665 1216 b 575 1126 616 1216 575 1176 b 665 1036 575 1077 616 1036 b 755 1126 714 1036 755 1077 b 665 1216 755 1176 714 1216 m 404 1216 b 314 1126 355 1216 314 1176 b 404 1036 314 1077 355 1036 b 494 1126 454 1036 494 1077 b 404 1216 494 1176 454 1216 m 461 972 l 141 143 l 21 98 l 36 0 l 383 0 l 397 100 l 266 143 l 333 309 l 658 309 l 721 143 l 611 98 l 626 0 l 1030 0 l 1046 98 l 923 143 l 612 995 l 461 972 m 618 418 l 375 418 l 530 812 l 530 654 l 618 418 "},"ř":{"x_min":48.609375,"x_max":616.671875,"ha":631,"o":"m 520 991 l 476 1021 l 312 884 l 145 1021 l 104 991 l 263 755 l 359 755 l 520 991 m 616 472 l 616 633 b 473 663 563 654 516 663 b 294 627 409 663 337 643 l 237 664 l 56 648 l 73 564 l 136 564 l 136 115 l 48 84 l 65 0 l 409 0 l 426 84 l 311 115 l 311 536 b 436 564 351 551 408 564 b 491 558 455 564 481 561 l 523 455 l 616 472 "},"ȗ":{"x_min":41.78125,"x_max":797.34375,"ha":818,"o":"m 461 1020 l 365 1020 l 205 784 l 247 755 l 414 891 l 577 755 l 622 784 l 461 1020 m 533 563 l 475 563 l 459 645 l 639 663 l 708 643 l 708 115 l 797 84 l 780 0 l 591 0 l 550 32 b 366 -15 497 -5 434 -15 b 114 238 207 -15 114 87 l 114 563 l 57 563 l 41 645 l 208 663 l 289 644 l 289 226 b 415 86 289 122 358 86 b 533 138 452 86 505 105 l 533 563 "},"—":{"x_min":41.671875,"x_max":1019.453125,"ha":1061,"o":"m 41 305 l 1004 305 l 1019 427 l 58 427 l 41 305 "},"N":{"x_min":33.328125,"x_max":998.609375,"ha":1036,"o":"m 34 98 l 50 0 l 356 0 l 372 98 l 256 141 l 256 738 l 768 -24 l 883 0 l 883 827 l 998 873 l 984 972 l 675 972 l 661 873 l 776 827 l 776 251 l 726 395 l 336 972 l 47 972 l 33 873 l 150 827 l 150 142 l 34 98 "},"Ӗ":{"x_min":48.40625,"x_max":802.5625,"ha":851,"o":"m 437 1169 b 258 1249 366 1169 301 1196 l 208 1214 b 437 1048 237 1133 319 1048 b 667 1214 556 1048 638 1133 l 616 1249 b 437 1169 573 1196 509 1169 m 624 873 l 678 709 l 778 725 l 778 972 l 63 972 l 48 873 l 165 827 l 165 141 l 51 98 l 65 0 l 802 0 l 802 293 l 703 306 l 630 98 l 356 98 l 356 445 l 499 445 l 542 333 l 641 347 l 641 654 l 541 668 l 499 555 l 356 555 l 356 873 l 624 873 "},"2":{"x_min":100,"x_max":643.0625,"ha":744,"o":"m 366 806 b 459 683 416 806 459 775 b 100 73 459 431 100 322 l 100 0 l 627 0 l 627 226 l 534 244 l 502 148 l 245 148 b 643 668 291 291 643 390 b 370 909 643 797 552 909 b 126 852 298 909 208 891 l 126 668 l 219 650 l 261 787 b 366 806 290 801 334 806 "},"М":{"x_min":40.28125,"x_max":1286.109375,"ha":1340,"o":"m 923 676 l 977 141 l 865 98 l 879 0 l 1272 0 l 1286 98 l 1170 141 l 1104 827 l 1220 873 l 1204 972 l 918 972 l 643 226 l 643 365 l 418 972 l 138 972 l 123 873 l 238 827 l 158 142 l 40 98 l 56 0 l 365 0 l 379 98 l 266 142 l 329 641 l 572 -24 l 676 0 l 923 676 "},"Ó":{"x_min":83.328125,"x_max":1040.28125,"ha":1124,"o":"m 769 1208 l 656 1307 l 484 1090 l 525 1052 l 769 1208 m 562 995 b 83 486 252 995 83 741 b 562 -23 83 230 230 -23 b 1040 486 894 -23 1040 200 b 562 995 1040 772 872 995 m 562 879 b 834 493 740 879 834 748 b 562 93 834 237 744 93 b 291 493 381 93 291 230 b 562 879 291 755 384 879 "},"˜":{"x_min":69.4375,"x_max":547.21875,"ha":617,"o":"m 418 781 l 547 941 l 505 971 l 384 912 l 245 968 l 198 968 l 69 808 l 113 779 l 229 851 l 368 781 l 418 781 "},"ˇ":{"x_min":69.4375,"x_max":486.109375,"ha":556,"o":"m 486 1259 l 441 1289 l 277 1152 l 111 1289 l 69 1259 l 229 1023 l 325 1023 l 486 1259 "},"ų":{"x_min":41.34375,"x_max":796.890625,"ha":818,"o":"m 533 139 b 414 86 505 105 452 86 b 288 226 358 86 288 122 l 288 644 l 208 664 l 41 645 l 56 564 l 113 564 l 113 239 b 366 -15 113 87 206 -15 b 549 32 434 -15 496 -5 l 591 0 l 649 0 b 544 -140 598 -27 544 -69 b 685 -273 544 -220 602 -273 b 781 -256 696 -273 738 -272 l 758 -156 b 714 -163 744 -161 731 -163 b 658 -117 681 -163 658 -152 b 780 0 658 -77 705 -36 l 796 84 l 708 115 l 708 643 l 638 664 l 459 645 l 474 564 l 533 564 l 533 139 "},"Ў":{"x_min":6.9375,"x_max":894.453125,"ha":797,"o":"m 675 1250 b 505 1176 615 1194 570 1176 b 368 1263 445 1176 395 1213 l 297 1263 l 209 1172 b 462 1048 276 1079 362 1048 b 726 1197 555 1048 662 1106 l 675 1250 m 769 830 l 894 873 l 876 972 l 565 972 l 548 873 l 654 831 l 473 387 l 473 544 l 338 831 l 445 873 l 430 972 l 25 972 l 6 873 l 127 830 l 388 255 l 419 248 l 413 231 b 162 108 379 148 237 108 l 177 2 l 381 -24 b 495 144 440 13 470 81 l 769 830 "},"Ŭ":{"x_min":41.625,"x_max":1020.796875,"ha":1042,"o":"m 561 1169 b 381 1249 490 1169 424 1196 l 331 1214 b 561 1048 361 1133 443 1048 b 791 1214 680 1048 762 1133 l 740 1249 b 561 1169 697 1196 633 1169 m 543 -23 b 904 415 722 -23 904 55 l 904 827 l 1020 873 l 1006 972 l 695 972 l 679 873 l 798 827 l 798 404 b 565 93 798 197 712 93 b 349 406 419 93 349 184 l 349 827 l 466 873 l 452 972 l 55 972 l 41 873 l 158 827 l 158 415 b 543 -23 158 52 351 -23 "},"ĝ":{"x_min":31.859375,"x_max":655.828125,"ha":669,"o":"m 402 1020 l 306 1020 l 145 784 l 187 755 l 354 891 l 519 755 l 564 784 l 402 1020 m 269 149 b 229 183 246 156 230 167 l 233 194 b 331 183 262 185 297 183 b 637 422 506 183 637 262 b 616 525 637 459 630 494 l 554 563 l 635 563 l 655 665 l 463 648 b 341 663 427 658 381 663 b 56 422 172 663 56 551 b 141 240 56 341 83 281 l 74 128 b 185 10 74 58 136 27 l 327 -35 b 449 -147 384 -53 449 -94 b 301 -248 449 -207 380 -248 b 168 -171 221 -248 168 -214 b 229 -80 168 -144 186 -104 l 179 -19 b 31 -178 105 -44 31 -104 b 301 -347 31 -300 165 -347 b 630 -111 471 -347 630 -276 b 392 106 630 5 531 58 l 269 149 m 341 576 b 469 429 402 576 469 545 b 341 270 469 319 412 270 b 222 426 272 270 222 323 b 341 576 222 527 274 576 "},"s":{"x_min":55.5625,"x_max":572.21875,"ha":628,"o":"m 295 -13 b 572 187 463 -13 572 65 b 398 384 572 294 494 338 b 218 504 329 418 218 450 b 319 576 218 545 263 576 b 423 562 352 576 390 570 l 452 455 l 547 472 l 547 605 b 333 663 487 641 409 663 b 58 483 166 663 58 601 b 275 261 58 362 183 304 b 412 148 337 231 412 193 b 284 73 412 97 352 73 b 195 87 266 73 218 79 l 148 225 l 55 206 l 55 43 b 295 -13 134 4 234 -13 "},"?":{"x_min":69.4375,"x_max":537.5,"ha":579,"o":"m 313 238 b 287 370 293 306 287 344 b 537 780 287 523 537 561 b 272 995 537 929 427 995 b 69 905 194 995 126 959 l 69 768 l 155 751 b 190 863 163 781 179 830 b 275 897 211 880 244 897 b 386 800 337 897 386 859 b 161 431 386 659 161 609 b 211 238 161 376 170 291 l 313 238 m 275 166 b 370 72 327 166 370 123 b 275 -23 370 19 327 -23 b 180 72 223 -23 180 19 b 275 166 180 123 223 166 "},"Ņ":{"x_min":33.90625,"x_max":999.1875,"ha":1036,"o":"m 539 -49 b 463 -127 496 -49 463 -84 b 488 -186 463 -148 472 -167 l 511 -186 b 458 -272 507 -215 490 -247 l 497 -311 b 615 -127 557 -280 615 -220 b 539 -49 615 -83 582 -49 m 35 98 l 50 0 l 357 0 l 372 98 l 257 141 l 257 738 l 768 -23 l 883 0 l 883 827 l 999 873 l 985 972 l 675 972 l 661 873 l 776 827 l 776 251 l 726 395 l 336 972 l 47 972 l 33 873 l 150 827 l 150 143 l 35 98 "},"Ī":{"x_min":61.109375,"x_max":534.71875,"ha":594,"o":"m 61 1059 l 534 1059 l 534 1151 l 61 1151 l 61 1059 m 393 141 l 511 98 l 494 0 l 100 0 l 83 98 l 201 141 l 201 827 l 83 873 l 100 972 l 494 972 l 511 873 l 393 827 l 393 141 "},"Ȕ":{"x_min":41.671875,"x_max":1020.828125,"ha":1042,"o":"m 458 1052 l 498 1090 l 326 1307 l 213 1208 l 458 1052 m 693 1052 l 733 1090 l 561 1307 l 448 1208 l 693 1052 m 543 -23 b 158 415 351 -23 158 52 l 158 827 l 41 873 l 55 972 l 452 972 l 466 873 l 350 827 l 350 406 b 565 93 350 184 419 93 b 798 404 712 93 798 197 l 798 827 l 679 873 l 695 972 l 1006 972 l 1020 873 l 904 827 l 904 415 b 543 -23 904 55 722 -23 "},"ҹ":{"x_min":7.171875,"x_max":757,"ha":819,"o":"m 493 533 l 493 350 b 407 330 473 340 437 333 l 407 529 l 334 529 l 334 331 b 269 440 296 343 269 380 l 269 533 l 351 563 l 334 648 l 23 648 l 7 563 l 94 534 l 94 465 b 334 236 94 318 186 240 l 334 141 l 407 141 l 407 238 b 493 258 438 243 470 250 l 493 116 l 405 84 l 422 0 l 738 0 l 755 84 l 668 115 l 668 533 l 757 563 l 740 648 l 426 648 l 409 563 l 493 533 "},"•":{"x_min":138.890625,"x_max":461.109375,"ha":600,"o":"m 298 663 b 138 504 208 663 138 591 b 298 341 138 412 208 341 b 461 504 388 341 461 412 b 298 663 461 591 388 663 "},"н":{"x_min":48.609375,"x_max":856.953125,"ha":906,"o":"m 593 380 l 312 380 l 312 533 l 404 563 l 387 648 l 65 648 l 48 563 l 137 533 l 137 115 l 51 84 l 68 0 l 383 0 l 400 84 l 312 115 l 312 301 l 593 301 l 593 115 l 504 84 l 520 0 l 838 0 l 855 84 l 768 115 l 768 533 l 856 563 l 840 648 l 519 648 l 502 563 l 593 533 l 593 380 "},"":{"x_min":31.9375,"x_max":548.609375,"ha":574,"o":"m 497 1250 b 327 1176 437 1194 393 1176 b 190 1263 268 1176 218 1213 l 119 1263 l 31 1172 b 284 1048 98 1079 184 1048 b 548 1197 377 1048 484 1106 l 497 1250 "},"(":{"x_min":83.328125,"x_max":538.890625,"ha":567,"o":"m 538 -226 b 263 387 344 -226 263 113 b 538 955 263 661 347 955 l 538 1066 b 83 380 216 1066 83 668 b 538 -337 83 95 193 -337 l 538 -226 "},"":{"x_min":50.234375,"x_max":618.296875,"ha":669,"o":"m 153 -92 l 205 -181 b 618 374 421 -97 618 131 b 336 663 618 574 518 663 b 50 380 153 663 50 541 b 290 122 50 212 161 122 b 393 152 328 122 362 133 b 153 -92 340 45 253 -41 m 312 220 b 223 379 262 220 223 287 b 336 565 223 472 262 565 b 444 373 409 565 444 494 b 422 223 444 319 436 269 l 393 252 b 312 220 358 223 337 220 "},"Ħ":{"x_min":55.5625,"x_max":1083.328125,"ha":1139,"o":"m 1083 873 l 1069 972 l 672 972 l 658 873 l 775 827 l 775 733 l 363 733 l 363 827 l 480 873 l 466 972 l 69 972 l 55 873 l 172 827 l 172 733 l 55 733 l 55 661 l 172 661 l 172 141 l 56 98 l 72 0 l 463 0 l 477 98 l 363 141 l 363 447 l 775 447 l 775 141 l 658 98 l 672 0 l 1066 0 l 1081 98 l 966 143 l 966 661 l 1083 661 l 1083 733 l 966 733 l 966 827 l 1083 873 m 363 554 l 363 661 l 775 661 l 775 554 l 363 554 "},"м":{"x_min":41.671875,"x_max":1004.171875,"ha":1049,"o":"m 705 402 l 705 315 l 737 115 l 651 84 l 668 0 l 987 0 l 1004 84 l 912 115 l 858 533 l 945 563 l 929 648 l 684 648 l 506 190 l 506 301 l 366 648 l 126 648 l 109 563 l 198 533 l 133 115 l 41 84 l 58 0 l 302 0 l 319 84 l 233 115 l 293 441 l 293 341 l 437 -14 l 547 0 l 705 402 "},"Қ":{"x_min":48.609375,"x_max":988.890625,"ha":1011,"o":"m 668 0 l 801 0 l 890 -242 l 988 -228 l 988 98 l 868 142 l 640 479 l 545 523 l 791 773 b 970 873 823 806 886 849 l 955 972 l 620 972 l 604 873 l 691 827 l 415 545 l 415 472 l 680 74 l 668 0 m 356 827 l 473 873 l 459 972 l 63 972 l 48 874 l 165 827 l 165 144 l 48 98 l 62 0 l 459 0 l 473 99 l 356 144 l 356 827 "},"з":{"x_min":35.71875,"x_max":551,"ha":604,"o":"m 276 -13 b 551 193 453 -13 551 88 b 438 362 551 277 502 336 b 519 501 488 388 519 434 b 277 663 519 591 421 663 b 44 605 209 663 123 644 l 44 473 l 137 456 l 166 561 b 259 576 189 569 232 576 b 344 495 301 576 344 555 b 239 398 344 437 285 398 l 188 398 l 188 312 l 253 312 b 376 198 317 312 376 262 b 262 73 376 129 327 73 b 167 87 239 73 192 77 l 130 225 l 35 206 l 35 43 b 276 -13 116 4 209 -13 "},"Ґ":{"x_min":48.609375,"x_max":756.953125,"ha":757,"o":"m 756 865 l 756 1157 l 658 1171 l 583 972 l 65 972 l 48 875 l 165 827 l 165 141 l 51 98 l 65 0 l 448 0 l 463 98 l 348 143 l 348 865 l 756 865 "},"Û":{"x_min":41.671875,"x_max":1020.828125,"ha":1042,"o":"m 619 1288 l 523 1288 l 363 1052 l 405 1023 l 572 1159 l 736 1023 l 780 1052 l 619 1288 m 543 -23 b 158 415 351 -23 158 52 l 158 827 l 41 873 l 55 972 l 452 972 l 466 873 l 350 827 l 350 406 b 565 93 350 184 419 93 b 798 404 712 93 798 197 l 798 827 l 679 873 l 695 972 l 1006 972 l 1020 873 l 904 827 l 904 415 b 543 -23 904 55 722 -23 "},"і":{"x_min":55.5625,"x_max":408.328125,"ha":464,"o":"m 319 115 l 319 648 l 234 663 l 65 648 l 80 563 l 144 563 l 144 115 l 55 84 l 72 0 l 391 0 l 408 84 l 319 115 m 220 968 b 130 877 172 968 130 927 b 220 787 130 829 172 787 b 311 877 270 787 311 829 b 220 968 311 927 270 968 "},"ȉ":{"x_min":-72.671875,"x_max":407.875,"ha":464,"o":"m 306 779 l 367 811 l 266 1064 l 131 998 l 306 779 m 102 779 l 163 811 l 62 1064 l -72 998 l 102 779 m 407 86 l 391 0 l 71 0 l 55 86 l 144 115 l 144 564 l 80 564 l 64 648 l 234 664 l 319 648 l 319 115 l 407 86 "},"V":{"x_min":6.9375,"x_max":990.28125,"ha":997,"o":"m 866 827 l 990 873 l 975 972 l 661 972 l 644 873 l 754 827 l 516 202 l 516 365 l 336 827 l 443 873 l 427 972 l 23 972 l 6 873 l 130 827 l 455 -24 l 562 0 l 866 827 "},"Ŗ":{"x_min":48.609375,"x_max":927.78125,"ha":958,"o":"m 525 -49 b 601 -127 568 -49 601 -83 b 483 -311 601 -220 543 -280 l 444 -272 b 497 -186 476 -247 493 -215 l 473 -186 b 448 -127 458 -167 448 -148 b 525 -49 448 -84 481 -49 m 358 873 l 494 873 b 679 693 618 873 679 794 b 505 522 679 612 612 522 l 416 522 l 416 434 l 622 76 l 608 0 l 912 0 l 927 98 l 806 141 l 668 387 l 576 434 b 865 693 711 434 865 541 b 544 972 865 865 752 972 l 65 972 l 48 873 l 165 827 l 165 141 l 51 98 l 66 0 l 458 0 l 473 98 l 358 143 l 358 873 "},"ӯ":{"x_min":25,"x_max":823.609375,"ha":844,"o":"m 208 805 l 681 805 l 681 897 l 208 897 l 208 805 m 727 533 l 823 563 l 806 648 l 536 648 l 519 563 l 613 533 l 466 111 l 466 226 l 309 533 l 416 563 l 400 648 l 41 648 l 25 563 l 126 533 l 377 0 l 420 -15 l 393 -87 b 156 -248 344 -212 230 -237 l 172 -331 l 359 -347 b 490 -144 411 -311 469 -204 l 727 533 "},"@":{"x_min":125,"x_max":1276.390625,"ha":1401,"o":"m 938 178 b 900 217 906 178 900 191 l 941 660 l 859 677 l 809 665 b 711 677 777 674 747 677 b 423 345 563 677 423 565 b 618 104 423 189 513 104 b 762 143 686 104 725 118 b 911 70 791 82 844 70 b 1276 473 1112 70 1276 235 b 734 975 1276 782 1019 975 b 125 369 402 975 125 735 b 687 -177 125 56 373 -177 b 1050 -85 805 -177 920 -156 l 1012 2 b 697 -67 906 -54 786 -67 b 252 369 511 -67 252 71 b 738 864 252 632 440 864 b 1147 472 956 864 1147 715 b 938 178 1147 274 1027 178 m 745 249 b 663 209 726 223 694 209 b 588 358 630 209 588 251 b 715 592 588 532 659 592 b 776 579 737 592 754 589 l 745 249 "},"i":{"x_min":55.5625,"x_max":408.328125,"ha":464,"o":"m 319 115 l 319 648 l 234 663 l 65 648 l 80 563 l 144 563 l 144 115 l 55 84 l 72 0 l 391 0 l 408 84 l 319 115 m 220 968 b 130 877 172 968 130 927 b 220 787 130 829 172 787 b 311 877 270 787 311 829 b 220 968 311 927 270 968 "},"ќ":{"x_min":13.890625,"x_max":766.671875,"ha":781,"o":"m 577 998 l 443 1064 l 341 811 l 402 779 l 577 998 m 445 648 l 429 564 l 498 533 l 320 362 l 320 308 l 493 70 l 479 0 l 750 0 l 766 84 l 665 115 l 518 323 l 434 341 l 600 498 b 745 564 627 526 662 551 l 729 648 l 445 648 m 277 115 l 277 648 l 195 669 l 13 648 l 30 564 l 102 564 l 102 115 l 13 84 l 30 0 l 348 0 l 365 84 l 277 115 "},"ё":{"x_min":56.640625,"x_max":714,"ha":763,"o":"m 544 968 b 454 877 496 968 454 927 b 544 787 454 829 496 787 b 634 877 593 787 634 829 b 544 968 634 927 593 968 m 284 968 b 194 877 235 968 194 927 b 284 787 194 829 235 787 b 374 877 334 787 374 829 b 284 968 374 927 334 968 m 251 408 b 411 576 263 508 321 576 b 539 448 483 576 539 530 b 535 408 539 436 537 422 l 251 408 m 442 86 b 246 322 323 86 249 183 l 683 322 b 714 438 700 351 714 401 b 411 663 714 575 578 663 b 56 325 213 663 56 537 b 435 -15 56 119 171 -15 b 702 79 526 -15 614 6 l 655 150 b 442 86 585 102 513 86 "},"ĕ":{"x_min":55.828125,"x_max":714,"ha":763,"o":"m 404 913 b 225 993 333 913 268 940 l 175 958 b 404 793 204 877 286 793 b 634 958 523 793 605 877 l 583 993 b 404 913 540 940 476 913 m 250 408 b 411 576 262 508 321 576 b 539 448 483 576 539 530 b 534 408 539 436 537 422 l 250 408 m 441 86 b 246 322 322 86 248 183 l 683 322 b 714 438 700 351 714 401 b 411 663 714 575 577 663 b 55 325 212 663 55 537 b 434 -15 55 119 171 -15 b 702 79 526 -15 614 6 l 655 150 b 441 86 584 102 512 86 "},"ﬃ":{"x_min":27.78125,"x_max":1494.453125,"ha":1550,"o":"m 706 649 l 316 649 l 316 790 b 437 950 316 917 376 950 b 498 938 455 950 484 944 l 529 822 l 622 840 l 622 971 b 431 1038 559 1018 505 1038 b 141 764 255 1038 141 922 l 141 674 l 27 640 l 41 564 l 141 564 l 141 115 l 52 85 l 69 0 l 430 0 l 447 85 l 316 115 l 316 564 l 706 564 l 706 115 l 618 85 l 634 0 l 981 0 l 998 85 l 881 115 l 881 564 l 1230 564 l 1230 115 l 1141 85 l 1158 0 l 1477 0 l 1494 85 l 1405 115 l 1405 649 l 881 649 l 881 721 b 1073 950 881 847 961 950 b 1223 896 1134 950 1187 938 l 1222 878 b 1312 788 1222 829 1263 788 b 1402 878 1362 788 1402 829 b 1080 1038 1402 1000 1215 1038 b 706 694 804 1038 706 853 l 706 649 "},"ż":{"x_min":34.71875,"x_max":637.5,"ha":672,"o":"m 352 968 b 262 877 305 968 262 927 b 352 787 262 829 305 787 b 443 877 402 787 443 829 b 352 968 443 927 402 968 m 75 648 l 75 472 l 168 455 l 201 563 l 486 563 l 387 512 l 34 84 l 76 0 l 616 0 l 616 206 l 523 225 l 480 84 l 169 84 l 272 131 l 637 563 l 569 648 l 75 648 "},"Э":{"x_min":55.5625,"x_max":905.5625,"ha":961,"o":"m 398 93 b 223 113 359 93 269 102 l 154 305 l 55 291 l 55 68 b 398 -23 131 12 284 -23 b 905 486 758 -23 905 230 b 398 995 905 741 736 995 b 55 905 275 995 159 965 l 55 690 l 154 675 l 220 858 b 398 879 268 872 356 879 b 695 555 572 879 676 766 l 516 555 l 470 668 l 373 652 l 373 350 l 470 333 l 516 447 l 697 447 b 398 93 686 272 616 93 "},"ő":{"x_min":55.078125,"x_max":748.140625,"ha":804,"o":"m 481 998 l 346 1064 l 245 811 l 306 779 l 481 998 m 685 998 l 550 1064 l 449 811 l 510 779 l 685 998 m 402 663 b 55 325 191 663 55 531 b 402 -13 55 118 178 -13 b 748 325 627 -13 748 112 b 402 663 748 537 612 663 m 402 576 b 571 329 505 576 571 484 b 402 73 571 175 507 73 b 234 329 293 73 234 176 b 402 576 234 481 299 576 "},"ӧ":{"x_min":55.5625,"x_max":748.609375,"ha":804,"o":"m 531 968 b 441 877 483 968 441 927 b 531 787 441 829 483 787 b 622 877 580 787 622 829 b 531 968 622 927 580 968 m 270 968 b 180 877 222 968 180 927 b 270 787 180 829 222 787 b 361 877 320 787 361 829 b 270 968 361 927 320 968 m 402 663 b 55 325 191 663 55 531 b 402 -13 55 118 179 -13 b 748 325 627 -13 748 112 b 402 663 748 537 612 663 m 402 576 b 572 329 505 576 572 484 b 402 73 572 175 508 73 b 234 329 294 73 234 176 b 402 576 234 481 300 576 "},"Ŏ":{"x_min":83.328125,"x_max":1040.28125,"ha":1124,"o":"m 561 1169 b 381 1249 490 1169 425 1196 l 331 1214 b 561 1049 361 1133 443 1049 b 791 1214 680 1049 762 1133 l 740 1249 b 561 1169 697 1196 633 1169 m 562 996 b 83 486 252 996 83 742 b 562 -23 83 230 230 -23 b 1040 486 894 -23 1040 200 b 562 996 1040 772 872 996 m 562 879 b 834 493 740 879 834 749 b 562 93 834 237 744 93 b 291 493 381 93 291 230 b 562 879 291 755 384 879 "},"ю":{"x_min":48.609375,"x_max":1081.953125,"ha":1138,"o":"m 136 115 l 48 84 l 65 0 l 381 0 l 398 84 l 311 115 l 311 286 l 437 286 b 759 -13 448 101 551 -13 b 1081 325 986 -13 1081 112 b 759 663 1081 537 969 663 b 438 376 568 663 456 552 l 311 376 l 311 533 l 398 563 l 381 648 l 65 648 l 48 563 l 136 533 l 136 115 m 759 576 b 891 329 851 576 891 484 b 759 73 891 175 852 73 b 629 329 666 73 629 176 b 759 576 629 481 668 576 "},"Ѐ":{"x_min":48.609375,"x_max":802.78125,"ha":851,"o":"m 497 1052 l 537 1090 l 365 1307 l 252 1208 l 497 1052 m 356 873 l 356 555 l 500 555 l 541 668 l 641 654 l 641 347 l 543 333 l 500 445 l 356 445 l 356 98 l 630 98 l 704 306 l 802 293 l 802 0 l 65 0 l 51 98 l 165 141 l 165 827 l 48 873 l 63 972 l 779 972 l 779 725 l 679 709 l 625 873 l 356 873 "},"Ӟ":{"x_min":32.515625,"x_max":724.1875,"ha":794,"o":"m 468 1216 b 378 1126 420 1216 378 1176 b 468 1036 378 1077 420 1036 b 558 1126 517 1036 558 1077 b 468 1216 558 1176 517 1216 m 207 1216 b 117 1126 158 1216 117 1176 b 207 1036 117 1077 158 1036 b 297 1126 257 1036 297 1077 b 207 1216 297 1176 257 1216 m 342 -23 b 724 286 603 -23 724 123 b 543 543 724 418 643 504 b 676 754 622 580 676 651 b 340 995 676 888 581 995 b 46 905 261 995 147 963 l 46 690 l 145 675 l 211 859 b 340 879 250 872 303 879 b 470 741 418 879 470 830 b 303 590 470 655 381 590 l 240 590 l 240 480 l 328 480 b 517 301 438 480 517 405 b 342 93 517 179 445 93 b 196 122 290 93 239 105 l 132 305 l 32 291 l 32 66 b 342 -23 110 11 228 -23 "},"İ":{"x_min":83.328125,"x_max":511.109375,"ha":594,"o":"m 297 1215 b 206 1125 250 1215 206 1175 b 297 1034 206 1076 250 1034 b 387 1125 347 1034 387 1076 b 297 1215 387 1175 347 1215 m 393 827 l 511 873 l 494 972 l 100 972 l 83 873 l 201 827 l 201 141 l 83 98 l 100 0 l 494 0 l 511 98 l 393 141 l 393 827 "}}}
